<mxfile host="app.diagrams.net" agent="Mozilla/5.0 (Windows NT 10.0; Win64; x64) AppleWebKit/537.36 (KHTML, like Gecko) Chrome/130.0.0.0 Safari/537.36" version="24.8.4" pages="6">
  <diagram id="dfBel8BZbMAKlLWUk-0r" name="v.0.0.1.0">
    <mxGraphModel dx="3781" dy="1106" grid="1" gridSize="10" guides="1" tooltips="1" connect="1" arrows="1" fold="1" page="1" pageScale="1" pageWidth="827" pageHeight="1169" math="0" shadow="0">
      <root>
        <mxCell id="0" />
        <mxCell id="1" parent="0" />
        <mxCell id="yDpj35aRzYrjUjJNTT3e-50" style="edgeStyle=orthogonalEdgeStyle;rounded=0;orthogonalLoop=1;jettySize=auto;html=1;exitX=0.5;exitY=1;exitDx=0;exitDy=0;entryX=0.5;entryY=0;entryDx=0;entryDy=0;" parent="1" edge="1">
          <mxGeometry relative="1" as="geometry">
            <mxPoint x="280" y="200" as="sourcePoint" />
          </mxGeometry>
        </mxCell>
        <mxCell id="yDpj35aRzYrjUjJNTT3e-54" style="edgeStyle=orthogonalEdgeStyle;rounded=0;orthogonalLoop=1;jettySize=auto;html=1;exitX=0.5;exitY=1;exitDx=0;exitDy=0;entryX=0.5;entryY=0;entryDx=0;entryDy=0;" parent="1" edge="1">
          <mxGeometry relative="1" as="geometry">
            <mxPoint x="280" y="250" as="sourcePoint" />
          </mxGeometry>
        </mxCell>
        <mxCell id="yDpj35aRzYrjUjJNTT3e-155" value="Генератор проблем" style="swimlane;whiteSpace=wrap;html=1;fillColor=#dae8fc;strokeColor=#6c8ebf;" parent="1" vertex="1">
          <mxGeometry x="-320" y="60" width="550" height="500" as="geometry" />
        </mxCell>
        <mxCell id="yDpj35aRzYrjUjJNTT3e-157" value="API" style="swimlane;fontStyle=0;childLayout=stackLayout;horizontal=1;startSize=30;horizontalStack=0;resizeParent=1;resizeParentMax=0;resizeLast=0;collapsible=1;marginBottom=0;whiteSpace=wrap;html=1;fillColor=#f5f5f5;fontColor=#333333;strokeColor=#666666;" parent="yDpj35aRzYrjUjJNTT3e-155" vertex="1">
          <mxGeometry x="30" y="40" width="490" height="120" as="geometry" />
        </mxCell>
        <mxCell id="yDpj35aRzYrjUjJNTT3e-158" value="POST /CREATE GENERATOR -&amp;gt; (GUID ShipID)" style="text;strokeColor=default;fillColor=none;align=left;verticalAlign=middle;spacingLeft=4;spacingRight=4;overflow=hidden;points=[[0,0.5],[1,0.5]];portConstraint=eastwest;rotatable=0;whiteSpace=wrap;html=1;" parent="yDpj35aRzYrjUjJNTT3e-157" vertex="1">
          <mxGeometry y="30" width="490" height="30" as="geometry" />
        </mxCell>
        <mxCell id="moZ7emkVkRPpjhyuHu_R-1" value="POST /ADD TROUBLE COIN -&amp;gt; (GUID GeneratorID)" style="text;strokeColor=default;fillColor=none;align=left;verticalAlign=middle;spacingLeft=4;spacingRight=4;overflow=hidden;points=[[0,0.5],[1,0.5]];portConstraint=eastwest;rotatable=0;whiteSpace=wrap;html=1;" parent="yDpj35aRzYrjUjJNTT3e-157" vertex="1">
          <mxGeometry y="60" width="490" height="30" as="geometry" />
        </mxCell>
        <mxCell id="moZ7emkVkRPpjhyuHu_R-2" value="POST /CREATE EVENT -&amp;gt; (GUID ShipID, GUID GeneratorID)" style="text;strokeColor=default;fillColor=none;align=left;verticalAlign=middle;spacingLeft=4;spacingRight=4;overflow=hidden;points=[[0,0.5],[1,0.5]];portConstraint=eastwest;rotatable=0;whiteSpace=wrap;html=1;" parent="yDpj35aRzYrjUjJNTT3e-157" vertex="1">
          <mxGeometry y="90" width="490" height="30" as="geometry" />
        </mxCell>
        <mxCell id="hwmmj-huWN-MuVbleVLT-1" value="Generator" style="shape=table;startSize=30;container=1;collapsible=1;childLayout=tableLayout;fixedRows=1;rowLines=0;fontStyle=1;align=center;resizeLast=1;html=1;" parent="yDpj35aRzYrjUjJNTT3e-155" vertex="1">
          <mxGeometry x="30" y="320" width="190" height="125" as="geometry" />
        </mxCell>
        <mxCell id="hwmmj-huWN-MuVbleVLT-2" value="" style="shape=tableRow;horizontal=0;startSize=0;swimlaneHead=0;swimlaneBody=0;fillColor=none;collapsible=0;dropTarget=0;points=[[0,0.5],[1,0.5]];portConstraint=eastwest;top=0;left=0;right=0;bottom=1;" parent="hwmmj-huWN-MuVbleVLT-1" vertex="1">
          <mxGeometry y="30" width="190" height="30" as="geometry" />
        </mxCell>
        <mxCell id="hwmmj-huWN-MuVbleVLT-3" value="PK" style="shape=partialRectangle;connectable=0;fillColor=none;top=0;left=0;bottom=0;right=0;fontStyle=1;overflow=hidden;whiteSpace=wrap;html=1;" parent="hwmmj-huWN-MuVbleVLT-2" vertex="1">
          <mxGeometry width="30" height="30" as="geometry">
            <mxRectangle width="30" height="30" as="alternateBounds" />
          </mxGeometry>
        </mxCell>
        <mxCell id="hwmmj-huWN-MuVbleVLT-4" value="&lt;span style=&quot;font-weight: 400;&quot;&gt;GeneratorID&lt;/span&gt;" style="shape=partialRectangle;connectable=0;fillColor=none;top=0;left=0;bottom=0;right=0;align=left;spacingLeft=6;fontStyle=5;overflow=hidden;whiteSpace=wrap;html=1;" parent="hwmmj-huWN-MuVbleVLT-2" vertex="1">
          <mxGeometry x="30" width="160" height="30" as="geometry">
            <mxRectangle width="160" height="30" as="alternateBounds" />
          </mxGeometry>
        </mxCell>
        <mxCell id="hwmmj-huWN-MuVbleVLT-27" value="" style="shape=tableRow;horizontal=0;startSize=0;swimlaneHead=0;swimlaneBody=0;fillColor=none;collapsible=0;dropTarget=0;points=[[0,0.5],[1,0.5]];portConstraint=eastwest;top=0;left=0;right=0;bottom=0;" parent="hwmmj-huWN-MuVbleVLT-1" vertex="1">
          <mxGeometry y="60" width="190" height="30" as="geometry" />
        </mxCell>
        <mxCell id="hwmmj-huWN-MuVbleVLT-28" value="" style="shape=partialRectangle;connectable=0;fillColor=none;top=0;left=0;bottom=0;right=0;fontStyle=0;overflow=hidden;whiteSpace=wrap;html=1;" parent="hwmmj-huWN-MuVbleVLT-27" vertex="1">
          <mxGeometry width="30" height="30" as="geometry">
            <mxRectangle width="30" height="30" as="alternateBounds" />
          </mxGeometry>
        </mxCell>
        <mxCell id="hwmmj-huWN-MuVbleVLT-29" value="ShipID" style="shape=partialRectangle;connectable=0;fillColor=none;top=0;left=0;bottom=0;right=0;align=left;spacingLeft=6;fontStyle=0;overflow=hidden;whiteSpace=wrap;html=1;" parent="hwmmj-huWN-MuVbleVLT-27" vertex="1">
          <mxGeometry x="30" width="160" height="30" as="geometry">
            <mxRectangle width="160" height="30" as="alternateBounds" />
          </mxGeometry>
        </mxCell>
        <mxCell id="hwmmj-huWN-MuVbleVLT-5" value="" style="shape=tableRow;horizontal=0;startSize=0;swimlaneHead=0;swimlaneBody=0;fillColor=none;collapsible=0;dropTarget=0;points=[[0,0.5],[1,0.5]];portConstraint=eastwest;top=0;left=0;right=0;bottom=0;" parent="hwmmj-huWN-MuVbleVLT-1" vertex="1">
          <mxGeometry y="90" width="190" height="30" as="geometry" />
        </mxCell>
        <mxCell id="hwmmj-huWN-MuVbleVLT-6" value="" style="shape=partialRectangle;connectable=0;fillColor=none;top=0;left=0;bottom=0;right=0;editable=1;overflow=hidden;whiteSpace=wrap;html=1;" parent="hwmmj-huWN-MuVbleVLT-5" vertex="1">
          <mxGeometry width="30" height="30" as="geometry">
            <mxRectangle width="30" height="30" as="alternateBounds" />
          </mxGeometry>
        </mxCell>
        <mxCell id="hwmmj-huWN-MuVbleVLT-7" value="TroubleCoins" style="shape=partialRectangle;connectable=0;fillColor=none;top=0;left=0;bottom=0;right=0;align=left;spacingLeft=6;overflow=hidden;whiteSpace=wrap;html=1;" parent="hwmmj-huWN-MuVbleVLT-5" vertex="1">
          <mxGeometry x="30" width="160" height="30" as="geometry">
            <mxRectangle width="160" height="30" as="alternateBounds" />
          </mxGeometry>
        </mxCell>
        <mxCell id="hwmmj-huWN-MuVbleVLT-45" value="" style="endArrow=none;dashed=1;html=1;rounded=0;exitX=0;exitY=0.5;exitDx=0;exitDy=0;" parent="yDpj35aRzYrjUjJNTT3e-155" edge="1">
          <mxGeometry width="50" height="50" relative="1" as="geometry">
            <mxPoint y="290" as="sourcePoint" />
            <mxPoint x="550" y="290" as="targetPoint" />
            <Array as="points">
              <mxPoint x="230" y="290" />
            </Array>
          </mxGeometry>
        </mxCell>
        <mxCell id="moZ7emkVkRPpjhyuHu_R-3" value="API" style="swimlane;fontStyle=0;childLayout=stackLayout;horizontal=1;startSize=30;horizontalStack=0;resizeParent=1;resizeParentMax=0;resizeLast=0;collapsible=1;marginBottom=0;whiteSpace=wrap;html=1;fillColor=#f5f5f5;fontColor=#333333;strokeColor=#666666;" parent="yDpj35aRzYrjUjJNTT3e-155" vertex="1">
          <mxGeometry x="30" y="180" width="490" height="90" as="geometry" />
        </mxCell>
        <mxCell id="moZ7emkVkRPpjhyuHu_R-4" value="GET / GET GENERATOR -&amp;gt; (GUID GeneratorID)" style="text;strokeColor=default;fillColor=none;align=left;verticalAlign=middle;spacingLeft=4;spacingRight=4;overflow=hidden;points=[[0,0.5],[1,0.5]];portConstraint=eastwest;rotatable=0;whiteSpace=wrap;html=1;" parent="moZ7emkVkRPpjhyuHu_R-3" vertex="1">
          <mxGeometry y="30" width="490" height="30" as="geometry" />
        </mxCell>
        <mxCell id="moZ7emkVkRPpjhyuHu_R-8" value="GET / GET EVENT -&amp;gt; (GUID GeneratorID)" style="text;strokeColor=default;fillColor=none;align=left;verticalAlign=middle;spacingLeft=4;spacingRight=4;overflow=hidden;points=[[0,0.5],[1,0.5]];portConstraint=eastwest;rotatable=0;whiteSpace=wrap;html=1;" parent="moZ7emkVkRPpjhyuHu_R-3" vertex="1">
          <mxGeometry y="60" width="490" height="30" as="geometry" />
        </mxCell>
        <mxCell id="moZ7emkVkRPpjhyuHu_R-14" value="Event" style="shape=table;startSize=30;container=1;collapsible=1;childLayout=tableLayout;fixedRows=1;rowLines=0;fontStyle=1;align=center;resizeLast=1;html=1;" parent="yDpj35aRzYrjUjJNTT3e-155" vertex="1">
          <mxGeometry x="317" y="320" width="200" height="125" as="geometry" />
        </mxCell>
        <mxCell id="moZ7emkVkRPpjhyuHu_R-15" value="" style="shape=tableRow;horizontal=0;startSize=0;swimlaneHead=0;swimlaneBody=0;fillColor=none;collapsible=0;dropTarget=0;points=[[0,0.5],[1,0.5]];portConstraint=eastwest;top=0;left=0;right=0;bottom=1;" parent="moZ7emkVkRPpjhyuHu_R-14" vertex="1">
          <mxGeometry y="30" width="200" height="30" as="geometry" />
        </mxCell>
        <mxCell id="moZ7emkVkRPpjhyuHu_R-16" value="PK" style="shape=partialRectangle;connectable=0;fillColor=none;top=0;left=0;bottom=0;right=0;fontStyle=1;overflow=hidden;whiteSpace=wrap;html=1;" parent="moZ7emkVkRPpjhyuHu_R-15" vertex="1">
          <mxGeometry width="30" height="30" as="geometry">
            <mxRectangle width="30" height="30" as="alternateBounds" />
          </mxGeometry>
        </mxCell>
        <mxCell id="moZ7emkVkRPpjhyuHu_R-17" value="&lt;span style=&quot;font-weight: normal;&quot;&gt;EventID&lt;/span&gt;" style="shape=partialRectangle;connectable=0;fillColor=none;top=0;left=0;bottom=0;right=0;align=left;spacingLeft=6;fontStyle=5;overflow=hidden;whiteSpace=wrap;html=1;" parent="moZ7emkVkRPpjhyuHu_R-15" vertex="1">
          <mxGeometry x="30" width="170" height="30" as="geometry">
            <mxRectangle width="170" height="30" as="alternateBounds" />
          </mxGeometry>
        </mxCell>
        <mxCell id="moZ7emkVkRPpjhyuHu_R-18" value="" style="shape=tableRow;horizontal=0;startSize=0;swimlaneHead=0;swimlaneBody=0;fillColor=none;collapsible=0;dropTarget=0;points=[[0,0.5],[1,0.5]];portConstraint=eastwest;top=0;left=0;right=0;bottom=0;" parent="moZ7emkVkRPpjhyuHu_R-14" vertex="1">
          <mxGeometry y="60" width="200" height="30" as="geometry" />
        </mxCell>
        <mxCell id="moZ7emkVkRPpjhyuHu_R-19" value="" style="shape=partialRectangle;connectable=0;fillColor=none;top=0;left=0;bottom=0;right=0;fontStyle=0;overflow=hidden;whiteSpace=wrap;html=1;" parent="moZ7emkVkRPpjhyuHu_R-18" vertex="1">
          <mxGeometry width="30" height="30" as="geometry">
            <mxRectangle width="30" height="30" as="alternateBounds" />
          </mxGeometry>
        </mxCell>
        <mxCell id="moZ7emkVkRPpjhyuHu_R-20" value="GeneratorID" style="shape=partialRectangle;connectable=0;fillColor=none;top=0;left=0;bottom=0;right=0;align=left;spacingLeft=6;fontStyle=0;overflow=hidden;whiteSpace=wrap;html=1;" parent="moZ7emkVkRPpjhyuHu_R-18" vertex="1">
          <mxGeometry x="30" width="170" height="30" as="geometry">
            <mxRectangle width="170" height="30" as="alternateBounds" />
          </mxGeometry>
        </mxCell>
        <mxCell id="moZ7emkVkRPpjhyuHu_R-21" value="" style="shape=tableRow;horizontal=0;startSize=0;swimlaneHead=0;swimlaneBody=0;fillColor=none;collapsible=0;dropTarget=0;points=[[0,0.5],[1,0.5]];portConstraint=eastwest;top=0;left=0;right=0;bottom=0;" parent="moZ7emkVkRPpjhyuHu_R-14" vertex="1">
          <mxGeometry y="90" width="200" height="30" as="geometry" />
        </mxCell>
        <mxCell id="moZ7emkVkRPpjhyuHu_R-22" value="" style="shape=partialRectangle;connectable=0;fillColor=none;top=0;left=0;bottom=0;right=0;editable=1;overflow=hidden;whiteSpace=wrap;html=1;" parent="moZ7emkVkRPpjhyuHu_R-21" vertex="1">
          <mxGeometry width="30" height="30" as="geometry">
            <mxRectangle width="30" height="30" as="alternateBounds" />
          </mxGeometry>
        </mxCell>
        <mxCell id="moZ7emkVkRPpjhyuHu_R-23" value="EventLevel" style="shape=partialRectangle;connectable=0;fillColor=none;top=0;left=0;bottom=0;right=0;align=left;spacingLeft=6;overflow=hidden;whiteSpace=wrap;html=1;" parent="moZ7emkVkRPpjhyuHu_R-21" vertex="1">
          <mxGeometry x="30" width="170" height="30" as="geometry">
            <mxRectangle width="170" height="30" as="alternateBounds" />
          </mxGeometry>
        </mxCell>
        <mxCell id="moZ7emkVkRPpjhyuHu_R-30" value="" style="endArrow=none;html=1;rounded=0;entryX=0;entryY=0.5;entryDx=0;entryDy=0;" parent="yDpj35aRzYrjUjJNTT3e-155" target="moZ7emkVkRPpjhyuHu_R-18" edge="1">
          <mxGeometry width="50" height="50" relative="1" as="geometry">
            <mxPoint x="220" y="370" as="sourcePoint" />
            <mxPoint x="270" y="320" as="targetPoint" />
            <Array as="points">
              <mxPoint x="270" y="370" />
              <mxPoint x="270" y="395" />
            </Array>
          </mxGeometry>
        </mxCell>
        <mxCell id="moZ7emkVkRPpjhyuHu_R-10" value="" style="endArrow=classic;html=1;rounded=0;strokeWidth=3;shadow=1;" parent="1" edge="1">
          <mxGeometry width="50" height="50" relative="1" as="geometry">
            <mxPoint x="-400" y="174.5" as="sourcePoint" />
            <mxPoint x="-320" y="174.5" as="targetPoint" />
            <Array as="points" />
          </mxGeometry>
        </mxCell>
        <mxCell id="moZ7emkVkRPpjhyuHu_R-34" value="" style="endArrow=classic;html=1;rounded=0;strokeWidth=3;shadow=1;" parent="1" edge="1">
          <mxGeometry width="50" height="50" relative="1" as="geometry">
            <mxPoint x="300" y="172.16" as="sourcePoint" />
            <mxPoint x="320" y="172.16" as="targetPoint" />
            <Array as="points">
              <mxPoint x="230" y="172.16" />
            </Array>
          </mxGeometry>
        </mxCell>
        <mxCell id="moZ7emkVkRPpjhyuHu_R-38" value="&lt;font style=&quot;font-size: 22px;&quot;&gt;&lt;b&gt;SHARED&lt;/b&gt;&lt;/font&gt;" style="ellipse;whiteSpace=wrap;html=1;" parent="1" vertex="1">
          <mxGeometry x="-150" y="610" width="200" height="80" as="geometry" />
        </mxCell>
        <mxCell id="moZ7emkVkRPpjhyuHu_R-43" value="" style="endArrow=none;html=1;rounded=0;strokeColor=none;" parent="1" edge="1">
          <mxGeometry width="50" height="50" relative="1" as="geometry">
            <mxPoint x="-410" y="440" as="sourcePoint" />
            <mxPoint x="-360" y="390" as="targetPoint" />
          </mxGeometry>
        </mxCell>
        <mxCell id="moZ7emkVkRPpjhyuHu_R-47" value="" style="shape=link;html=1;rounded=0;entryX=0.5;entryY=0;entryDx=0;entryDy=0;strokeWidth=2;" parent="1" target="moZ7emkVkRPpjhyuHu_R-38" edge="1">
          <mxGeometry width="100" relative="1" as="geometry">
            <mxPoint x="-50" y="560" as="sourcePoint" />
            <mxPoint x="-100" y="580" as="targetPoint" />
          </mxGeometry>
        </mxCell>
        <mxCell id="c4m5YdowymZK2dHKrdJX-1" value="&lt;div&gt;&lt;span style=&quot;font-size: 22px; font-weight: 700;&quot;&gt;RabbitMQ&lt;/span&gt;&lt;/div&gt;&lt;b style=&quot;font-size: 18px;&quot;&gt;&lt;font style=&quot;font-size: 18px;&quot;&gt;Consumer:&lt;/font&gt;&lt;/b&gt;&lt;div&gt;&lt;span style=&quot;font-size: 18px;&quot;&gt;&lt;b&gt;&lt;br&gt;&lt;/b&gt;&lt;/span&gt;&lt;div style=&quot;&quot;&gt;&lt;div style=&quot;&quot;&gt;&lt;span style=&quot;font-size: 18px;&quot;&gt;&lt;b&gt;q_new_day_generator&lt;/b&gt;&lt;/span&gt;&lt;/div&gt;&lt;div style=&quot;&quot;&gt;&lt;br&gt;&lt;/div&gt;&lt;/div&gt;&lt;/div&gt;" style="rounded=1;whiteSpace=wrap;html=1;" vertex="1" parent="1">
          <mxGeometry x="-630" y="100" width="230" height="140" as="geometry" />
        </mxCell>
        <mxCell id="c4m5YdowymZK2dHKrdJX-2" value="&lt;div&gt;&lt;span style=&quot;font-size: 22px; font-weight: 700;&quot;&gt;RabbitMQ&lt;/span&gt;&lt;/div&gt;&lt;font style=&quot;font-size: 18px;&quot;&gt;&lt;b&gt;Publisher&lt;font style=&quot;font-size: 18px;&quot;&gt;:&lt;/font&gt;&lt;/b&gt;&lt;/font&gt;&lt;div&gt;&lt;span style=&quot;font-size: 18px;&quot;&gt;&lt;b&gt;&lt;br&gt;&lt;/b&gt;&lt;/span&gt;&lt;div style=&quot;&quot;&gt;&lt;div style=&quot;&quot;&gt;&lt;span style=&quot;font-size: 18px;&quot;&gt;&lt;b&gt;x_troubles&lt;/b&gt;&lt;/span&gt;&lt;/div&gt;&lt;div style=&quot;&quot;&gt;&lt;span style=&quot;font-size: 18px;&quot;&gt;&lt;b&gt;x_new_day&lt;/b&gt;&lt;/span&gt;&lt;/div&gt;&lt;/div&gt;&lt;/div&gt;" style="rounded=1;whiteSpace=wrap;html=1;" vertex="1" parent="1">
          <mxGeometry x="320" y="100" width="230" height="140" as="geometry" />
        </mxCell>
      </root>
    </mxGraphModel>
  </diagram>
  <diagram id="n_zZNoK9saNBbSGkEnjk" name="mini-MVP">
    <mxGraphModel dx="517" dy="2345" grid="1" gridSize="10" guides="1" tooltips="1" connect="1" arrows="1" fold="1" page="1" pageScale="1" pageWidth="827" pageHeight="1169" math="0" shadow="0">
      <root>
        <mxCell id="0" />
        <mxCell id="1" parent="0" />
        <mxCell id="ru6GTVTsthadgG9aIRJ9-62" value=".NET Service: Корабль" style="swimlane;whiteSpace=wrap;html=1;fillColor=#e1d5e7;strokeColor=#9673a6;" parent="1" vertex="1">
          <mxGeometry x="3150" y="-85" width="500" height="160" as="geometry" />
        </mxCell>
        <mxCell id="ru6GTVTsthadgG9aIRJ9-119" value="" style="edgeStyle=orthogonalEdgeStyle;fontSize=12;html=1;endArrow=ERzeroToMany;startArrow=ERmandOne;rounded=0;exitX=1;exitY=0.5;exitDx=0;exitDy=0;entryX=0;entryY=0.5;entryDx=0;entryDy=0;" parent="1" source="ru6GTVTsthadgG9aIRJ9-159" target="ru6GTVTsthadgG9aIRJ9-190" edge="1">
          <mxGeometry width="100" height="100" relative="1" as="geometry">
            <mxPoint x="1890" y="-350" as="sourcePoint" />
            <mxPoint x="1990" y="-450" as="targetPoint" />
          </mxGeometry>
        </mxCell>
        <mxCell id="ru6GTVTsthadgG9aIRJ9-120" value="" style="edgeStyle=orthogonalEdgeStyle;fontSize=12;html=1;endArrow=ERmandOne;startArrow=ERzeroToOne;rounded=0;exitX=0;exitY=0.5;exitDx=0;exitDy=0;entryX=0;entryY=0.5;entryDx=0;entryDy=0;startFill=0;" parent="1" source="ru6GTVTsthadgG9aIRJ9-205" target="ru6GTVTsthadgG9aIRJ9-175" edge="1">
          <mxGeometry width="100" height="100" relative="1" as="geometry">
            <mxPoint x="2040" y="-270" as="sourcePoint" />
            <mxPoint x="2040" y="-450" as="targetPoint" />
            <Array as="points">
              <mxPoint x="2040" y="-555" />
              <mxPoint x="2040" y="-746" />
            </Array>
          </mxGeometry>
        </mxCell>
        <mxCell id="ru6GTVTsthadgG9aIRJ9-137" value="" style="edgeStyle=orthogonalEdgeStyle;fontSize=12;html=1;endArrow=ERzeroToMany;startArrow=ERmandOne;rounded=0;exitX=1;exitY=0.5;exitDx=0;exitDy=0;entryX=1;entryY=0.5;entryDx=0;entryDy=0;" parent="1" source="ru6GTVTsthadgG9aIRJ9-197" target="ru6GTVTsthadgG9aIRJ9-265" edge="1">
          <mxGeometry width="100" height="100" relative="1" as="geometry">
            <mxPoint x="2770" y="-535" as="sourcePoint" />
            <mxPoint x="2980" y="-480" as="targetPoint" />
            <Array as="points">
              <mxPoint x="2730" y="-755" />
              <mxPoint x="2730" y="-575" />
            </Array>
          </mxGeometry>
        </mxCell>
        <mxCell id="ru6GTVTsthadgG9aIRJ9-138" value="" style="edgeStyle=orthogonalEdgeStyle;fontSize=12;html=1;endArrow=ERzeroToMany;startArrow=ERmandOne;rounded=0;exitX=1;exitY=0.5;exitDx=0;exitDy=0;entryX=1;entryY=0.5;entryDx=0;entryDy=0;" parent="1" source="ru6GTVTsthadgG9aIRJ9-245" target="ru6GTVTsthadgG9aIRJ9-277" edge="1">
          <mxGeometry width="100" height="100" relative="1" as="geometry">
            <mxPoint x="2860" y="-230" as="sourcePoint" />
            <mxPoint x="2760" y="-540" as="targetPoint" />
            <Array as="points">
              <mxPoint x="2730" y="-365" />
              <mxPoint x="2730" y="-545" />
            </Array>
          </mxGeometry>
        </mxCell>
        <mxCell id="ru6GTVTsthadgG9aIRJ9-158" value="Пользователи" style="shape=table;startSize=30;container=1;collapsible=1;childLayout=tableLayout;fixedRows=1;rowLines=0;fontStyle=1;align=center;resizeLast=1;html=1;fillColor=#f5f5f5;fontColor=#333333;strokeColor=#666666;" parent="1" vertex="1">
          <mxGeometry x="1730" y="-730" width="180" height="90" as="geometry" />
        </mxCell>
        <mxCell id="ru6GTVTsthadgG9aIRJ9-159" value="" style="shape=tableRow;horizontal=0;startSize=0;swimlaneHead=0;swimlaneBody=0;fillColor=none;collapsible=0;dropTarget=0;points=[[0,0.5],[1,0.5]];portConstraint=eastwest;top=0;left=0;right=0;bottom=1;" parent="ru6GTVTsthadgG9aIRJ9-158" vertex="1">
          <mxGeometry y="30" width="180" height="30" as="geometry" />
        </mxCell>
        <mxCell id="ru6GTVTsthadgG9aIRJ9-160" value="PK" style="shape=partialRectangle;connectable=0;fillColor=none;top=0;left=0;bottom=0;right=0;fontStyle=1;overflow=hidden;whiteSpace=wrap;html=1;" parent="ru6GTVTsthadgG9aIRJ9-159" vertex="1">
          <mxGeometry width="30" height="30" as="geometry">
            <mxRectangle width="30" height="30" as="alternateBounds" />
          </mxGeometry>
        </mxCell>
        <mxCell id="ru6GTVTsthadgG9aIRJ9-161" value="GUID: string" style="shape=partialRectangle;connectable=0;fillColor=none;top=0;left=0;bottom=0;right=0;align=left;spacingLeft=6;fontStyle=5;overflow=hidden;whiteSpace=wrap;html=1;" parent="ru6GTVTsthadgG9aIRJ9-159" vertex="1">
          <mxGeometry x="30" width="150" height="30" as="geometry">
            <mxRectangle width="150" height="30" as="alternateBounds" />
          </mxGeometry>
        </mxCell>
        <mxCell id="ru6GTVTsthadgG9aIRJ9-162" value="" style="shape=tableRow;horizontal=0;startSize=0;swimlaneHead=0;swimlaneBody=0;fillColor=none;collapsible=0;dropTarget=0;points=[[0,0.5],[1,0.5]];portConstraint=eastwest;top=0;left=0;right=0;bottom=0;" parent="ru6GTVTsthadgG9aIRJ9-158" vertex="1">
          <mxGeometry y="60" width="180" height="30" as="geometry" />
        </mxCell>
        <mxCell id="ru6GTVTsthadgG9aIRJ9-163" value="" style="shape=partialRectangle;connectable=0;fillColor=none;top=0;left=0;bottom=0;right=0;editable=1;overflow=hidden;whiteSpace=wrap;html=1;" parent="ru6GTVTsthadgG9aIRJ9-162" vertex="1">
          <mxGeometry width="30" height="30" as="geometry">
            <mxRectangle width="30" height="30" as="alternateBounds" />
          </mxGeometry>
        </mxCell>
        <mxCell id="ru6GTVTsthadgG9aIRJ9-164" value="хэш пароля: string" style="shape=partialRectangle;connectable=0;fillColor=none;top=0;left=0;bottom=0;right=0;align=left;spacingLeft=6;overflow=hidden;whiteSpace=wrap;html=1;" parent="ru6GTVTsthadgG9aIRJ9-162" vertex="1">
          <mxGeometry x="30" width="150" height="30" as="geometry">
            <mxRectangle width="150" height="30" as="alternateBounds" />
          </mxGeometry>
        </mxCell>
        <mxCell id="ru6GTVTsthadgG9aIRJ9-171" value="Сессии" style="shape=table;startSize=30;container=1;collapsible=1;childLayout=tableLayout;fixedRows=1;rowLines=0;fontStyle=1;align=center;resizeLast=1;html=1;whiteSpace=wrap;fillColor=#f5f5f5;fontColor=#333333;strokeColor=#666666;" parent="1" vertex="1">
          <mxGeometry x="2100" y="-880" width="180" height="180" as="geometry" />
        </mxCell>
        <mxCell id="ru6GTVTsthadgG9aIRJ9-236" value="" style="shape=tableRow;horizontal=0;startSize=0;swimlaneHead=0;swimlaneBody=0;fillColor=none;collapsible=0;dropTarget=0;points=[[0,0.5],[1,0.5]];portConstraint=eastwest;top=0;left=0;right=0;bottom=1;" parent="ru6GTVTsthadgG9aIRJ9-171" vertex="1">
          <mxGeometry y="30" width="180" height="30" as="geometry" />
        </mxCell>
        <mxCell id="ru6GTVTsthadgG9aIRJ9-237" value="PK" style="shape=partialRectangle;connectable=0;fillColor=none;top=0;left=0;bottom=0;right=0;fontStyle=1;overflow=hidden;whiteSpace=wrap;html=1;" parent="ru6GTVTsthadgG9aIRJ9-236" vertex="1">
          <mxGeometry width="60" height="30" as="geometry">
            <mxRectangle width="60" height="30" as="alternateBounds" />
          </mxGeometry>
        </mxCell>
        <mxCell id="ru6GTVTsthadgG9aIRJ9-238" value="GUID: string" style="shape=partialRectangle;connectable=0;fillColor=none;top=0;left=0;bottom=0;right=0;align=left;spacingLeft=6;fontStyle=5;overflow=hidden;whiteSpace=wrap;html=1;" parent="ru6GTVTsthadgG9aIRJ9-236" vertex="1">
          <mxGeometry x="60" width="120" height="30" as="geometry">
            <mxRectangle width="120" height="30" as="alternateBounds" />
          </mxGeometry>
        </mxCell>
        <mxCell id="ru6GTVTsthadgG9aIRJ9-190" value="" style="shape=tableRow;horizontal=0;startSize=0;swimlaneHead=0;swimlaneBody=0;fillColor=none;collapsible=0;dropTarget=0;points=[[0,0.5],[1,0.5]];portConstraint=eastwest;top=0;left=0;right=0;bottom=0;html=1;" parent="ru6GTVTsthadgG9aIRJ9-171" vertex="1">
          <mxGeometry y="60" width="180" height="30" as="geometry" />
        </mxCell>
        <mxCell id="ru6GTVTsthadgG9aIRJ9-191" value="FK1" style="shape=partialRectangle;connectable=0;fillColor=none;top=0;left=0;bottom=0;right=0;fontStyle=1;overflow=hidden;html=1;whiteSpace=wrap;" parent="ru6GTVTsthadgG9aIRJ9-190" vertex="1">
          <mxGeometry width="60" height="30" as="geometry">
            <mxRectangle width="60" height="30" as="alternateBounds" />
          </mxGeometry>
        </mxCell>
        <mxCell id="ru6GTVTsthadgG9aIRJ9-192" value="GUID: string" style="shape=partialRectangle;connectable=0;fillColor=none;top=0;left=0;bottom=0;right=0;align=left;spacingLeft=6;fontStyle=5;overflow=hidden;html=1;whiteSpace=wrap;" parent="ru6GTVTsthadgG9aIRJ9-190" vertex="1">
          <mxGeometry x="60" width="120" height="30" as="geometry">
            <mxRectangle width="120" height="30" as="alternateBounds" />
          </mxGeometry>
        </mxCell>
        <mxCell id="ru6GTVTsthadgG9aIRJ9-193" value="" style="shape=tableRow;horizontal=0;startSize=0;swimlaneHead=0;swimlaneBody=0;fillColor=none;collapsible=0;dropTarget=0;points=[[0,0.5],[1,0.5]];portConstraint=eastwest;top=0;left=0;right=0;bottom=0;html=1;" parent="ru6GTVTsthadgG9aIRJ9-171" vertex="1">
          <mxGeometry y="90" width="180" height="30" as="geometry" />
        </mxCell>
        <mxCell id="ru6GTVTsthadgG9aIRJ9-194" value="FK2" style="shape=partialRectangle;connectable=0;fillColor=none;top=0;left=0;bottom=0;right=0;fontStyle=1;overflow=hidden;html=1;whiteSpace=wrap;" parent="ru6GTVTsthadgG9aIRJ9-193" vertex="1">
          <mxGeometry width="60" height="30" as="geometry">
            <mxRectangle width="60" height="30" as="alternateBounds" />
          </mxGeometry>
        </mxCell>
        <mxCell id="ru6GTVTsthadgG9aIRJ9-195" value="GUID: string" style="shape=partialRectangle;connectable=0;fillColor=none;top=0;left=0;bottom=0;right=0;align=left;spacingLeft=6;fontStyle=5;overflow=hidden;html=1;whiteSpace=wrap;" parent="ru6GTVTsthadgG9aIRJ9-193" vertex="1">
          <mxGeometry x="60" width="120" height="30" as="geometry">
            <mxRectangle width="120" height="30" as="alternateBounds" />
          </mxGeometry>
        </mxCell>
        <mxCell id="ru6GTVTsthadgG9aIRJ9-175" value="" style="shape=tableRow;horizontal=0;startSize=0;swimlaneHead=0;swimlaneBody=0;fillColor=none;collapsible=0;dropTarget=0;points=[[0,0.5],[1,0.5]];portConstraint=eastwest;top=0;left=0;right=0;bottom=1;html=1;swimlaneLine=0;labelBorderColor=none;" parent="ru6GTVTsthadgG9aIRJ9-171" vertex="1">
          <mxGeometry y="120" width="180" height="30" as="geometry" />
        </mxCell>
        <mxCell id="ru6GTVTsthadgG9aIRJ9-176" value="FK3" style="shape=partialRectangle;connectable=0;fillColor=none;top=0;left=0;bottom=0;right=0;fontStyle=1;overflow=hidden;html=1;whiteSpace=wrap;" parent="ru6GTVTsthadgG9aIRJ9-175" vertex="1">
          <mxGeometry width="60" height="30" as="geometry">
            <mxRectangle width="60" height="30" as="alternateBounds" />
          </mxGeometry>
        </mxCell>
        <mxCell id="ru6GTVTsthadgG9aIRJ9-177" value="GUID: string" style="shape=partialRectangle;connectable=0;fillColor=none;top=0;left=0;bottom=0;right=0;align=left;spacingLeft=6;fontStyle=5;overflow=hidden;html=1;whiteSpace=wrap;" parent="ru6GTVTsthadgG9aIRJ9-175" vertex="1">
          <mxGeometry x="60" width="120" height="30" as="geometry">
            <mxRectangle width="120" height="30" as="alternateBounds" />
          </mxGeometry>
        </mxCell>
        <mxCell id="USZI8lsGf9fGQrWdogU--4" value="" style="shape=tableRow;horizontal=0;startSize=0;swimlaneHead=0;swimlaneBody=0;fillColor=none;collapsible=0;dropTarget=0;points=[[0,0.5],[1,0.5]];portConstraint=eastwest;top=0;left=0;right=0;bottom=0;" parent="ru6GTVTsthadgG9aIRJ9-171" vertex="1">
          <mxGeometry y="150" width="180" height="30" as="geometry" />
        </mxCell>
        <mxCell id="USZI8lsGf9fGQrWdogU--5" value="" style="shape=partialRectangle;connectable=0;fillColor=none;top=0;left=0;bottom=0;right=0;editable=1;overflow=hidden;" parent="USZI8lsGf9fGQrWdogU--4" vertex="1">
          <mxGeometry width="60" height="30" as="geometry">
            <mxRectangle width="60" height="30" as="alternateBounds" />
          </mxGeometry>
        </mxCell>
        <mxCell id="USZI8lsGf9fGQrWdogU--6" value="номер хода: int" style="shape=partialRectangle;connectable=0;fillColor=none;top=0;left=0;bottom=0;right=0;align=left;spacingLeft=6;overflow=hidden;" parent="USZI8lsGf9fGQrWdogU--4" vertex="1">
          <mxGeometry x="60" width="120" height="30" as="geometry">
            <mxRectangle width="120" height="30" as="alternateBounds" />
          </mxGeometry>
        </mxCell>
        <mxCell id="ru6GTVTsthadgG9aIRJ9-196" value="Корабли" style="shape=table;startSize=30;container=1;collapsible=1;childLayout=tableLayout;fixedRows=1;rowLines=0;fontStyle=1;align=center;resizeLast=1;html=1;fillColor=#f5f5f5;fontColor=#333333;strokeColor=#666666;" parent="1" vertex="1">
          <mxGeometry x="2430" y="-800" width="180" height="90" as="geometry" />
        </mxCell>
        <mxCell id="ru6GTVTsthadgG9aIRJ9-197" value="" style="shape=tableRow;horizontal=0;startSize=0;swimlaneHead=0;swimlaneBody=0;fillColor=none;collapsible=0;dropTarget=0;points=[[0,0.5],[1,0.5]];portConstraint=eastwest;top=0;left=0;right=0;bottom=1;" parent="ru6GTVTsthadgG9aIRJ9-196" vertex="1">
          <mxGeometry y="30" width="180" height="30" as="geometry" />
        </mxCell>
        <mxCell id="ru6GTVTsthadgG9aIRJ9-198" value="PK" style="shape=partialRectangle;connectable=0;fillColor=none;top=0;left=0;bottom=0;right=0;fontStyle=1;overflow=hidden;whiteSpace=wrap;html=1;" parent="ru6GTVTsthadgG9aIRJ9-197" vertex="1">
          <mxGeometry width="30" height="30" as="geometry">
            <mxRectangle width="30" height="30" as="alternateBounds" />
          </mxGeometry>
        </mxCell>
        <mxCell id="ru6GTVTsthadgG9aIRJ9-199" value="GUID: string" style="shape=partialRectangle;connectable=0;fillColor=none;top=0;left=0;bottom=0;right=0;align=left;spacingLeft=6;fontStyle=5;overflow=hidden;whiteSpace=wrap;html=1;" parent="ru6GTVTsthadgG9aIRJ9-197" vertex="1">
          <mxGeometry x="30" width="150" height="30" as="geometry">
            <mxRectangle width="150" height="30" as="alternateBounds" />
          </mxGeometry>
        </mxCell>
        <mxCell id="ru6GTVTsthadgG9aIRJ9-200" value="" style="shape=tableRow;horizontal=0;startSize=0;swimlaneHead=0;swimlaneBody=0;fillColor=none;collapsible=0;dropTarget=0;points=[[0,0.5],[1,0.5]];portConstraint=eastwest;top=0;left=0;right=0;bottom=0;" parent="ru6GTVTsthadgG9aIRJ9-196" vertex="1">
          <mxGeometry y="60" width="180" height="30" as="geometry" />
        </mxCell>
        <mxCell id="ru6GTVTsthadgG9aIRJ9-201" value="" style="shape=partialRectangle;connectable=0;fillColor=none;top=0;left=0;bottom=0;right=0;editable=1;overflow=hidden;whiteSpace=wrap;html=1;" parent="ru6GTVTsthadgG9aIRJ9-200" vertex="1">
          <mxGeometry width="30" height="30" as="geometry">
            <mxRectangle width="30" height="30" as="alternateBounds" />
          </mxGeometry>
        </mxCell>
        <mxCell id="ru6GTVTsthadgG9aIRJ9-202" value="очередь проблем: (*)" style="shape=partialRectangle;connectable=0;fillColor=none;top=0;left=0;bottom=0;right=0;align=left;spacingLeft=6;overflow=hidden;whiteSpace=wrap;html=1;" parent="ru6GTVTsthadgG9aIRJ9-200" vertex="1">
          <mxGeometry x="30" width="150" height="30" as="geometry">
            <mxRectangle width="150" height="30" as="alternateBounds" />
          </mxGeometry>
        </mxCell>
        <mxCell id="ru6GTVTsthadgG9aIRJ9-203" value="" style="edgeStyle=orthogonalEdgeStyle;fontSize=12;html=1;endArrow=ERzeroToOne;startArrow=ERmandOne;rounded=0;entryX=0;entryY=0.5;entryDx=0;entryDy=0;" parent="1" source="ru6GTVTsthadgG9aIRJ9-193" target="ru6GTVTsthadgG9aIRJ9-197" edge="1">
          <mxGeometry width="100" height="100" relative="1" as="geometry">
            <mxPoint x="2310" y="-570" as="sourcePoint" />
            <mxPoint x="2410" y="-670" as="targetPoint" />
          </mxGeometry>
        </mxCell>
        <mxCell id="ru6GTVTsthadgG9aIRJ9-204" value="Генераторы проблем" style="shape=table;startSize=30;container=1;collapsible=1;childLayout=tableLayout;fixedRows=1;rowLines=0;fontStyle=1;align=center;resizeLast=1;html=1;fillColor=#f5f5f5;fontColor=#333333;strokeColor=#666666;" parent="1" vertex="1">
          <mxGeometry x="2100" y="-600" width="180" height="90" as="geometry" />
        </mxCell>
        <mxCell id="ru6GTVTsthadgG9aIRJ9-205" value="" style="shape=tableRow;horizontal=0;startSize=0;swimlaneHead=0;swimlaneBody=0;fillColor=none;collapsible=0;dropTarget=0;points=[[0,0.5],[1,0.5]];portConstraint=eastwest;top=0;left=0;right=0;bottom=1;" parent="ru6GTVTsthadgG9aIRJ9-204" vertex="1">
          <mxGeometry y="30" width="180" height="30" as="geometry" />
        </mxCell>
        <mxCell id="ru6GTVTsthadgG9aIRJ9-206" value="PK" style="shape=partialRectangle;connectable=0;fillColor=none;top=0;left=0;bottom=0;right=0;fontStyle=1;overflow=hidden;whiteSpace=wrap;html=1;" parent="ru6GTVTsthadgG9aIRJ9-205" vertex="1">
          <mxGeometry width="30" height="30" as="geometry">
            <mxRectangle width="30" height="30" as="alternateBounds" />
          </mxGeometry>
        </mxCell>
        <mxCell id="ru6GTVTsthadgG9aIRJ9-207" value="GUID: string" style="shape=partialRectangle;connectable=0;fillColor=none;top=0;left=0;bottom=0;right=0;align=left;spacingLeft=6;fontStyle=5;overflow=hidden;whiteSpace=wrap;html=1;" parent="ru6GTVTsthadgG9aIRJ9-205" vertex="1">
          <mxGeometry x="30" width="150" height="30" as="geometry">
            <mxRectangle width="150" height="30" as="alternateBounds" />
          </mxGeometry>
        </mxCell>
        <mxCell id="ru6GTVTsthadgG9aIRJ9-208" value="" style="shape=tableRow;horizontal=0;startSize=0;swimlaneHead=0;swimlaneBody=0;fillColor=none;collapsible=0;dropTarget=0;points=[[0,0.5],[1,0.5]];portConstraint=eastwest;top=0;left=0;right=0;bottom=0;" parent="ru6GTVTsthadgG9aIRJ9-204" vertex="1">
          <mxGeometry y="60" width="180" height="30" as="geometry" />
        </mxCell>
        <mxCell id="ru6GTVTsthadgG9aIRJ9-209" value="" style="shape=partialRectangle;connectable=0;fillColor=none;top=0;left=0;bottom=0;right=0;editable=1;overflow=hidden;whiteSpace=wrap;html=1;" parent="ru6GTVTsthadgG9aIRJ9-208" vertex="1">
          <mxGeometry width="30" height="30" as="geometry">
            <mxRectangle width="30" height="30" as="alternateBounds" />
          </mxGeometry>
        </mxCell>
        <mxCell id="ru6GTVTsthadgG9aIRJ9-210" value="coin: int" style="shape=partialRectangle;connectable=0;fillColor=none;top=0;left=0;bottom=0;right=0;align=left;spacingLeft=6;overflow=hidden;whiteSpace=wrap;html=1;" parent="ru6GTVTsthadgG9aIRJ9-208" vertex="1">
          <mxGeometry x="30" width="150" height="30" as="geometry">
            <mxRectangle width="150" height="30" as="alternateBounds" />
          </mxGeometry>
        </mxCell>
        <mxCell id="ru6GTVTsthadgG9aIRJ9-211" value="Проблемы" style="shape=table;startSize=30;container=1;collapsible=1;childLayout=tableLayout;fixedRows=1;rowLines=0;fontStyle=1;align=center;resizeLast=1;html=1;fillColor=#f5f5f5;fontColor=#333333;strokeColor=#666666;" parent="1" vertex="1">
          <mxGeometry x="2100" y="-440" width="180" height="120" as="geometry" />
        </mxCell>
        <mxCell id="ru6GTVTsthadgG9aIRJ9-212" value="" style="shape=tableRow;horizontal=0;startSize=0;swimlaneHead=0;swimlaneBody=0;fillColor=none;collapsible=0;dropTarget=0;points=[[0,0.5],[1,0.5]];portConstraint=eastwest;top=0;left=0;right=0;bottom=1;" parent="ru6GTVTsthadgG9aIRJ9-211" vertex="1">
          <mxGeometry y="30" width="180" height="30" as="geometry" />
        </mxCell>
        <mxCell id="ru6GTVTsthadgG9aIRJ9-213" value="PK" style="shape=partialRectangle;connectable=0;fillColor=none;top=0;left=0;bottom=0;right=0;fontStyle=1;overflow=hidden;whiteSpace=wrap;html=1;" parent="ru6GTVTsthadgG9aIRJ9-212" vertex="1">
          <mxGeometry width="30" height="30" as="geometry">
            <mxRectangle width="30" height="30" as="alternateBounds" />
          </mxGeometry>
        </mxCell>
        <mxCell id="ru6GTVTsthadgG9aIRJ9-214" value="ID: int" style="shape=partialRectangle;connectable=0;fillColor=none;top=0;left=0;bottom=0;right=0;align=left;spacingLeft=6;fontStyle=5;overflow=hidden;whiteSpace=wrap;html=1;" parent="ru6GTVTsthadgG9aIRJ9-212" vertex="1">
          <mxGeometry x="30" width="150" height="30" as="geometry">
            <mxRectangle width="150" height="30" as="alternateBounds" />
          </mxGeometry>
        </mxCell>
        <mxCell id="ru6GTVTsthadgG9aIRJ9-240" value="" style="shape=tableRow;horizontal=0;startSize=0;swimlaneHead=0;swimlaneBody=0;fillColor=none;collapsible=0;dropTarget=0;points=[[0,0.5],[1,0.5]];portConstraint=eastwest;top=0;left=0;right=0;bottom=1;" parent="ru6GTVTsthadgG9aIRJ9-211" vertex="1">
          <mxGeometry y="60" width="180" height="30" as="geometry" />
        </mxCell>
        <mxCell id="ru6GTVTsthadgG9aIRJ9-241" value="FK" style="shape=partialRectangle;connectable=0;fillColor=none;top=0;left=0;bottom=0;right=0;fontStyle=1;overflow=hidden;whiteSpace=wrap;html=1;" parent="ru6GTVTsthadgG9aIRJ9-240" vertex="1">
          <mxGeometry width="30" height="30" as="geometry">
            <mxRectangle width="30" height="30" as="alternateBounds" />
          </mxGeometry>
        </mxCell>
        <mxCell id="ru6GTVTsthadgG9aIRJ9-242" value="ID: int" style="shape=partialRectangle;connectable=0;fillColor=none;top=0;left=0;bottom=0;right=0;align=left;spacingLeft=6;fontStyle=5;overflow=hidden;whiteSpace=wrap;html=1;" parent="ru6GTVTsthadgG9aIRJ9-240" vertex="1">
          <mxGeometry x="30" width="150" height="30" as="geometry">
            <mxRectangle width="150" height="30" as="alternateBounds" />
          </mxGeometry>
        </mxCell>
        <mxCell id="ru6GTVTsthadgG9aIRJ9-215" value="" style="shape=tableRow;horizontal=0;startSize=0;swimlaneHead=0;swimlaneBody=0;fillColor=none;collapsible=0;dropTarget=0;points=[[0,0.5],[1,0.5]];portConstraint=eastwest;top=0;left=0;right=0;bottom=0;" parent="ru6GTVTsthadgG9aIRJ9-211" vertex="1">
          <mxGeometry y="90" width="180" height="30" as="geometry" />
        </mxCell>
        <mxCell id="ru6GTVTsthadgG9aIRJ9-216" value="" style="shape=partialRectangle;connectable=0;fillColor=none;top=0;left=0;bottom=0;right=0;editable=1;overflow=hidden;whiteSpace=wrap;html=1;" parent="ru6GTVTsthadgG9aIRJ9-215" vertex="1">
          <mxGeometry width="30" height="30" as="geometry">
            <mxRectangle width="30" height="30" as="alternateBounds" />
          </mxGeometry>
        </mxCell>
        <mxCell id="ru6GTVTsthadgG9aIRJ9-217" value="name: string" style="shape=partialRectangle;connectable=0;fillColor=none;top=0;left=0;bottom=0;right=0;align=left;spacingLeft=6;overflow=hidden;whiteSpace=wrap;html=1;" parent="ru6GTVTsthadgG9aIRJ9-215" vertex="1">
          <mxGeometry x="30" width="150" height="30" as="geometry">
            <mxRectangle width="150" height="30" as="alternateBounds" />
          </mxGeometry>
        </mxCell>
        <mxCell id="ru6GTVTsthadgG9aIRJ9-243" value="" style="edgeStyle=orthogonalEdgeStyle;fontSize=12;html=1;endArrow=ERoneToMany;startArrow=ERzeroToMany;rounded=0;exitX=1.01;exitY=0.138;exitDx=0;exitDy=0;exitPerimeter=0;entryX=0.25;entryY=0;entryDx=0;entryDy=0;" parent="1" source="ru6GTVTsthadgG9aIRJ9-211" target="ru6GTVTsthadgG9aIRJ9-244" edge="1">
          <mxGeometry width="100" height="100" relative="1" as="geometry">
            <mxPoint x="2330" y="-390" as="sourcePoint" />
            <mxPoint x="2940" y="-360" as="targetPoint" />
          </mxGeometry>
        </mxCell>
        <mxCell id="ru6GTVTsthadgG9aIRJ9-244" value="Типы ресурсов" style="shape=table;startSize=30;container=1;collapsible=1;childLayout=tableLayout;fixedRows=1;rowLines=0;fontStyle=1;align=center;resizeLast=1;html=1;fillColor=#f5f5f5;fontColor=#333333;strokeColor=#666666;" parent="1" vertex="1">
          <mxGeometry x="2500" y="-410" width="180" height="90" as="geometry" />
        </mxCell>
        <mxCell id="ru6GTVTsthadgG9aIRJ9-245" value="" style="shape=tableRow;horizontal=0;startSize=0;swimlaneHead=0;swimlaneBody=0;fillColor=none;collapsible=0;dropTarget=0;points=[[0,0.5],[1,0.5]];portConstraint=eastwest;top=0;left=0;right=0;bottom=1;" parent="ru6GTVTsthadgG9aIRJ9-244" vertex="1">
          <mxGeometry y="30" width="180" height="30" as="geometry" />
        </mxCell>
        <mxCell id="ru6GTVTsthadgG9aIRJ9-246" value="PK" style="shape=partialRectangle;connectable=0;fillColor=none;top=0;left=0;bottom=0;right=0;fontStyle=1;overflow=hidden;whiteSpace=wrap;html=1;" parent="ru6GTVTsthadgG9aIRJ9-245" vertex="1">
          <mxGeometry width="30" height="30" as="geometry">
            <mxRectangle width="30" height="30" as="alternateBounds" />
          </mxGeometry>
        </mxCell>
        <mxCell id="ru6GTVTsthadgG9aIRJ9-247" value="ID: int" style="shape=partialRectangle;connectable=0;fillColor=none;top=0;left=0;bottom=0;right=0;align=left;spacingLeft=6;fontStyle=5;overflow=hidden;whiteSpace=wrap;html=1;" parent="ru6GTVTsthadgG9aIRJ9-245" vertex="1">
          <mxGeometry x="30" width="150" height="30" as="geometry">
            <mxRectangle width="150" height="30" as="alternateBounds" />
          </mxGeometry>
        </mxCell>
        <mxCell id="ru6GTVTsthadgG9aIRJ9-251" value="" style="shape=tableRow;horizontal=0;startSize=0;swimlaneHead=0;swimlaneBody=0;fillColor=none;collapsible=0;dropTarget=0;points=[[0,0.5],[1,0.5]];portConstraint=eastwest;top=0;left=0;right=0;bottom=0;" parent="ru6GTVTsthadgG9aIRJ9-244" vertex="1">
          <mxGeometry y="60" width="180" height="30" as="geometry" />
        </mxCell>
        <mxCell id="ru6GTVTsthadgG9aIRJ9-252" value="" style="shape=partialRectangle;connectable=0;fillColor=none;top=0;left=0;bottom=0;right=0;editable=1;overflow=hidden;whiteSpace=wrap;html=1;" parent="ru6GTVTsthadgG9aIRJ9-251" vertex="1">
          <mxGeometry width="30" height="30" as="geometry">
            <mxRectangle width="30" height="30" as="alternateBounds" />
          </mxGeometry>
        </mxCell>
        <mxCell id="ru6GTVTsthadgG9aIRJ9-253" value="name: string" style="shape=partialRectangle;connectable=0;fillColor=none;top=0;left=0;bottom=0;right=0;align=left;spacingLeft=6;overflow=hidden;whiteSpace=wrap;html=1;" parent="ru6GTVTsthadgG9aIRJ9-251" vertex="1">
          <mxGeometry x="30" width="150" height="30" as="geometry">
            <mxRectangle width="150" height="30" as="alternateBounds" />
          </mxGeometry>
        </mxCell>
        <mxCell id="ru6GTVTsthadgG9aIRJ9-261" value="Ресурсы" style="shape=table;startSize=30;container=1;collapsible=1;childLayout=tableLayout;fixedRows=1;rowLines=0;fontStyle=1;align=center;resizeLast=1;html=1;whiteSpace=wrap;fillColor=#f5f5f5;fontColor=#333333;strokeColor=#666666;" parent="1" vertex="1">
          <mxGeometry x="2500" y="-650" width="180" height="150" as="geometry" />
        </mxCell>
        <mxCell id="ru6GTVTsthadgG9aIRJ9-262" value="" style="shape=tableRow;horizontal=0;startSize=0;swimlaneHead=0;swimlaneBody=0;fillColor=none;collapsible=0;dropTarget=0;points=[[0,0.5],[1,0.5]];portConstraint=eastwest;top=0;left=0;right=0;bottom=1;" parent="ru6GTVTsthadgG9aIRJ9-261" vertex="1">
          <mxGeometry y="30" width="180" height="30" as="geometry" />
        </mxCell>
        <mxCell id="ru6GTVTsthadgG9aIRJ9-263" value="PK" style="shape=partialRectangle;connectable=0;fillColor=none;top=0;left=0;bottom=0;right=0;fontStyle=1;overflow=hidden;whiteSpace=wrap;html=1;" parent="ru6GTVTsthadgG9aIRJ9-262" vertex="1">
          <mxGeometry width="60" height="30" as="geometry">
            <mxRectangle width="60" height="30" as="alternateBounds" />
          </mxGeometry>
        </mxCell>
        <mxCell id="ru6GTVTsthadgG9aIRJ9-264" value="ID: int" style="shape=partialRectangle;connectable=0;fillColor=none;top=0;left=0;bottom=0;right=0;align=left;spacingLeft=6;fontStyle=5;overflow=hidden;whiteSpace=wrap;html=1;" parent="ru6GTVTsthadgG9aIRJ9-262" vertex="1">
          <mxGeometry x="60" width="120" height="30" as="geometry">
            <mxRectangle width="120" height="30" as="alternateBounds" />
          </mxGeometry>
        </mxCell>
        <mxCell id="ru6GTVTsthadgG9aIRJ9-265" value="" style="shape=tableRow;horizontal=0;startSize=0;swimlaneHead=0;swimlaneBody=0;fillColor=none;collapsible=0;dropTarget=0;points=[[0,0.5],[1,0.5]];portConstraint=eastwest;top=0;left=0;right=0;bottom=0;html=1;" parent="ru6GTVTsthadgG9aIRJ9-261" vertex="1">
          <mxGeometry y="60" width="180" height="30" as="geometry" />
        </mxCell>
        <mxCell id="ru6GTVTsthadgG9aIRJ9-266" value="FK1" style="shape=partialRectangle;connectable=0;fillColor=none;top=0;left=0;bottom=0;right=0;fontStyle=1;overflow=hidden;html=1;whiteSpace=wrap;" parent="ru6GTVTsthadgG9aIRJ9-265" vertex="1">
          <mxGeometry width="60" height="30" as="geometry">
            <mxRectangle width="60" height="30" as="alternateBounds" />
          </mxGeometry>
        </mxCell>
        <mxCell id="ru6GTVTsthadgG9aIRJ9-267" value="GUID: string" style="shape=partialRectangle;connectable=0;fillColor=none;top=0;left=0;bottom=0;right=0;align=left;spacingLeft=6;fontStyle=5;overflow=hidden;html=1;whiteSpace=wrap;" parent="ru6GTVTsthadgG9aIRJ9-265" vertex="1">
          <mxGeometry x="60" width="120" height="30" as="geometry">
            <mxRectangle width="120" height="30" as="alternateBounds" />
          </mxGeometry>
        </mxCell>
        <mxCell id="ru6GTVTsthadgG9aIRJ9-277" value="" style="shape=tableRow;horizontal=0;startSize=0;swimlaneHead=0;swimlaneBody=0;fillColor=none;collapsible=0;dropTarget=0;points=[[0,0.5],[1,0.5]];portConstraint=eastwest;top=0;left=0;right=0;bottom=1;" parent="ru6GTVTsthadgG9aIRJ9-261" vertex="1">
          <mxGeometry y="90" width="180" height="30" as="geometry" />
        </mxCell>
        <mxCell id="ru6GTVTsthadgG9aIRJ9-278" value="FK2" style="shape=partialRectangle;connectable=0;fillColor=none;top=0;left=0;bottom=0;right=0;fontStyle=1;overflow=hidden;whiteSpace=wrap;html=1;" parent="ru6GTVTsthadgG9aIRJ9-277" vertex="1">
          <mxGeometry width="60" height="30" as="geometry">
            <mxRectangle width="60" height="30" as="alternateBounds" />
          </mxGeometry>
        </mxCell>
        <mxCell id="ru6GTVTsthadgG9aIRJ9-279" value="ID: int" style="shape=partialRectangle;connectable=0;fillColor=none;top=0;left=0;bottom=0;right=0;align=left;spacingLeft=6;fontStyle=5;overflow=hidden;whiteSpace=wrap;html=1;" parent="ru6GTVTsthadgG9aIRJ9-277" vertex="1">
          <mxGeometry x="60" width="120" height="30" as="geometry">
            <mxRectangle width="120" height="30" as="alternateBounds" />
          </mxGeometry>
        </mxCell>
        <mxCell id="ru6GTVTsthadgG9aIRJ9-274" value="" style="shape=tableRow;horizontal=0;startSize=0;swimlaneHead=0;swimlaneBody=0;fillColor=none;collapsible=0;dropTarget=0;points=[[0,0.5],[1,0.5]];portConstraint=eastwest;top=0;left=0;right=0;bottom=0;" parent="ru6GTVTsthadgG9aIRJ9-261" vertex="1">
          <mxGeometry y="120" width="180" height="30" as="geometry" />
        </mxCell>
        <mxCell id="ru6GTVTsthadgG9aIRJ9-275" value="" style="shape=partialRectangle;connectable=0;fillColor=none;top=0;left=0;bottom=0;right=0;editable=1;overflow=hidden;" parent="ru6GTVTsthadgG9aIRJ9-274" vertex="1">
          <mxGeometry width="60" height="30" as="geometry">
            <mxRectangle width="60" height="30" as="alternateBounds" />
          </mxGeometry>
        </mxCell>
        <mxCell id="ru6GTVTsthadgG9aIRJ9-276" value="состояние: shortint" style="shape=partialRectangle;connectable=0;fillColor=none;top=0;left=0;bottom=0;right=0;align=left;spacingLeft=6;overflow=hidden;" parent="ru6GTVTsthadgG9aIRJ9-274" vertex="1">
          <mxGeometry x="60" width="120" height="30" as="geometry">
            <mxRectangle width="120" height="30" as="alternateBounds" />
          </mxGeometry>
        </mxCell>
        <mxCell id="ru6GTVTsthadgG9aIRJ9-281" value="UI: Интерфейс игрока" style="swimlane;whiteSpace=wrap;html=1;fillColor=#ffe6cc;strokeColor=#d79b00;" parent="1" vertex="1">
          <mxGeometry x="2120" y="-120" width="430" height="230" as="geometry" />
        </mxCell>
        <mxCell id="ru6GTVTsthadgG9aIRJ9-288" value="Метрики корабля" style="shape=process;whiteSpace=wrap;html=1;backgroundOutline=1;" parent="ru6GTVTsthadgG9aIRJ9-281" vertex="1">
          <mxGeometry x="20" y="40" width="380" height="110" as="geometry" />
        </mxCell>
        <mxCell id="ru6GTVTsthadgG9aIRJ9-293" value="Ход: 0" style="rounded=1;whiteSpace=wrap;html=1;" parent="ru6GTVTsthadgG9aIRJ9-281" vertex="1">
          <mxGeometry x="20" y="160" width="120" height="60" as="geometry" />
        </mxCell>
        <mxCell id="USZI8lsGf9fGQrWdogU--7" value="Завершить ход" style="rounded=1;whiteSpace=wrap;html=1;" parent="ru6GTVTsthadgG9aIRJ9-281" vertex="1">
          <mxGeometry x="280" y="160" width="120" height="60" as="geometry" />
        </mxCell>
        <mxCell id="USZI8lsGf9fGQrWdogU--8" value="Радиобаттоны&lt;div&gt;с действием игрока&lt;/div&gt;" style="rounded=1;whiteSpace=wrap;html=1;fillColor=#f5f5f5;fontColor=#333333;strokeColor=#666666;" parent="ru6GTVTsthadgG9aIRJ9-281" vertex="1">
          <mxGeometry x="150" y="160" width="120" height="60" as="geometry" />
        </mxCell>
        <mxCell id="USZI8lsGf9fGQrWdogU--18" value="" style="edgeStyle=orthogonalEdgeStyle;rounded=0;orthogonalLoop=1;jettySize=auto;html=1;" parent="1" source="USZI8lsGf9fGQrWdogU--9" target="USZI8lsGf9fGQrWdogU--17" edge="1">
          <mxGeometry relative="1" as="geometry" />
        </mxCell>
        <mxCell id="USZI8lsGf9fGQrWdogU--9" value="RabbitMQ: Exchange Fanout&lt;div&gt;(&quot;сплиттер сообщений&quot;)&lt;/div&gt;" style="shape=step;perimeter=stepPerimeter;whiteSpace=wrap;html=1;fixedSize=1;" parent="1" vertex="1">
          <mxGeometry x="2180" y="280" width="360" height="80" as="geometry" />
        </mxCell>
        <mxCell id="USZI8lsGf9fGQrWdogU--10" value="" style="edgeStyle=orthogonalEdgeStyle;rounded=0;orthogonalLoop=1;jettySize=auto;html=1;" parent="1" source="USZI8lsGf9fGQrWdogU--7" target="USZI8lsGf9fGQrWdogU--9" edge="1">
          <mxGeometry relative="1" as="geometry">
            <Array as="points">
              <mxPoint x="2460" y="160" />
              <mxPoint x="2068" y="160" />
              <mxPoint x="2068" y="320" />
            </Array>
          </mxGeometry>
        </mxCell>
        <mxCell id="USZI8lsGf9fGQrWdogU--25" value="" style="edgeStyle=orthogonalEdgeStyle;rounded=0;orthogonalLoop=1;jettySize=auto;html=1;" parent="1" source="USZI8lsGf9fGQrWdogU--17" target="USZI8lsGf9fGQrWdogU--24" edge="1">
          <mxGeometry relative="1" as="geometry" />
        </mxCell>
        <mxCell id="USZI8lsGf9fGQrWdogU--17" value="очередь &quot;новый ход&quot;" style="shape=step;perimeter=stepPerimeter;whiteSpace=wrap;html=1;fixedSize=1;" parent="1" vertex="1">
          <mxGeometry x="2610" y="280" width="360" height="80" as="geometry" />
        </mxCell>
        <mxCell id="USZI8lsGf9fGQrWdogU--19" value=".NET Controller + Service: Игровой контроллер" style="swimlane;whiteSpace=wrap;html=1;fillColor=#fff2cc;strokeColor=#d6b656;" parent="1" vertex="1">
          <mxGeometry x="3040" y="240" width="550" height="170" as="geometry" />
        </mxCell>
        <mxCell id="USZI8lsGf9fGQrWdogU--24" value="1. Выдать генератору TroubleCoin (в БД)&lt;div&gt;2. Снять с корабля расходы на жизнедеятельность&lt;div&gt;3. Инкрементировать счётчик ходов (в БД)&lt;/div&gt;&lt;/div&gt;" style="rounded=1;whiteSpace=wrap;html=1;" parent="USZI8lsGf9fGQrWdogU--19" vertex="1">
          <mxGeometry x="40" y="40" width="480" height="80" as="geometry" />
        </mxCell>
        <mxCell id="DArUhQZqVvCjvblfqXMV-5" value=".NET Service: Генератор проблем" style="swimlane;whiteSpace=wrap;html=1;fillColor=#dae8fc;strokeColor=#6c8ebf;" parent="1" vertex="1">
          <mxGeometry x="2920" y="570" width="360" height="140" as="geometry" />
        </mxCell>
        <mxCell id="DArUhQZqVvCjvblfqXMV-9" style="edgeStyle=orthogonalEdgeStyle;rounded=0;orthogonalLoop=1;jettySize=auto;html=1;" parent="1" source="USZI8lsGf9fGQrWdogU--24" target="DArUhQZqVvCjvblfqXMV-5" edge="1">
          <mxGeometry relative="1" as="geometry" />
        </mxCell>
        <mxCell id="DArUhQZqVvCjvblfqXMV-10" value="запрос: получи TroubleCoin" style="edgeLabel;html=1;align=center;verticalAlign=middle;resizable=0;points=[];" parent="DArUhQZqVvCjvblfqXMV-9" vertex="1" connectable="0">
          <mxGeometry x="-0.0261" relative="1" as="geometry">
            <mxPoint as="offset" />
          </mxGeometry>
        </mxCell>
        <mxCell id="DArUhQZqVvCjvblfqXMV-11" value="очередь &quot;метрики&quot; + # хода" style="shape=step;perimeter=stepPerimeter;whiteSpace=wrap;html=1;fixedSize=1;flipV=1;flipH=1;" parent="1" vertex="1">
          <mxGeometry x="2660" y="-45" width="360" height="80" as="geometry" />
        </mxCell>
        <mxCell id="DArUhQZqVvCjvblfqXMV-12" value="" style="endArrow=classic;html=1;rounded=0;exitX=0;exitY=0.5;exitDx=0;exitDy=0;entryX=1;entryY=0.5;entryDx=0;entryDy=0;" parent="1" source="ru6GTVTsthadgG9aIRJ9-62" target="DArUhQZqVvCjvblfqXMV-11" edge="1">
          <mxGeometry width="50" height="50" relative="1" as="geometry">
            <mxPoint x="2860" y="170" as="sourcePoint" />
            <mxPoint x="2910" y="120" as="targetPoint" />
          </mxGeometry>
        </mxCell>
        <mxCell id="DArUhQZqVvCjvblfqXMV-13" value="" style="endArrow=classic;html=1;rounded=0;entryX=1;entryY=0.5;entryDx=0;entryDy=0;exitX=0;exitY=0.5;exitDx=0;exitDy=0;" parent="1" source="DArUhQZqVvCjvblfqXMV-11" edge="1">
          <mxGeometry width="50" height="50" relative="1" as="geometry">
            <mxPoint x="2650" y="70" as="sourcePoint" />
            <mxPoint x="2550" y="-5.77" as="targetPoint" />
          </mxGeometry>
        </mxCell>
        <mxCell id="DArUhQZqVvCjvblfqXMV-14" value="" style="endArrow=classic;html=1;rounded=0;exitX=0.5;exitY=0;exitDx=0;exitDy=0;entryX=0.5;entryY=1;entryDx=0;entryDy=0;edgeStyle=orthogonalEdgeStyle;" parent="1" source="USZI8lsGf9fGQrWdogU--24" target="ru6GTVTsthadgG9aIRJ9-62" edge="1">
          <mxGeometry width="50" height="50" relative="1" as="geometry">
            <mxPoint x="3160" y="5" as="sourcePoint" />
            <mxPoint x="3010" y="5" as="targetPoint" />
          </mxGeometry>
        </mxCell>
        <mxCell id="DArUhQZqVvCjvblfqXMV-17" value=".NET Service: Ресурсы" style="swimlane;whiteSpace=wrap;html=1;fillColor=#d5e8d4;strokeColor=#82b366;" parent="1" vertex="1">
          <mxGeometry x="3131" y="-380" width="769" height="160" as="geometry" />
        </mxCell>
        <mxCell id="DArUhQZqVvCjvblfqXMV-21" value="паттерн поведения State:&lt;div&gt;ресурс требует разные ресурсы&lt;/div&gt;&lt;div&gt;на жизнеобеспечение в зависимости&lt;/div&gt;&lt;div&gt;от состояния&amp;nbsp;&lt;/div&gt;" style="ellipse;shape=cloud;whiteSpace=wrap;html=1;" parent="DArUhQZqVvCjvblfqXMV-17" vertex="1">
          <mxGeometry x="-10" y="17.5" width="330" height="125" as="geometry" />
        </mxCell>
        <mxCell id="DArUhQZqVvCjvblfqXMV-24" value="порождающий паттерн Factory Method:&lt;div&gt;abstract class Resource&lt;/div&gt;" style="ellipse;shape=cloud;whiteSpace=wrap;html=1;" parent="DArUhQZqVvCjvblfqXMV-17" vertex="1">
          <mxGeometry x="289" y="17.5" width="330" height="125" as="geometry" />
        </mxCell>
        <mxCell id="DArUhQZqVvCjvblfqXMV-25" value="" style="shape=flexArrow;endArrow=classic;startArrow=classic;html=1;rounded=0;exitX=0.25;exitY=0;exitDx=0;exitDy=0;" parent="1" source="ru6GTVTsthadgG9aIRJ9-62" edge="1">
          <mxGeometry width="100" height="100" relative="1" as="geometry">
            <mxPoint x="2980" y="-70" as="sourcePoint" />
            <mxPoint x="3275" y="-220" as="targetPoint" />
          </mxGeometry>
        </mxCell>
      </root>
    </mxGraphModel>
  </diagram>
  <diagram id="RVK3eql-iTSevIK94QVo" name="v.0.0.0.3">
    <mxGraphModel dx="1665" dy="1721" grid="1" gridSize="10" guides="1" tooltips="1" connect="1" arrows="1" fold="1" page="1" pageScale="1" pageWidth="827" pageHeight="1169" math="0" shadow="0">
      <root>
        <mxCell id="0" />
        <mxCell id="1" parent="0" />
        <mxCell id="cvZS5h-UPlSQZ2jFVgvs-1" value="Контроллер сессий" style="swimlane;whiteSpace=wrap;html=1;fillColor=#d5e8d4;strokeColor=#82b366;" parent="1" vertex="1">
          <mxGeometry x="290" y="570" width="480" height="470" as="geometry" />
        </mxCell>
        <mxCell id="cvZS5h-UPlSQZ2jFVgvs-2" value="БД&lt;div&gt;SQL&lt;/div&gt;" style="shape=cylinder3;whiteSpace=wrap;html=1;boundedLbl=1;backgroundOutline=1;size=7.428571428571388;" parent="cvZS5h-UPlSQZ2jFVgvs-1" vertex="1">
          <mxGeometry x="20" y="190" width="52.5" height="70" as="geometry" />
        </mxCell>
        <mxCell id="cvZS5h-UPlSQZ2jFVgvs-3" value="API" style="swimlane;fontStyle=0;childLayout=stackLayout;horizontal=1;startSize=30;horizontalStack=0;resizeParent=1;resizeParentMax=0;resizeLast=0;collapsible=1;marginBottom=0;whiteSpace=wrap;html=1;fillColor=#f5f5f5;fontColor=#333333;strokeColor=#666666;" parent="cvZS5h-UPlSQZ2jFVgvs-1" vertex="1">
          <mxGeometry x="20" y="30" width="440" height="90" as="geometry" />
        </mxCell>
        <mxCell id="cvZS5h-UPlSQZ2jFVgvs-4" value="POST /sessions -&amp;gt; (GUID session, GUID ship, GUID problemGenerator)" style="text;strokeColor=default;fillColor=none;align=left;verticalAlign=middle;spacingLeft=4;spacingRight=4;overflow=hidden;points=[[0,0.5],[1,0.5]];portConstraint=eastwest;rotatable=0;whiteSpace=wrap;html=1;" parent="cvZS5h-UPlSQZ2jFVgvs-3" vertex="1">
          <mxGeometry y="30" width="440" height="30" as="geometry" />
        </mxCell>
        <mxCell id="cvZS5h-UPlSQZ2jFVgvs-5" value="GET /sessions/{GUID} -&amp;gt; (GUID session, GUID ship, GUID problemGenerator)" style="text;strokeColor=default;fillColor=none;align=left;verticalAlign=middle;spacingLeft=4;spacingRight=4;overflow=hidden;points=[[0,0.5],[1,0.5]];portConstraint=eastwest;rotatable=0;whiteSpace=wrap;html=1;" parent="cvZS5h-UPlSQZ2jFVgvs-3" vertex="1">
          <mxGeometry y="60" width="440" height="30" as="geometry" />
        </mxCell>
        <mxCell id="cvZS5h-UPlSQZ2jFVgvs-6" value="Сессии" style="swimlane;fontStyle=0;childLayout=stackLayout;horizontal=1;startSize=30;horizontalStack=0;resizeParent=1;resizeParentMax=0;resizeLast=0;collapsible=1;marginBottom=0;whiteSpace=wrap;html=1;fillColor=#f5f5f5;fontColor=#333333;strokeColor=#666666;" parent="cvZS5h-UPlSQZ2jFVgvs-1" vertex="1">
          <mxGeometry x="20" y="270" width="210" height="120" as="geometry" />
        </mxCell>
        <mxCell id="cvZS5h-UPlSQZ2jFVgvs-7" value="string (PK) GUID сессии" style="text;strokeColor=default;fillColor=none;align=left;verticalAlign=middle;spacingLeft=4;spacingRight=4;overflow=hidden;points=[[0,0.5],[1,0.5]];portConstraint=eastwest;rotatable=0;whiteSpace=wrap;html=1;" parent="cvZS5h-UPlSQZ2jFVgvs-6" vertex="1">
          <mxGeometry y="30" width="210" height="30" as="geometry" />
        </mxCell>
        <mxCell id="cvZS5h-UPlSQZ2jFVgvs-8" value="string GUID корабля" style="text;strokeColor=default;fillColor=none;align=left;verticalAlign=middle;spacingLeft=4;spacingRight=4;overflow=hidden;points=[[0,0.5],[1,0.5]];portConstraint=eastwest;rotatable=0;whiteSpace=wrap;html=1;" parent="cvZS5h-UPlSQZ2jFVgvs-6" vertex="1">
          <mxGeometry y="60" width="210" height="30" as="geometry" />
        </mxCell>
        <mxCell id="cvZS5h-UPlSQZ2jFVgvs-9" value="string GUID генератора проблем" style="text;strokeColor=default;fillColor=none;align=left;verticalAlign=middle;spacingLeft=4;spacingRight=4;overflow=hidden;points=[[0,0.5],[1,0.5]];portConstraint=eastwest;rotatable=0;whiteSpace=wrap;html=1;" parent="cvZS5h-UPlSQZ2jFVgvs-6" vertex="1">
          <mxGeometry y="90" width="210" height="30" as="geometry" />
        </mxCell>
        <mxCell id="cvZS5h-UPlSQZ2jFVgvs-10" value="" style="endArrow=none;html=1;rounded=0;" parent="cvZS5h-UPlSQZ2jFVgvs-1" source="cvZS5h-UPlSQZ2jFVgvs-6" target="cvZS5h-UPlSQZ2jFVgvs-2" edge="1">
          <mxGeometry width="50" height="50" relative="1" as="geometry">
            <mxPoint y="250" as="sourcePoint" />
            <mxPoint x="50" y="200" as="targetPoint" />
          </mxGeometry>
        </mxCell>
        <mxCell id="cvZS5h-UPlSQZ2jFVgvs-11" value="Интерфейс игрока" style="swimlane;whiteSpace=wrap;html=1;fillColor=#ffe6cc;strokeColor=#d79b00;" parent="1" vertex="1">
          <mxGeometry x="1920" y="430" width="550" height="450" as="geometry" />
        </mxCell>
        <mxCell id="cvZS5h-UPlSQZ2jFVgvs-12" value="БД&lt;div&gt;SQL&lt;/div&gt;" style="shape=cylinder3;whiteSpace=wrap;html=1;boundedLbl=1;backgroundOutline=1;size=7.428571428571388;" parent="cvZS5h-UPlSQZ2jFVgvs-11" vertex="1">
          <mxGeometry x="20" y="250" width="52.5" height="70" as="geometry" />
        </mxCell>
        <mxCell id="cvZS5h-UPlSQZ2jFVgvs-13" value="API" style="swimlane;fontStyle=0;childLayout=stackLayout;horizontal=1;startSize=30;horizontalStack=0;resizeParent=1;resizeParentMax=0;resizeLast=0;collapsible=1;marginBottom=0;whiteSpace=wrap;html=1;fillColor=#f5f5f5;fontColor=#333333;strokeColor=#666666;" parent="cvZS5h-UPlSQZ2jFVgvs-11" vertex="1">
          <mxGeometry x="20" y="30" width="510" height="180" as="geometry" />
        </mxCell>
        <mxCell id="cvZS5h-UPlSQZ2jFVgvs-14" value="POST /users -&amp;gt; (GUID user)" style="text;strokeColor=default;fillColor=none;align=left;verticalAlign=middle;spacingLeft=4;spacingRight=4;overflow=hidden;points=[[0,0.5],[1,0.5]];portConstraint=eastwest;rotatable=0;whiteSpace=wrap;html=1;" parent="cvZS5h-UPlSQZ2jFVgvs-13" vertex="1">
          <mxGeometry y="30" width="510" height="30" as="geometry" />
        </mxCell>
        <mxCell id="cvZS5h-UPlSQZ2jFVgvs-15" value="POST /users/{GUID}/sessions -&amp;gt; (GUID session)" style="text;strokeColor=default;fillColor=none;align=left;verticalAlign=middle;spacingLeft=4;spacingRight=4;overflow=hidden;points=[[0,0.5],[1,0.5]];portConstraint=eastwest;rotatable=0;whiteSpace=wrap;html=1;" parent="cvZS5h-UPlSQZ2jFVgvs-13" vertex="1">
          <mxGeometry y="60" width="510" height="30" as="geometry" />
        </mxCell>
        <mxCell id="cvZS5h-UPlSQZ2jFVgvs-16" value="GET /users/{GUID}/sessions -&amp;gt; [GUID session]" style="text;strokeColor=default;fillColor=none;align=left;verticalAlign=middle;spacingLeft=4;spacingRight=4;overflow=hidden;points=[[0,0.5],[1,0.5]];portConstraint=eastwest;rotatable=0;whiteSpace=wrap;html=1;" parent="cvZS5h-UPlSQZ2jFVgvs-13" vertex="1">
          <mxGeometry y="90" width="510" height="30" as="geometry" />
        </mxCell>
        <mxCell id="cvZS5h-UPlSQZ2jFVgvs-17" value="GET /users/{GUID}/sessions/{GUID} -&amp;gt; (метрики корабля, текущий ход)" style="text;strokeColor=default;fillColor=none;align=left;verticalAlign=middle;spacingLeft=4;spacingRight=4;overflow=hidden;points=[[0,0.5],[1,0.5]];portConstraint=eastwest;rotatable=0;whiteSpace=wrap;html=1;" parent="cvZS5h-UPlSQZ2jFVgvs-13" vertex="1">
          <mxGeometry y="120" width="510" height="30" as="geometry" />
        </mxCell>
        <mxCell id="cvZS5h-UPlSQZ2jFVgvs-18" value="POST /users/{GUID}/sessions/{GUID}/make-move" style="text;strokeColor=default;fillColor=none;align=left;verticalAlign=middle;spacingLeft=4;spacingRight=4;overflow=hidden;points=[[0,0.5],[1,0.5]];portConstraint=eastwest;rotatable=0;whiteSpace=wrap;html=1;" parent="cvZS5h-UPlSQZ2jFVgvs-13" vertex="1">
          <mxGeometry y="150" width="510" height="30" as="geometry" />
        </mxCell>
        <mxCell id="cvZS5h-UPlSQZ2jFVgvs-19" value="Пользователи" style="swimlane;fontStyle=0;childLayout=stackLayout;horizontal=1;startSize=30;horizontalStack=0;resizeParent=1;resizeParentMax=0;resizeLast=0;collapsible=1;marginBottom=0;whiteSpace=wrap;html=1;fillColor=#f5f5f5;fontColor=#333333;strokeColor=#666666;" parent="cvZS5h-UPlSQZ2jFVgvs-11" vertex="1">
          <mxGeometry x="30" y="340" width="210" height="90" as="geometry" />
        </mxCell>
        <mxCell id="cvZS5h-UPlSQZ2jFVgvs-20" value="string (PK) GUID пользователя" style="text;strokeColor=default;fillColor=none;align=left;verticalAlign=middle;spacingLeft=4;spacingRight=4;overflow=hidden;points=[[0,0.5],[1,0.5]];portConstraint=eastwest;rotatable=0;whiteSpace=wrap;html=1;" parent="cvZS5h-UPlSQZ2jFVgvs-19" vertex="1">
          <mxGeometry y="30" width="210" height="30" as="geometry" />
        </mxCell>
        <mxCell id="cvZS5h-UPlSQZ2jFVgvs-21" value="string хэш пароля" style="text;strokeColor=default;fillColor=none;align=left;verticalAlign=middle;spacingLeft=4;spacingRight=4;overflow=hidden;points=[[0,0.5],[1,0.5]];portConstraint=eastwest;rotatable=0;whiteSpace=wrap;html=1;" parent="cvZS5h-UPlSQZ2jFVgvs-19" vertex="1">
          <mxGeometry y="60" width="210" height="30" as="geometry" />
        </mxCell>
        <mxCell id="cvZS5h-UPlSQZ2jFVgvs-22" value="" style="endArrow=none;html=1;rounded=0;" parent="cvZS5h-UPlSQZ2jFVgvs-11" source="cvZS5h-UPlSQZ2jFVgvs-19" target="cvZS5h-UPlSQZ2jFVgvs-12" edge="1">
          <mxGeometry width="50" height="50" relative="1" as="geometry">
            <mxPoint y="250" as="sourcePoint" />
            <mxPoint x="50" y="200" as="targetPoint" />
          </mxGeometry>
        </mxCell>
        <mxCell id="cvZS5h-UPlSQZ2jFVgvs-23" value="Сессии" style="swimlane;fontStyle=0;childLayout=stackLayout;horizontal=1;startSize=30;horizontalStack=0;resizeParent=1;resizeParentMax=0;resizeLast=0;collapsible=1;marginBottom=0;whiteSpace=wrap;html=1;fillColor=#f5f5f5;fontColor=#333333;strokeColor=#666666;" parent="cvZS5h-UPlSQZ2jFVgvs-11" vertex="1">
          <mxGeometry x="320" y="340" width="210" height="90" as="geometry" />
        </mxCell>
        <mxCell id="cvZS5h-UPlSQZ2jFVgvs-24" value="string (FK) GUID пользователя" style="text;strokeColor=default;fillColor=none;align=left;verticalAlign=middle;spacingLeft=4;spacingRight=4;overflow=hidden;points=[[0,0.5],[1,0.5]];portConstraint=eastwest;rotatable=0;whiteSpace=wrap;html=1;" parent="cvZS5h-UPlSQZ2jFVgvs-23" vertex="1">
          <mxGeometry y="30" width="210" height="30" as="geometry" />
        </mxCell>
        <mxCell id="cvZS5h-UPlSQZ2jFVgvs-25" value="string GUID сессии" style="text;strokeColor=default;fillColor=none;align=left;verticalAlign=middle;spacingLeft=4;spacingRight=4;overflow=hidden;points=[[0,0.5],[1,0.5]];portConstraint=eastwest;rotatable=0;whiteSpace=wrap;html=1;" parent="cvZS5h-UPlSQZ2jFVgvs-23" vertex="1">
          <mxGeometry y="60" width="210" height="30" as="geometry" />
        </mxCell>
        <mxCell id="cvZS5h-UPlSQZ2jFVgvs-26" value="" style="endArrow=none;dashed=1;html=1;dashPattern=1 3;strokeWidth=2;rounded=0;entryX=0;entryY=0.5;entryDx=0;entryDy=0;exitX=1;exitY=0.5;exitDx=0;exitDy=0;fillColor=#f5f5f5;strokeColor=#666666;" parent="cvZS5h-UPlSQZ2jFVgvs-11" source="cvZS5h-UPlSQZ2jFVgvs-20" target="cvZS5h-UPlSQZ2jFVgvs-24" edge="1">
          <mxGeometry width="50" height="50" relative="1" as="geometry">
            <mxPoint x="270" y="630" as="sourcePoint" />
            <mxPoint x="320" y="580" as="targetPoint" />
          </mxGeometry>
        </mxCell>
        <mxCell id="cvZS5h-UPlSQZ2jFVgvs-27" value="Метрики корабля" style="shape=process;whiteSpace=wrap;html=1;backgroundOutline=1;" parent="cvZS5h-UPlSQZ2jFVgvs-11" vertex="1">
          <mxGeometry x="310" y="250" width="220" height="60" as="geometry" />
        </mxCell>
        <mxCell id="cvZS5h-UPlSQZ2jFVgvs-28" value="Игровой контроллер" style="swimlane;whiteSpace=wrap;html=1;fillColor=#fff2cc;strokeColor=#d6b656;" parent="1" vertex="1">
          <mxGeometry x="1080" y="670" width="550" height="420" as="geometry" />
        </mxCell>
        <mxCell id="cvZS5h-UPlSQZ2jFVgvs-29" value="API" style="swimlane;fontStyle=0;childLayout=stackLayout;horizontal=1;startSize=30;horizontalStack=0;resizeParent=1;resizeParentMax=0;resizeLast=0;collapsible=1;marginBottom=0;whiteSpace=wrap;html=1;fillColor=#f5f5f5;fontColor=#333333;strokeColor=#666666;" parent="cvZS5h-UPlSQZ2jFVgvs-28" vertex="1">
          <mxGeometry x="20" y="30" width="500" height="120" as="geometry" />
        </mxCell>
        <mxCell id="cvZS5h-UPlSQZ2jFVgvs-30" value="POST /sessions -&amp;gt; (GUID session)" style="text;strokeColor=default;fillColor=none;align=left;verticalAlign=middle;spacingLeft=4;spacingRight=4;overflow=hidden;points=[[0,0.5],[1,0.5]];portConstraint=eastwest;rotatable=0;whiteSpace=wrap;html=1;" parent="cvZS5h-UPlSQZ2jFVgvs-29" vertex="1">
          <mxGeometry y="30" width="500" height="30" as="geometry" />
        </mxCell>
        <mxCell id="cvZS5h-UPlSQZ2jFVgvs-31" value="GET /sessions/{GUID} -&amp;gt; (метрики корабля, возможные действия, текущий ход)" style="text;strokeColor=default;fillColor=none;align=left;verticalAlign=middle;spacingLeft=4;spacingRight=4;overflow=hidden;points=[[0,0.5],[1,0.5]];portConstraint=eastwest;rotatable=0;whiteSpace=wrap;html=1;" parent="cvZS5h-UPlSQZ2jFVgvs-29" vertex="1">
          <mxGeometry y="60" width="500" height="30" as="geometry" />
        </mxCell>
        <mxCell id="cvZS5h-UPlSQZ2jFVgvs-32" value="POST /sessions/{GUID}/make-move -&amp;gt; (метрики корабля, текущий ход)" style="text;strokeColor=default;fillColor=none;align=left;verticalAlign=middle;spacingLeft=4;spacingRight=4;overflow=hidden;points=[[0,0.5],[1,0.5]];portConstraint=eastwest;rotatable=0;whiteSpace=wrap;html=1;" parent="cvZS5h-UPlSQZ2jFVgvs-29" vertex="1">
          <mxGeometry y="90" width="500" height="30" as="geometry" />
        </mxCell>
        <mxCell id="cvZS5h-UPlSQZ2jFVgvs-33" value="" style="endArrow=classic;html=1;rounded=0;exitX=0;exitY=0.5;exitDx=0;exitDy=0;entryX=1;entryY=0.5;entryDx=0;entryDy=0;edgeStyle=orthogonalEdgeStyle;curved=1;fillColor=#ffe6cc;strokeColor=#d79b00;startArrow=classic;startFill=1;" parent="1" source="cvZS5h-UPlSQZ2jFVgvs-15" target="cvZS5h-UPlSQZ2jFVgvs-30" edge="1">
          <mxGeometry width="50" height="50" relative="1" as="geometry">
            <mxPoint x="1310" y="630" as="sourcePoint" />
            <mxPoint x="1360" y="580" as="targetPoint" />
            <Array as="points">
              <mxPoint x="1750" y="535" />
              <mxPoint x="1750" y="745" />
            </Array>
          </mxGeometry>
        </mxCell>
        <mxCell id="cvZS5h-UPlSQZ2jFVgvs-34" value="Создание сессии" style="edgeLabel;html=1;align=center;verticalAlign=middle;resizable=0;points=[];" parent="cvZS5h-UPlSQZ2jFVgvs-33" vertex="1" connectable="0">
          <mxGeometry x="0.097" y="-1" relative="1" as="geometry">
            <mxPoint as="offset" />
          </mxGeometry>
        </mxCell>
        <mxCell id="cvZS5h-UPlSQZ2jFVgvs-35" value="" style="endArrow=classic;html=1;rounded=0;exitX=0;exitY=0.5;exitDx=0;exitDy=0;entryX=1;entryY=0.5;entryDx=0;entryDy=0;edgeStyle=orthogonalEdgeStyle;curved=1;fillColor=#dae8fc;strokeColor=#6c8ebf;startArrow=classic;startFill=1;" parent="1" source="cvZS5h-UPlSQZ2jFVgvs-17" target="cvZS5h-UPlSQZ2jFVgvs-31" edge="1">
          <mxGeometry width="50" height="50" relative="1" as="geometry">
            <mxPoint x="1705" y="776" as="sourcePoint" />
            <mxPoint x="1410" y="920" as="targetPoint" />
            <Array as="points">
              <mxPoint x="1800" y="595" />
              <mxPoint x="1800" y="775" />
            </Array>
          </mxGeometry>
        </mxCell>
        <mxCell id="cvZS5h-UPlSQZ2jFVgvs-36" value="Получение данных&lt;div&gt;о сессии&lt;/div&gt;" style="edgeLabel;html=1;align=center;verticalAlign=middle;resizable=0;points=[];" parent="cvZS5h-UPlSQZ2jFVgvs-35" vertex="1" connectable="0">
          <mxGeometry x="-0.06" y="1" relative="1" as="geometry">
            <mxPoint y="-1" as="offset" />
          </mxGeometry>
        </mxCell>
        <mxCell id="cvZS5h-UPlSQZ2jFVgvs-37" value="" style="endArrow=classic;html=1;rounded=0;edgeStyle=orthogonalEdgeStyle;curved=1;fillColor=#ffe6cc;strokeColor=#d79b00;startArrow=classic;startFill=1;" parent="1" source="cvZS5h-UPlSQZ2jFVgvs-30" target="cvZS5h-UPlSQZ2jFVgvs-4" edge="1">
          <mxGeometry width="50" height="50" relative="1" as="geometry">
            <mxPoint x="1210" y="410" as="sourcePoint" />
            <mxPoint x="880" y="560" as="targetPoint" />
            <Array as="points">
              <mxPoint x="1040" y="745" />
              <mxPoint x="1040" y="645" />
            </Array>
          </mxGeometry>
        </mxCell>
        <mxCell id="cvZS5h-UPlSQZ2jFVgvs-38" value="Создание сессии" style="edgeLabel;html=1;align=center;verticalAlign=middle;resizable=0;points=[];" parent="cvZS5h-UPlSQZ2jFVgvs-37" vertex="1" connectable="0">
          <mxGeometry x="0.021" y="17" relative="1" as="geometry">
            <mxPoint as="offset" />
          </mxGeometry>
        </mxCell>
        <mxCell id="cvZS5h-UPlSQZ2jFVgvs-39" value="" style="endArrow=classic;html=1;rounded=0;edgeStyle=orthogonalEdgeStyle;curved=1;exitX=0;exitY=0.5;exitDx=0;exitDy=0;entryX=1;entryY=0.5;entryDx=0;entryDy=0;fillColor=#dae8fc;strokeColor=#6c8ebf;startArrow=classic;startFill=1;" parent="1" source="cvZS5h-UPlSQZ2jFVgvs-31" target="cvZS5h-UPlSQZ2jFVgvs-5" edge="1">
          <mxGeometry width="50" height="50" relative="1" as="geometry">
            <mxPoint x="970" y="791.38" as="sourcePoint" />
            <mxPoint x="680" y="791.38" as="targetPoint" />
          </mxGeometry>
        </mxCell>
        <mxCell id="cvZS5h-UPlSQZ2jFVgvs-40" value="Получение сессии:&lt;div&gt;корабль, генератор, ход&lt;/div&gt;" style="edgeLabel;html=1;align=center;verticalAlign=middle;resizable=0;points=[];" parent="cvZS5h-UPlSQZ2jFVgvs-39" vertex="1" connectable="0">
          <mxGeometry x="-0.0514" y="-5" relative="1" as="geometry">
            <mxPoint y="-1" as="offset" />
          </mxGeometry>
        </mxCell>
        <mxCell id="cvZS5h-UPlSQZ2jFVgvs-41" value="" style="endArrow=classic;html=1;rounded=0;edgeStyle=orthogonalEdgeStyle;curved=1;fillColor=#d5e8d4;strokeColor=#82b366;startArrow=classic;startFill=1;exitX=0;exitY=0.5;exitDx=0;exitDy=0;" parent="1" source="cvZS5h-UPlSQZ2jFVgvs-18" target="cvZS5h-UPlSQZ2jFVgvs-32" edge="1">
          <mxGeometry width="50" height="50" relative="1" as="geometry">
            <mxPoint x="1880" y="565" as="sourcePoint" />
            <mxPoint x="1550" y="685" as="targetPoint" />
            <Array as="points">
              <mxPoint x="1860" y="625" />
              <mxPoint x="1860" y="805" />
            </Array>
          </mxGeometry>
        </mxCell>
        <mxCell id="cvZS5h-UPlSQZ2jFVgvs-42" value="Совершение&lt;div&gt;хода&lt;/div&gt;" style="edgeLabel;html=1;align=center;verticalAlign=middle;resizable=0;points=[];" parent="cvZS5h-UPlSQZ2jFVgvs-41" vertex="1" connectable="0">
          <mxGeometry x="-0.1279" relative="1" as="geometry">
            <mxPoint x="-10" y="-22" as="offset" />
          </mxGeometry>
        </mxCell>
        <mxCell id="cvZS5h-UPlSQZ2jFVgvs-43" value="" style="endArrow=classic;html=1;rounded=0;edgeStyle=orthogonalEdgeStyle;curved=1;entryX=1;entryY=0.5;entryDx=0;entryDy=0;fillColor=#d5e8d4;strokeColor=#82b366;" parent="1" source="cvZS5h-UPlSQZ2jFVgvs-32" edge="1">
          <mxGeometry width="50" height="50" relative="1" as="geometry">
            <mxPoint x="980" y="780" as="sourcePoint" />
            <mxPoint x="750" y="705" as="targetPoint" />
            <Array as="points">
              <mxPoint x="1350" y="860" />
              <mxPoint x="850" y="860" />
              <mxPoint x="850" y="705" />
            </Array>
          </mxGeometry>
        </mxCell>
        <mxCell id="cvZS5h-UPlSQZ2jFVgvs-44" value="Совершение хода:&lt;div&gt;увеличение счётчика дней&lt;/div&gt;" style="edgeLabel;html=1;align=center;verticalAlign=middle;resizable=0;points=[];" parent="cvZS5h-UPlSQZ2jFVgvs-43" vertex="1" connectable="0">
          <mxGeometry x="0.0877" y="-11" relative="1" as="geometry">
            <mxPoint x="1" as="offset" />
          </mxGeometry>
        </mxCell>
        <mxCell id="cvZS5h-UPlSQZ2jFVgvs-45" value="" style="endArrow=classic;html=1;rounded=0;edgeStyle=orthogonalEdgeStyle;curved=1;entryX=1;entryY=0.5;entryDx=0;entryDy=0;exitX=0;exitY=0.5;exitDx=0;exitDy=0;" parent="1" source="cvZS5h-UPlSQZ2jFVgvs-32" target="cvZS5h-UPlSQZ2jFVgvs-5" edge="1">
          <mxGeometry width="50" height="50" relative="1" as="geometry">
            <mxPoint x="1050" y="715" as="sourcePoint" />
            <mxPoint x="760" y="715" as="targetPoint" />
            <Array as="points">
              <mxPoint x="900" y="805" />
              <mxPoint x="900" y="675" />
            </Array>
          </mxGeometry>
        </mxCell>
        <mxCell id="cvZS5h-UPlSQZ2jFVgvs-46" value="Генератор проблем" style="swimlane;whiteSpace=wrap;html=1;fillColor=#dae8fc;strokeColor=#6c8ebf;" parent="1" vertex="1">
          <mxGeometry x="-700" y="90" width="560" height="405" as="geometry" />
        </mxCell>
        <mxCell id="cvZS5h-UPlSQZ2jFVgvs-47" value="БД&lt;div&gt;SQL&lt;/div&gt;" style="shape=cylinder3;whiteSpace=wrap;html=1;boundedLbl=1;backgroundOutline=1;size=7.428571428571388;" parent="cvZS5h-UPlSQZ2jFVgvs-46" vertex="1">
          <mxGeometry x="30" y="160" width="52.5" height="70" as="geometry" />
        </mxCell>
        <mxCell id="cvZS5h-UPlSQZ2jFVgvs-48" value="API" style="swimlane;fontStyle=0;childLayout=stackLayout;horizontal=1;startSize=30;horizontalStack=0;resizeParent=1;resizeParentMax=0;resizeLast=0;collapsible=1;marginBottom=0;whiteSpace=wrap;html=1;fillColor=#f5f5f5;fontColor=#333333;strokeColor=#666666;" parent="cvZS5h-UPlSQZ2jFVgvs-46" vertex="1">
          <mxGeometry x="20" y="30" width="440" height="90" as="geometry" />
        </mxCell>
        <mxCell id="cvZS5h-UPlSQZ2jFVgvs-49" value="POST /problem-generators -&amp;gt; (GUID problemGenerator)" style="text;strokeColor=default;fillColor=none;align=left;verticalAlign=middle;spacingLeft=4;spacingRight=4;overflow=hidden;points=[[0,0.5],[1,0.5]];portConstraint=eastwest;rotatable=0;whiteSpace=wrap;html=1;" parent="cvZS5h-UPlSQZ2jFVgvs-48" vertex="1">
          <mxGeometry y="30" width="440" height="30" as="geometry" />
        </mxCell>
        <mxCell id="cvZS5h-UPlSQZ2jFVgvs-50" value="POST /problem-generators/{GUID}/make-move" style="text;strokeColor=default;fillColor=none;align=left;verticalAlign=middle;spacingLeft=4;spacingRight=4;overflow=hidden;points=[[0,0.5],[1,0.5]];portConstraint=eastwest;rotatable=0;whiteSpace=wrap;html=1;" parent="cvZS5h-UPlSQZ2jFVgvs-48" vertex="1">
          <mxGeometry y="60" width="440" height="30" as="geometry" />
        </mxCell>
        <mxCell id="cvZS5h-UPlSQZ2jFVgvs-51" value="Генераторы" style="swimlane;fontStyle=0;childLayout=stackLayout;horizontal=1;startSize=30;horizontalStack=0;resizeParent=1;resizeParentMax=0;resizeLast=0;collapsible=1;marginBottom=0;whiteSpace=wrap;html=1;fillColor=#f5f5f5;fontColor=#333333;strokeColor=#666666;" parent="cvZS5h-UPlSQZ2jFVgvs-46" vertex="1">
          <mxGeometry x="30" y="240" width="230" height="120" as="geometry" />
        </mxCell>
        <mxCell id="cvZS5h-UPlSQZ2jFVgvs-52" value="string (PK) GUID генератора проблем" style="text;strokeColor=default;fillColor=none;align=left;verticalAlign=middle;spacingLeft=4;spacingRight=4;overflow=hidden;points=[[0,0.5],[1,0.5]];portConstraint=eastwest;rotatable=0;whiteSpace=wrap;html=1;" parent="cvZS5h-UPlSQZ2jFVgvs-51" vertex="1">
          <mxGeometry y="30" width="230" height="30" as="geometry" />
        </mxCell>
        <mxCell id="cvZS5h-UPlSQZ2jFVgvs-53" value="int количество &quot;TroubleCoin&quot;" style="text;strokeColor=default;fillColor=none;align=left;verticalAlign=middle;spacingLeft=4;spacingRight=4;overflow=hidden;points=[[0,0.5],[1,0.5]];portConstraint=eastwest;rotatable=0;whiteSpace=wrap;html=1;" parent="cvZS5h-UPlSQZ2jFVgvs-51" vertex="1">
          <mxGeometry y="60" width="230" height="30" as="geometry" />
        </mxCell>
        <mxCell id="cvZS5h-UPlSQZ2jFVgvs-54" value="string (FK) GUID корабля" style="text;strokeColor=default;fillColor=none;align=left;verticalAlign=middle;spacingLeft=4;spacingRight=4;overflow=hidden;points=[[0,0.5],[1,0.5]];portConstraint=eastwest;rotatable=0;whiteSpace=wrap;html=1;" parent="cvZS5h-UPlSQZ2jFVgvs-51" vertex="1">
          <mxGeometry y="90" width="230" height="30" as="geometry" />
        </mxCell>
        <mxCell id="cvZS5h-UPlSQZ2jFVgvs-55" value="" style="endArrow=none;html=1;rounded=0;" parent="cvZS5h-UPlSQZ2jFVgvs-46" source="cvZS5h-UPlSQZ2jFVgvs-51" target="cvZS5h-UPlSQZ2jFVgvs-47" edge="1">
          <mxGeometry width="50" height="50" relative="1" as="geometry">
            <mxPoint y="250" as="sourcePoint" />
            <mxPoint x="50" y="200" as="targetPoint" />
          </mxGeometry>
        </mxCell>
        <mxCell id="cvZS5h-UPlSQZ2jFVgvs-56" value="Корабли" style="swimlane;fontStyle=0;childLayout=stackLayout;horizontal=1;startSize=30;horizontalStack=0;resizeParent=1;resizeParentMax=0;resizeLast=0;collapsible=1;marginBottom=0;whiteSpace=wrap;html=1;fillColor=#f5f5f5;fontColor=#333333;strokeColor=#666666;" parent="cvZS5h-UPlSQZ2jFVgvs-46" vertex="1">
          <mxGeometry x="310" y="250" width="230" height="90" as="geometry" />
        </mxCell>
        <mxCell id="cvZS5h-UPlSQZ2jFVgvs-57" value="string (PK) GUID корабля" style="text;strokeColor=default;fillColor=none;align=left;verticalAlign=middle;spacingLeft=4;spacingRight=4;overflow=hidden;points=[[0,0.5],[1,0.5]];portConstraint=eastwest;rotatable=0;whiteSpace=wrap;html=1;" parent="cvZS5h-UPlSQZ2jFVgvs-56" vertex="1">
          <mxGeometry y="30" width="230" height="30" as="geometry" />
        </mxCell>
        <mxCell id="cvZS5h-UPlSQZ2jFVgvs-58" value="string (*) очередь проблем" style="text;strokeColor=default;fillColor=none;align=left;verticalAlign=middle;spacingLeft=4;spacingRight=4;overflow=hidden;points=[[0,0.5],[1,0.5]];portConstraint=eastwest;rotatable=0;whiteSpace=wrap;html=1;" parent="cvZS5h-UPlSQZ2jFVgvs-56" vertex="1">
          <mxGeometry y="60" width="230" height="30" as="geometry" />
        </mxCell>
        <mxCell id="cvZS5h-UPlSQZ2jFVgvs-59" value="" style="edgeStyle=orthogonalEdgeStyle;rounded=0;orthogonalLoop=1;jettySize=auto;html=1;entryX=0;entryY=0.5;entryDx=0;entryDy=0;" parent="cvZS5h-UPlSQZ2jFVgvs-46" source="cvZS5h-UPlSQZ2jFVgvs-54" target="cvZS5h-UPlSQZ2jFVgvs-57" edge="1">
          <mxGeometry relative="1" as="geometry" />
        </mxCell>
        <mxCell id="cvZS5h-UPlSQZ2jFVgvs-60" value="" style="endArrow=classic;html=1;rounded=0;edgeStyle=orthogonalEdgeStyle;curved=1;entryX=1;entryY=0.5;entryDx=0;entryDy=0;fillColor=#ffe6cc;strokeColor=#d79b00;exitX=0;exitY=0.5;exitDx=0;exitDy=0;" parent="1" source="cvZS5h-UPlSQZ2jFVgvs-4" target="cvZS5h-UPlSQZ2jFVgvs-49" edge="1">
          <mxGeometry width="50" height="50" relative="1" as="geometry">
            <mxPoint x="240" y="680" as="sourcePoint" />
            <mxPoint x="410" y="410" as="targetPoint" />
          </mxGeometry>
        </mxCell>
        <mxCell id="cvZS5h-UPlSQZ2jFVgvs-61" value="Создание сессии:&lt;div&gt;создание генератора&lt;/div&gt;&lt;div&gt;(передаём очередь)&lt;/div&gt;" style="edgeLabel;html=1;align=center;verticalAlign=middle;resizable=0;points=[];" parent="cvZS5h-UPlSQZ2jFVgvs-60" vertex="1" connectable="0">
          <mxGeometry x="-0.0611" y="-5" relative="1" as="geometry">
            <mxPoint as="offset" />
          </mxGeometry>
        </mxCell>
        <mxCell id="cvZS5h-UPlSQZ2jFVgvs-62" value="Корабль" style="swimlane;whiteSpace=wrap;html=1;fillColor=#e1d5e7;strokeColor=#9673a6;" parent="1" vertex="1">
          <mxGeometry x="580" y="-190" width="1210" height="510" as="geometry" />
        </mxCell>
        <mxCell id="cvZS5h-UPlSQZ2jFVgvs-63" value="БД&lt;div&gt;SQL&lt;/div&gt;" style="shape=cylinder3;whiteSpace=wrap;html=1;boundedLbl=1;backgroundOutline=1;size=7.428571428571388;" parent="cvZS5h-UPlSQZ2jFVgvs-62" vertex="1">
          <mxGeometry x="30" y="50" width="52.5" height="70" as="geometry" />
        </mxCell>
        <mxCell id="cvZS5h-UPlSQZ2jFVgvs-64" value="API" style="swimlane;fontStyle=0;childLayout=stackLayout;horizontal=1;startSize=30;horizontalStack=0;resizeParent=1;resizeParentMax=0;resizeLast=0;collapsible=1;marginBottom=0;whiteSpace=wrap;html=1;fillColor=#f5f5f5;fontColor=#333333;strokeColor=#666666;" parent="cvZS5h-UPlSQZ2jFVgvs-62" vertex="1">
          <mxGeometry x="505" y="340" width="550" height="120" as="geometry" />
        </mxCell>
        <mxCell id="cvZS5h-UPlSQZ2jFVgvs-65" value="POST /ships -&amp;gt; (GUID корабля, очередь проблем)" style="text;strokeColor=default;fillColor=none;align=left;verticalAlign=middle;spacingLeft=4;spacingRight=4;overflow=hidden;points=[[0,0.5],[1,0.5]];portConstraint=eastwest;rotatable=0;whiteSpace=wrap;html=1;" parent="cvZS5h-UPlSQZ2jFVgvs-64" vertex="1">
          <mxGeometry y="30" width="550" height="30" as="geometry" />
        </mxCell>
        <mxCell id="cvZS5h-UPlSQZ2jFVgvs-66" value="GET /ships/{GUID} -&amp;gt; (метрики корабля, возможные действия)" style="text;strokeColor=default;fillColor=none;align=left;verticalAlign=middle;spacingLeft=4;spacingRight=4;overflow=hidden;points=[[0,0.5],[1,0.5]];portConstraint=eastwest;rotatable=0;whiteSpace=wrap;html=1;" parent="cvZS5h-UPlSQZ2jFVgvs-64" vertex="1">
          <mxGeometry y="60" width="550" height="30" as="geometry" />
        </mxCell>
        <mxCell id="cvZS5h-UPlSQZ2jFVgvs-67" value="POST /ships/{GUID}/maintenance" style="text;strokeColor=default;fillColor=none;align=left;verticalAlign=middle;spacingLeft=4;spacingRight=4;overflow=hidden;points=[[0,0.5],[1,0.5]];portConstraint=eastwest;rotatable=0;whiteSpace=wrap;html=1;" parent="cvZS5h-UPlSQZ2jFVgvs-64" vertex="1">
          <mxGeometry y="90" width="550" height="30" as="geometry" />
        </mxCell>
        <mxCell id="cvZS5h-UPlSQZ2jFVgvs-68" value="Корабли" style="swimlane;fontStyle=0;childLayout=stackLayout;horizontal=1;startSize=30;horizontalStack=0;resizeParent=1;resizeParentMax=0;resizeLast=0;collapsible=1;marginBottom=0;whiteSpace=wrap;html=1;fillColor=#f5f5f5;fontColor=#333333;strokeColor=#666666;" parent="cvZS5h-UPlSQZ2jFVgvs-62" vertex="1">
          <mxGeometry x="160" y="50" width="200" height="90" as="geometry" />
        </mxCell>
        <mxCell id="cvZS5h-UPlSQZ2jFVgvs-69" value="string (PK) GUID корабля" style="text;strokeColor=default;fillColor=none;align=left;verticalAlign=middle;spacingLeft=4;spacingRight=4;overflow=hidden;points=[[0,0.5],[1,0.5]];portConstraint=eastwest;rotatable=0;whiteSpace=wrap;html=1;" parent="cvZS5h-UPlSQZ2jFVgvs-68" vertex="1">
          <mxGeometry y="30" width="200" height="30" as="geometry" />
        </mxCell>
        <mxCell id="cvZS5h-UPlSQZ2jFVgvs-70" value="string (*) очередь проблем" style="text;strokeColor=default;fillColor=none;align=left;verticalAlign=middle;spacingLeft=4;spacingRight=4;overflow=hidden;points=[[0,0.5],[1,0.5]];portConstraint=eastwest;rotatable=0;whiteSpace=wrap;html=1;" parent="cvZS5h-UPlSQZ2jFVgvs-68" vertex="1">
          <mxGeometry y="60" width="200" height="30" as="geometry" />
        </mxCell>
        <mxCell id="cvZS5h-UPlSQZ2jFVgvs-71" value="" style="endArrow=none;html=1;rounded=0;" parent="cvZS5h-UPlSQZ2jFVgvs-62" source="cvZS5h-UPlSQZ2jFVgvs-68" target="cvZS5h-UPlSQZ2jFVgvs-63" edge="1">
          <mxGeometry width="50" height="50" relative="1" as="geometry">
            <mxPoint x="200" y="250" as="sourcePoint" />
            <mxPoint x="250" y="200" as="targetPoint" />
          </mxGeometry>
        </mxCell>
        <mxCell id="cvZS5h-UPlSQZ2jFVgvs-72" value="Ресурсы" style="swimlane;fontStyle=0;childLayout=stackLayout;horizontal=1;startSize=30;horizontalStack=0;resizeParent=1;resizeParentMax=0;resizeLast=0;collapsible=1;marginBottom=0;whiteSpace=wrap;html=1;fillColor=#f5f5f5;fontColor=#333333;strokeColor=#666666;" parent="cvZS5h-UPlSQZ2jFVgvs-62" vertex="1">
          <mxGeometry x="400" y="50" width="200" height="150" as="geometry" />
        </mxCell>
        <mxCell id="cvZS5h-UPlSQZ2jFVgvs-73" value="string FK GUID корабля" style="text;strokeColor=default;fillColor=none;align=left;verticalAlign=middle;spacingLeft=4;spacingRight=4;overflow=hidden;points=[[0,0.5],[1,0.5]];portConstraint=eastwest;rotatable=0;whiteSpace=wrap;html=1;" parent="cvZS5h-UPlSQZ2jFVgvs-72" vertex="1">
          <mxGeometry y="30" width="200" height="30" as="geometry" />
        </mxCell>
        <mxCell id="cvZS5h-UPlSQZ2jFVgvs-74" value="int FK ID типа ресурса" style="text;strokeColor=default;fillColor=none;align=left;verticalAlign=middle;spacingLeft=4;spacingRight=4;overflow=hidden;points=[[0,0.5],[1,0.5]];portConstraint=eastwest;rotatable=0;whiteSpace=wrap;html=1;" parent="cvZS5h-UPlSQZ2jFVgvs-72" vertex="1">
          <mxGeometry y="60" width="200" height="30" as="geometry" />
        </mxCell>
        <mxCell id="cvZS5h-UPlSQZ2jFVgvs-75" value="int количество ресурса" style="text;strokeColor=default;fillColor=none;align=left;verticalAlign=middle;spacingLeft=4;spacingRight=4;overflow=hidden;points=[[0,0.5],[1,0.5]];portConstraint=eastwest;rotatable=0;whiteSpace=wrap;html=1;" parent="cvZS5h-UPlSQZ2jFVgvs-72" vertex="1">
          <mxGeometry y="90" width="200" height="30" as="geometry" />
        </mxCell>
        <mxCell id="cvZS5h-UPlSQZ2jFVgvs-76" value="shortint состояние (enum)" style="text;strokeColor=default;fillColor=none;align=left;verticalAlign=middle;spacingLeft=4;spacingRight=4;overflow=hidden;points=[[0,0.5],[1,0.5]];portConstraint=eastwest;rotatable=0;whiteSpace=wrap;html=1;" parent="cvZS5h-UPlSQZ2jFVgvs-72" vertex="1">
          <mxGeometry y="120" width="200" height="30" as="geometry" />
        </mxCell>
        <mxCell id="cvZS5h-UPlSQZ2jFVgvs-77" value="Типы ресурсов" style="swimlane;fontStyle=0;childLayout=stackLayout;horizontal=1;startSize=30;horizontalStack=0;resizeParent=1;resizeParentMax=0;resizeLast=0;collapsible=1;marginBottom=0;whiteSpace=wrap;html=1;fillColor=#f5f5f5;fontColor=#333333;strokeColor=#666666;" parent="cvZS5h-UPlSQZ2jFVgvs-62" vertex="1">
          <mxGeometry x="680" y="40" width="200" height="90" as="geometry" />
        </mxCell>
        <mxCell id="cvZS5h-UPlSQZ2jFVgvs-78" value="int PK ID типа ресурса" style="text;strokeColor=default;fillColor=none;align=left;verticalAlign=middle;spacingLeft=4;spacingRight=4;overflow=hidden;points=[[0,0.5],[1,0.5]];portConstraint=eastwest;rotatable=0;whiteSpace=wrap;html=1;" parent="cvZS5h-UPlSQZ2jFVgvs-77" vertex="1">
          <mxGeometry y="30" width="200" height="30" as="geometry" />
        </mxCell>
        <mxCell id="cvZS5h-UPlSQZ2jFVgvs-79" value="string название типа ресурса" style="text;strokeColor=default;fillColor=none;align=left;verticalAlign=middle;spacingLeft=4;spacingRight=4;overflow=hidden;points=[[0,0.5],[1,0.5]];portConstraint=eastwest;rotatable=0;whiteSpace=wrap;html=1;" parent="cvZS5h-UPlSQZ2jFVgvs-77" vertex="1">
          <mxGeometry y="60" width="200" height="30" as="geometry" />
        </mxCell>
        <mxCell id="cvZS5h-UPlSQZ2jFVgvs-80" value="Действия с ресурсами" style="swimlane;fontStyle=0;childLayout=stackLayout;horizontal=1;startSize=30;horizontalStack=0;resizeParent=1;resizeParentMax=0;resizeLast=0;collapsible=1;marginBottom=0;whiteSpace=wrap;html=1;fillColor=#f5f5f5;fontColor=#333333;strokeColor=#666666;" parent="cvZS5h-UPlSQZ2jFVgvs-62" vertex="1">
          <mxGeometry x="990" y="40" width="200" height="90" as="geometry" />
        </mxCell>
        <mxCell id="cvZS5h-UPlSQZ2jFVgvs-81" value="int PK ID действия с ресурсами" style="text;strokeColor=default;fillColor=none;align=left;verticalAlign=middle;spacingLeft=4;spacingRight=4;overflow=hidden;points=[[0,0.5],[1,0.5]];portConstraint=eastwest;rotatable=0;whiteSpace=wrap;html=1;" parent="cvZS5h-UPlSQZ2jFVgvs-80" vertex="1">
          <mxGeometry y="30" width="200" height="30" as="geometry" />
        </mxCell>
        <mxCell id="cvZS5h-UPlSQZ2jFVgvs-82" value="string название действия" style="text;strokeColor=default;fillColor=none;align=left;verticalAlign=middle;spacingLeft=4;spacingRight=4;overflow=hidden;points=[[0,0.5],[1,0.5]];portConstraint=eastwest;rotatable=0;whiteSpace=wrap;html=1;" parent="cvZS5h-UPlSQZ2jFVgvs-80" vertex="1">
          <mxGeometry y="60" width="200" height="30" as="geometry" />
        </mxCell>
        <mxCell id="cvZS5h-UPlSQZ2jFVgvs-83" value="Обработка сообщения&lt;div&gt;из очереди проблем&lt;/div&gt;" style="shape=process;whiteSpace=wrap;html=1;backgroundOutline=1;" parent="cvZS5h-UPlSQZ2jFVgvs-62" vertex="1">
          <mxGeometry x="50" y="230" width="230" height="80" as="geometry" />
        </mxCell>
        <mxCell id="cvZS5h-UPlSQZ2jFVgvs-84" value="" style="endArrow=none;dashed=1;html=1;dashPattern=1 3;strokeWidth=2;rounded=0;exitX=1;exitY=0.5;exitDx=0;exitDy=0;entryX=0;entryY=0.5;entryDx=0;entryDy=0;edgeStyle=orthogonalEdgeStyle;fillColor=#f5f5f5;strokeColor=#666666;" parent="cvZS5h-UPlSQZ2jFVgvs-62" source="cvZS5h-UPlSQZ2jFVgvs-69" target="cvZS5h-UPlSQZ2jFVgvs-73" edge="1">
          <mxGeometry width="50" height="50" relative="1" as="geometry">
            <mxPoint x="350" y="350" as="sourcePoint" />
            <mxPoint x="400" y="300" as="targetPoint" />
          </mxGeometry>
        </mxCell>
        <mxCell id="cvZS5h-UPlSQZ2jFVgvs-85" value="" style="endArrow=none;dashed=1;html=1;dashPattern=1 3;strokeWidth=2;rounded=0;exitX=1;exitY=0.5;exitDx=0;exitDy=0;entryX=0;entryY=0.5;entryDx=0;entryDy=0;edgeStyle=orthogonalEdgeStyle;" parent="cvZS5h-UPlSQZ2jFVgvs-62" source="cvZS5h-UPlSQZ2jFVgvs-74" target="cvZS5h-UPlSQZ2jFVgvs-78" edge="1">
          <mxGeometry width="50" height="50" relative="1" as="geometry">
            <mxPoint x="800" y="300" as="sourcePoint" />
            <mxPoint x="650" y="160" as="targetPoint" />
          </mxGeometry>
        </mxCell>
        <mxCell id="cvZS5h-UPlSQZ2jFVgvs-86" value="" style="endArrow=none;dashed=1;html=1;dashPattern=1 3;strokeWidth=2;rounded=0;entryX=0;entryY=0.25;entryDx=0;entryDy=0;exitX=1;exitY=0.25;exitDx=0;exitDy=0;" parent="cvZS5h-UPlSQZ2jFVgvs-62" source="cvZS5h-UPlSQZ2jFVgvs-77" target="cvZS5h-UPlSQZ2jFVgvs-80" edge="1">
          <mxGeometry width="50" height="50" relative="1" as="geometry">
            <mxPoint x="920" y="130" as="sourcePoint" />
            <mxPoint x="960" y="90" as="targetPoint" />
          </mxGeometry>
        </mxCell>
        <mxCell id="cvZS5h-UPlSQZ2jFVgvs-87" value="" style="endArrow=classic;html=1;rounded=0;entryX=0;entryY=0.5;entryDx=0;entryDy=0;fillColor=#ffe6cc;strokeColor=#d79b00;exitX=0;exitY=0.5;exitDx=0;exitDy=0;edgeStyle=orthogonalEdgeStyle;curved=1;" parent="1" source="cvZS5h-UPlSQZ2jFVgvs-4" target="cvZS5h-UPlSQZ2jFVgvs-65" edge="1">
          <mxGeometry width="50" height="50" relative="1" as="geometry">
            <mxPoint x="150" y="650" as="sourcePoint" />
            <mxPoint x="80" y="270" as="targetPoint" />
            <Array as="points">
              <mxPoint x="180" y="645" />
              <mxPoint x="180" y="195" />
            </Array>
          </mxGeometry>
        </mxCell>
        <mxCell id="cvZS5h-UPlSQZ2jFVgvs-88" value="Создание сессии:&lt;div&gt;создание корабля&lt;/div&gt;&lt;div&gt;(получаем очередь)&lt;/div&gt;" style="edgeLabel;html=1;align=center;verticalAlign=middle;resizable=0;points=[];" parent="cvZS5h-UPlSQZ2jFVgvs-87" vertex="1" connectable="0">
          <mxGeometry x="-0.4486" y="-3" relative="1" as="geometry">
            <mxPoint y="-1" as="offset" />
          </mxGeometry>
        </mxCell>
        <mxCell id="cvZS5h-UPlSQZ2jFVgvs-89" value="RabbitMQ" style="swimlane;fontStyle=0;childLayout=stackLayout;horizontal=1;startSize=30;horizontalStack=0;resizeParent=1;resizeParentMax=0;resizeLast=0;collapsible=1;marginBottom=0;whiteSpace=wrap;html=1;fillColor=#f8cecc;strokeColor=#b85450;" parent="1" vertex="1">
          <mxGeometry x="30" y="-180" width="380" height="120" as="geometry" />
        </mxCell>
        <mxCell id="cvZS5h-UPlSQZ2jFVgvs-90" value="Очередь проблем" style="text;strokeColor=none;fillColor=none;align=left;verticalAlign=middle;spacingLeft=4;spacingRight=4;overflow=hidden;points=[[0,0.5],[1,0.5]];portConstraint=eastwest;rotatable=0;whiteSpace=wrap;html=1;" parent="cvZS5h-UPlSQZ2jFVgvs-89" vertex="1">
          <mxGeometry y="30" width="380" height="30" as="geometry" />
        </mxCell>
        <mxCell id="cvZS5h-UPlSQZ2jFVgvs-91" value="Очередь проблем" style="text;strokeColor=none;fillColor=none;align=left;verticalAlign=middle;spacingLeft=4;spacingRight=4;overflow=hidden;points=[[0,0.5],[1,0.5]];portConstraint=eastwest;rotatable=0;whiteSpace=wrap;html=1;" parent="cvZS5h-UPlSQZ2jFVgvs-89" vertex="1">
          <mxGeometry y="60" width="380" height="30" as="geometry" />
        </mxCell>
        <mxCell id="cvZS5h-UPlSQZ2jFVgvs-92" value="Очередь проблем" style="text;strokeColor=none;fillColor=none;align=left;verticalAlign=middle;spacingLeft=4;spacingRight=4;overflow=hidden;points=[[0,0.5],[1,0.5]];portConstraint=eastwest;rotatable=0;whiteSpace=wrap;html=1;" parent="cvZS5h-UPlSQZ2jFVgvs-89" vertex="1">
          <mxGeometry y="90" width="380" height="30" as="geometry" />
        </mxCell>
        <mxCell id="cvZS5h-UPlSQZ2jFVgvs-93" value="" style="endArrow=classic;html=1;rounded=0;edgeStyle=orthogonalEdgeStyle;entryX=0;entryY=0.5;entryDx=0;entryDy=0;strokeColor=#B5739D;strokeWidth=1;" parent="1" source="cvZS5h-UPlSQZ2jFVgvs-32" target="cvZS5h-UPlSQZ2jFVgvs-50" edge="1">
          <mxGeometry width="50" height="50" relative="1" as="geometry">
            <mxPoint x="1050" y="715" as="sourcePoint" />
            <mxPoint x="390" y="400" as="targetPoint" />
            <Array as="points">
              <mxPoint x="1170" y="1110" />
              <mxPoint x="-810" y="1110" />
              <mxPoint x="-810" y="195" />
            </Array>
          </mxGeometry>
        </mxCell>
        <mxCell id="cvZS5h-UPlSQZ2jFVgvs-94" value="Совершение хода:&lt;div&gt;запрос на генерацию проблемы&lt;/div&gt;" style="edgeLabel;html=1;align=center;verticalAlign=middle;resizable=0;points=[];" parent="cvZS5h-UPlSQZ2jFVgvs-93" vertex="1" connectable="0">
          <mxGeometry x="-0.1861" y="2" relative="1" as="geometry">
            <mxPoint x="-1" as="offset" />
          </mxGeometry>
        </mxCell>
        <mxCell id="cvZS5h-UPlSQZ2jFVgvs-95" value="" style="endArrow=classic;html=1;rounded=0;exitX=1;exitY=0.5;exitDx=0;exitDy=0;strokeWidth=1;strokeColor=#B5739D;edgeStyle=orthogonalEdgeStyle;entryX=0;entryY=0.5;entryDx=0;entryDy=0;" parent="1" source="cvZS5h-UPlSQZ2jFVgvs-91" target="cvZS5h-UPlSQZ2jFVgvs-83" edge="1">
          <mxGeometry width="50" height="50" relative="1" as="geometry">
            <mxPoint x="510" y="-30" as="sourcePoint" />
            <mxPoint x="648.3999999999996" y="122" as="targetPoint" />
            <Array as="points">
              <mxPoint x="470" y="-105" />
              <mxPoint x="470" y="80" />
            </Array>
          </mxGeometry>
        </mxCell>
        <mxCell id="cvZS5h-UPlSQZ2jFVgvs-96" value="" style="endArrow=classic;html=1;rounded=0;edgeStyle=orthogonalEdgeStyle;curved=1;entryX=1;entryY=0.5;entryDx=0;entryDy=0;exitX=0;exitY=0.5;exitDx=0;exitDy=0;fillColor=#dae8fc;strokeColor=#6c8ebf;startArrow=classic;startFill=1;" parent="1" source="cvZS5h-UPlSQZ2jFVgvs-31" target="cvZS5h-UPlSQZ2jFVgvs-66" edge="1">
          <mxGeometry width="50" height="50" relative="1" as="geometry">
            <mxPoint x="1050" y="715" as="sourcePoint" />
            <mxPoint x="760" y="685" as="targetPoint" />
            <Array as="points">
              <mxPoint x="940" y="775" />
              <mxPoint x="940" y="450" />
              <mxPoint x="1760" y="450" />
              <mxPoint x="1760" y="225" />
            </Array>
          </mxGeometry>
        </mxCell>
        <mxCell id="cvZS5h-UPlSQZ2jFVgvs-97" value="Получение сессии:&lt;div&gt;корабль, возможные действия&lt;/div&gt;" style="edgeLabel;html=1;align=center;verticalAlign=middle;resizable=0;points=[];" parent="cvZS5h-UPlSQZ2jFVgvs-96" vertex="1" connectable="0">
          <mxGeometry x="0.1734" y="-5" relative="1" as="geometry">
            <mxPoint as="offset" />
          </mxGeometry>
        </mxCell>
        <mxCell id="cvZS5h-UPlSQZ2jFVgvs-98" value="" style="endArrow=classic;html=1;rounded=0;edgeStyle=orthogonalEdgeStyle;curved=1;entryX=0;entryY=0.5;entryDx=0;entryDy=0;exitX=1;exitY=0.5;exitDx=0;exitDy=0;strokeColor=#B5739D;startArrow=classic;startFill=1;" parent="1" source="cvZS5h-UPlSQZ2jFVgvs-50" target="cvZS5h-UPlSQZ2jFVgvs-66" edge="1">
          <mxGeometry width="50" height="50" relative="1" as="geometry">
            <mxPoint x="380" y="490" as="sourcePoint" />
            <mxPoint x="1150" y="85" as="targetPoint" />
            <Array as="points">
              <mxPoint x="430" y="195" />
              <mxPoint x="430" y="225" />
            </Array>
          </mxGeometry>
        </mxCell>
        <mxCell id="cvZS5h-UPlSQZ2jFVgvs-99" value="" style="endArrow=classic;html=1;rounded=0;edgeStyle=orthogonalEdgeStyle;curved=1;entryX=1;entryY=0.5;entryDx=0;entryDy=0;exitX=0;exitY=0.5;exitDx=0;exitDy=0;fillColor=#d5e8d4;strokeColor=#82b366;" parent="1" source="cvZS5h-UPlSQZ2jFVgvs-32" target="cvZS5h-UPlSQZ2jFVgvs-67" edge="1">
          <mxGeometry width="50" height="50" relative="1" as="geometry">
            <mxPoint x="730" y="520" as="sourcePoint" />
            <mxPoint x="1635" y="285" as="targetPoint" />
            <Array as="points">
              <mxPoint x="1030" y="805" />
              <mxPoint x="1030" y="550" />
              <mxPoint x="1830" y="550" />
              <mxPoint x="1830" y="255" />
            </Array>
          </mxGeometry>
        </mxCell>
        <mxCell id="cvZS5h-UPlSQZ2jFVgvs-100" value="Совершение хода:&lt;div&gt;расходы на содержание корабля&lt;/div&gt;" style="edgeLabel;html=1;align=center;verticalAlign=middle;resizable=0;points=[];" parent="cvZS5h-UPlSQZ2jFVgvs-99" vertex="1" connectable="0">
          <mxGeometry x="-0.0971" y="-4" relative="1" as="geometry">
            <mxPoint as="offset" />
          </mxGeometry>
        </mxCell>
        <mxCell id="cvZS5h-UPlSQZ2jFVgvs-101" value="" style="endArrow=none;dashed=1;html=1;dashPattern=1 3;strokeWidth=2;rounded=0;entryX=0.534;entryY=1.147;entryDx=0;entryDy=0;entryPerimeter=0;edgeStyle=orthogonalEdgeStyle;fillColor=#f5f5f5;strokeColor=#666666;" parent="1" source="cvZS5h-UPlSQZ2jFVgvs-7" target="cvZS5h-UPlSQZ2jFVgvs-25" edge="1">
          <mxGeometry width="50" height="50" relative="1" as="geometry">
            <mxPoint x="690" y="920" as="sourcePoint" />
            <mxPoint x="2100" y="960" as="targetPoint" />
            <Array as="points">
              <mxPoint x="260" y="885" />
              <mxPoint x="260" y="1140" />
              <mxPoint x="2328" y="1140" />
            </Array>
          </mxGeometry>
        </mxCell>
        <mxCell id="cvZS5h-UPlSQZ2jFVgvs-102" style="edgeStyle=orthogonalEdgeStyle;rounded=0;orthogonalLoop=1;jettySize=auto;html=1;entryX=0;entryY=0.5;entryDx=0;entryDy=0;strokeColor=#B5739D;strokeWidth=1;exitX=1;exitY=0.5;exitDx=0;exitDy=0;" parent="1" source="cvZS5h-UPlSQZ2jFVgvs-50" target="cvZS5h-UPlSQZ2jFVgvs-91" edge="1">
          <mxGeometry relative="1" as="geometry">
            <mxPoint x="-10" y="55" as="sourcePoint" />
            <mxPoint x="560" y="-230" as="targetPoint" />
            <Array as="points">
              <mxPoint x="-80" y="195" />
              <mxPoint x="-80" y="-105" />
            </Array>
          </mxGeometry>
        </mxCell>
        <mxCell id="cvZS5h-UPlSQZ2jFVgvs-103" value="Совершение хода:&lt;div&gt;проблема (или ничего)&lt;/div&gt;" style="edgeLabel;html=1;align=center;verticalAlign=middle;resizable=0;points=[];" parent="cvZS5h-UPlSQZ2jFVgvs-102" vertex="1" connectable="0">
          <mxGeometry x="0.2276" relative="1" as="geometry">
            <mxPoint as="offset" />
          </mxGeometry>
        </mxCell>
        <mxCell id="cvZS5h-UPlSQZ2jFVgvs-104" value="" style="endArrow=none;dashed=1;html=1;dashPattern=1 3;strokeWidth=2;rounded=0;entryX=0;entryY=0.5;entryDx=0;entryDy=0;fillColor=#f5f5f5;strokeColor=#666666;exitX=0;exitY=0.5;exitDx=0;exitDy=0;edgeStyle=orthogonalEdgeStyle;" parent="1" source="cvZS5h-UPlSQZ2jFVgvs-52" target="cvZS5h-UPlSQZ2jFVgvs-9" edge="1">
          <mxGeometry width="50" height="50" relative="1" as="geometry">
            <mxPoint x="-740" y="590" as="sourcePoint" />
            <mxPoint x="170" y="870" as="targetPoint" />
            <Array as="points">
              <mxPoint x="-740" y="375" />
              <mxPoint x="-740" y="945" />
            </Array>
          </mxGeometry>
        </mxCell>
      </root>
    </mxGraphModel>
  </diagram>
  <diagram name="v.0.0.0.2" id="g8SR9boPYnxargy4-quv">
    <mxGraphModel dx="838" dy="552" grid="1" gridSize="10" guides="1" tooltips="1" connect="1" arrows="1" fold="1" page="1" pageScale="1" pageWidth="1920" pageHeight="1200" math="0" shadow="0">
      <root>
        <mxCell id="-pohOnXNuDEOGiyrZGvC-0" />
        <mxCell id="-pohOnXNuDEOGiyrZGvC-1" parent="-pohOnXNuDEOGiyrZGvC-0" />
        <mxCell id="DAMzAsxv2v4DKMasLliF-16" value="Итнетрфейс игрока" style="rounded=0;whiteSpace=wrap;html=1;align=center;horizontal=1;labelPosition=center;verticalLabelPosition=top;verticalAlign=bottom;fillColor=#f5f5f5;fontColor=#333333;strokeColor=#CCCCCC;fontStyle=1" parent="-pohOnXNuDEOGiyrZGvC-1" vertex="1">
          <mxGeometry x="1200" y="640" width="290" height="300" as="geometry" />
        </mxCell>
        <mxCell id="-pohOnXNuDEOGiyrZGvC-2" value="Корабль" style="rounded=0;whiteSpace=wrap;html=1;align=center;horizontal=1;labelPosition=center;verticalLabelPosition=top;verticalAlign=bottom;fillColor=#f5f5f5;fontColor=#333333;strokeColor=#CCCCCC;fontStyle=1" parent="-pohOnXNuDEOGiyrZGvC-1" vertex="1">
          <mxGeometry x="770" y="130" width="415" height="210" as="geometry" />
        </mxCell>
        <mxCell id="-pohOnXNuDEOGiyrZGvC-3" value="Игровой контроллер" style="rounded=0;whiteSpace=wrap;html=1;align=center;horizontal=1;labelPosition=center;verticalLabelPosition=top;verticalAlign=bottom;fillColor=#f5f5f5;fontColor=#333333;strokeColor=#CCCCCC;fontStyle=1" parent="-pohOnXNuDEOGiyrZGvC-1" vertex="1">
          <mxGeometry x="410" y="700" width="300" height="250" as="geometry" />
        </mxCell>
        <mxCell id="-pohOnXNuDEOGiyrZGvC-5" style="edgeStyle=orthogonalEdgeStyle;rounded=0;orthogonalLoop=1;jettySize=auto;html=1;exitX=1;exitY=0.5;exitDx=0;exitDy=0;entryX=0;entryY=0.5;entryDx=0;entryDy=0;dashed=1;fillColor=#ffe6cc;strokeColor=#d79b00;" parent="-pohOnXNuDEOGiyrZGvC-1" source="-pohOnXNuDEOGiyrZGvC-13" target="-pohOnXNuDEOGiyrZGvC-34" edge="1">
          <mxGeometry relative="1" as="geometry">
            <Array as="points">
              <mxPoint x="860" y="905" />
            </Array>
          </mxGeometry>
        </mxCell>
        <mxCell id="-pohOnXNuDEOGiyrZGvC-6" value="метрики корабля" style="edgeLabel;html=1;align=center;verticalAlign=middle;resizable=0;points=[];" parent="-pohOnXNuDEOGiyrZGvC-5" vertex="1" connectable="0">
          <mxGeometry x="0.6411" y="5" relative="1" as="geometry">
            <mxPoint x="-1" y="-5" as="offset" />
          </mxGeometry>
        </mxCell>
        <mxCell id="-pohOnXNuDEOGiyrZGvC-7" value="Шина сообщний" style="rounded=0;whiteSpace=wrap;html=1;shadow=0;glass=0;labelPosition=center;verticalLabelPosition=top;align=center;verticalAlign=bottom;fillColor=#f5f5f5;fontColor=#333333;strokeColor=#CCCCCC;fontStyle=1" parent="-pohOnXNuDEOGiyrZGvC-1" vertex="1">
          <mxGeometry x="440" y="440" width="260" height="150" as="geometry" />
        </mxCell>
        <mxCell id="-pohOnXNuDEOGiyrZGvC-9" value="Генератор проблем" style="rounded=0;whiteSpace=wrap;html=1;align=center;horizontal=1;labelPosition=center;verticalLabelPosition=top;verticalAlign=bottom;fillColor=#f5f5f5;fontColor=#333333;strokeColor=#CCCCCC;fontStyle=1" parent="-pohOnXNuDEOGiyrZGvC-1" vertex="1">
          <mxGeometry x="135" y="130" width="365" height="210" as="geometry" />
        </mxCell>
        <mxCell id="-pohOnXNuDEOGiyrZGvC-12" value="сохраннение состояния" style="edgeStyle=orthogonalEdgeStyle;rounded=0;orthogonalLoop=1;jettySize=auto;html=1;exitX=0.25;exitY=0;exitDx=0;exitDy=0;startArrow=classic;startFill=1;dashed=1;dashPattern=1 4;entryX=0;entryY=0.5;entryDx=0;entryDy=0;entryPerimeter=0;" parent="-pohOnXNuDEOGiyrZGvC-1" source="-pohOnXNuDEOGiyrZGvC-13" target="-pohOnXNuDEOGiyrZGvC-47" edge="1">
          <mxGeometry relative="1" as="geometry">
            <Array as="points">
              <mxPoint x="970" y="210" />
              <mxPoint x="970" y="150" />
            </Array>
          </mxGeometry>
        </mxCell>
        <mxCell id="DAMzAsxv2v4DKMasLliF-28" style="edgeStyle=orthogonalEdgeStyle;rounded=0;orthogonalLoop=1;jettySize=auto;html=1;exitX=1;exitY=0.25;exitDx=0;exitDy=0;entryX=0;entryY=0.5;entryDx=0;entryDy=0;dashed=1;" parent="-pohOnXNuDEOGiyrZGvC-1" source="-pohOnXNuDEOGiyrZGvC-13" target="DAMzAsxv2v4DKMasLliF-21" edge="1">
          <mxGeometry relative="1" as="geometry">
            <Array as="points">
              <mxPoint x="885" y="820" />
            </Array>
          </mxGeometry>
        </mxCell>
        <mxCell id="DAMzAsxv2v4DKMasLliF-29" style="edgeStyle=orthogonalEdgeStyle;rounded=0;orthogonalLoop=1;jettySize=auto;html=1;entryX=0;entryY=0.5;entryDx=0;entryDy=0;dashed=1;exitX=1;exitY=0.25;exitDx=0;exitDy=0;" parent="-pohOnXNuDEOGiyrZGvC-1" source="-pohOnXNuDEOGiyrZGvC-13" target="DAMzAsxv2v4DKMasLliF-17" edge="1">
          <mxGeometry relative="1" as="geometry">
            <mxPoint x="890" y="285" as="sourcePoint" />
            <Array as="points">
              <mxPoint x="885" y="865" />
            </Array>
          </mxGeometry>
        </mxCell>
        <mxCell id="Y5h9rI-TQTiruQgf1Fa3-2" style="edgeStyle=orthogonalEdgeStyle;rounded=0;orthogonalLoop=1;jettySize=auto;html=1;exitX=0.75;exitY=0;exitDx=0;exitDy=0;entryX=0;entryY=0.75;entryDx=0;entryDy=0;dashed=1;dashPattern=1 4;" parent="-pohOnXNuDEOGiyrZGvC-1" source="-pohOnXNuDEOGiyrZGvC-13" target="-pohOnXNuDEOGiyrZGvC-17" edge="1">
          <mxGeometry relative="1" as="geometry">
            <mxPoint x="1030" y="259.7037037037037" as="targetPoint" />
          </mxGeometry>
        </mxCell>
        <mxCell id="Y5h9rI-TQTiruQgf1Fa3-4" value="освободить" style="edgeLabel;html=1;align=center;verticalAlign=middle;resizable=0;points=[];" parent="Y5h9rI-TQTiruQgf1Fa3-2" vertex="1" connectable="0">
          <mxGeometry x="-0.1609" y="2" relative="1" as="geometry">
            <mxPoint x="12" as="offset" />
          </mxGeometry>
        </mxCell>
        <mxCell id="GOW6Z6KdIB5SyexLeBnT-2" style="edgeStyle=orthogonalEdgeStyle;rounded=0;orthogonalLoop=1;jettySize=auto;html=1;exitX=1;exitY=0.25;exitDx=0;exitDy=0;entryX=0;entryY=0.5;entryDx=0;entryDy=0;dashed=1;" parent="-pohOnXNuDEOGiyrZGvC-1" source="-pohOnXNuDEOGiyrZGvC-13" target="GOW6Z6KdIB5SyexLeBnT-1" edge="1">
          <mxGeometry relative="1" as="geometry" />
        </mxCell>
        <mxCell id="-pohOnXNuDEOGiyrZGvC-13" value="Состояние" style="rounded=0;whiteSpace=wrap;html=1;labelPosition=center;verticalLabelPosition=top;align=center;verticalAlign=bottom;direction=south;" parent="-pohOnXNuDEOGiyrZGvC-1" vertex="1">
          <mxGeometry x="810" y="185" width="100" height="100" as="geometry" />
        </mxCell>
        <mxCell id="-pohOnXNuDEOGiyrZGvC-14" style="edgeStyle=orthogonalEdgeStyle;rounded=0;orthogonalLoop=1;jettySize=auto;html=1;exitX=0.25;exitY=1;exitDx=0;exitDy=0;entryX=0;entryY=0.5;entryDx=0;entryDy=0;jumpStyle=gap;" parent="-pohOnXNuDEOGiyrZGvC-1" source="-pohOnXNuDEOGiyrZGvC-17" target="DAMzAsxv2v4DKMasLliF-40" edge="1">
          <mxGeometry relative="1" as="geometry">
            <Array as="points">
              <mxPoint x="1057" y="600" />
              <mxPoint x="420" y="600" />
              <mxPoint x="420" y="560" />
            </Array>
          </mxGeometry>
        </mxCell>
        <mxCell id="-pohOnXNuDEOGiyrZGvC-15" value="Новый ресурс доступен" style="edgeLabel;html=1;align=center;verticalAlign=middle;resizable=0;points=[];" parent="-pohOnXNuDEOGiyrZGvC-14" vertex="1" connectable="0">
          <mxGeometry x="-0.0074" relative="1" as="geometry">
            <mxPoint x="134" y="-10" as="offset" />
          </mxGeometry>
        </mxCell>
        <mxCell id="-pohOnXNuDEOGiyrZGvC-16" style="edgeStyle=orthogonalEdgeStyle;rounded=0;orthogonalLoop=1;jettySize=auto;html=1;exitX=1;exitY=0.5;exitDx=0;exitDy=0;startArrow=classic;startFill=1;dashed=1;dashPattern=1 4;" parent="-pohOnXNuDEOGiyrZGvC-1" source="-pohOnXNuDEOGiyrZGvC-17" target="-pohOnXNuDEOGiyrZGvC-46" edge="1">
          <mxGeometry relative="1" as="geometry" />
        </mxCell>
        <mxCell id="GOW6Z6KdIB5SyexLeBnT-3" value="сохранеие состояния" style="edgeLabel;html=1;align=center;verticalAlign=middle;resizable=0;points=[];" parent="-pohOnXNuDEOGiyrZGvC-16" vertex="1" connectable="0">
          <mxGeometry x="0.0211" relative="1" as="geometry">
            <mxPoint x="-1" y="-1" as="offset" />
          </mxGeometry>
        </mxCell>
        <mxCell id="DAMzAsxv2v4DKMasLliF-27" style="edgeStyle=orthogonalEdgeStyle;rounded=0;orthogonalLoop=1;jettySize=auto;html=1;exitX=0.75;exitY=1;exitDx=0;exitDy=0;entryX=0;entryY=0.5;entryDx=0;entryDy=0;dashed=1;" parent="-pohOnXNuDEOGiyrZGvC-1" source="-pohOnXNuDEOGiyrZGvC-17" target="DAMzAsxv2v4DKMasLliF-22" edge="1">
          <mxGeometry relative="1" as="geometry">
            <mxPoint x="1100" y="710" as="targetPoint" />
          </mxGeometry>
        </mxCell>
        <mxCell id="Y5h9rI-TQTiruQgf1Fa3-0" style="edgeStyle=orthogonalEdgeStyle;rounded=0;orthogonalLoop=1;jettySize=auto;html=1;exitX=0;exitY=0.5;exitDx=0;exitDy=0;dashed=1;dashPattern=1 4;" parent="-pohOnXNuDEOGiyrZGvC-1" source="-pohOnXNuDEOGiyrZGvC-17" target="-pohOnXNuDEOGiyrZGvC-13" edge="1">
          <mxGeometry relative="1" as="geometry" />
        </mxCell>
        <mxCell id="Y5h9rI-TQTiruQgf1Fa3-3" value="выделен" style="edgeLabel;html=1;align=center;verticalAlign=middle;resizable=0;points=[];" parent="Y5h9rI-TQTiruQgf1Fa3-0" vertex="1" connectable="0">
          <mxGeometry x="0.0068" y="-1" relative="1" as="geometry">
            <mxPoint as="offset" />
          </mxGeometry>
        </mxCell>
        <mxCell id="-pohOnXNuDEOGiyrZGvC-17" value="Ресурсы" style="rounded=0;whiteSpace=wrap;html=1;labelPosition=center;verticalLabelPosition=top;align=center;verticalAlign=bottom;" parent="-pohOnXNuDEOGiyrZGvC-1" vertex="1">
          <mxGeometry x="1035" y="185" width="90" height="100" as="geometry" />
        </mxCell>
        <mxCell id="-pohOnXNuDEOGiyrZGvC-22" style="edgeStyle=orthogonalEdgeStyle;rounded=0;orthogonalLoop=1;jettySize=auto;html=1;exitX=1;exitY=0.5;exitDx=0;exitDy=0;" parent="-pohOnXNuDEOGiyrZGvC-1" source="-pohOnXNuDEOGiyrZGvC-23" edge="1">
          <mxGeometry relative="1" as="geometry">
            <mxPoint x="810" y="200" as="targetPoint" />
            <Array as="points">
              <mxPoint x="730" y="470" />
              <mxPoint x="730" y="200" />
            </Array>
          </mxGeometry>
        </mxCell>
        <mxCell id="-pohOnXNuDEOGiyrZGvC-23" value="очередь проблем" style="rounded=0;whiteSpace=wrap;html=1;" parent="-pohOnXNuDEOGiyrZGvC-1" vertex="1">
          <mxGeometry x="467.5" y="460" width="205" height="20" as="geometry" />
        </mxCell>
        <mxCell id="-pohOnXNuDEOGiyrZGvC-25" value="очередь запросов к ресурсам" style="rounded=0;whiteSpace=wrap;html=1;" parent="-pohOnXNuDEOGiyrZGvC-1" vertex="1">
          <mxGeometry x="468.75" y="520" width="202.5" height="20" as="geometry" />
        </mxCell>
        <mxCell id="-pohOnXNuDEOGiyrZGvC-29" value="Новый ход" style="rounded=0;whiteSpace=wrap;html=1;" parent="-pohOnXNuDEOGiyrZGvC-1" vertex="1">
          <mxGeometry x="440" y="725" width="240" height="30" as="geometry" />
        </mxCell>
        <mxCell id="DAMzAsxv2v4DKMasLliF-31" style="edgeStyle=orthogonalEdgeStyle;rounded=0;orthogonalLoop=1;jettySize=auto;html=1;exitX=1;exitY=0.3333333333333333;exitDx=0;exitDy=0;exitPerimeter=0;entryX=0.75;entryY=1;entryDx=0;entryDy=0;dashed=1;dashPattern=1 1;" parent="-pohOnXNuDEOGiyrZGvC-1" source="-pohOnXNuDEOGiyrZGvC-31" target="DAMzAsxv2v4DKMasLliF-16" edge="1">
          <mxGeometry relative="1" as="geometry">
            <Array as="points">
              <mxPoint x="1070" y="1050" />
              <mxPoint x="1070" y="990" />
              <mxPoint x="1418" y="990" />
            </Array>
          </mxGeometry>
        </mxCell>
        <mxCell id="DAMzAsxv2v4DKMasLliF-32" value="запрос метрик" style="edgeLabel;html=1;align=center;verticalAlign=middle;resizable=0;points=[];" parent="DAMzAsxv2v4DKMasLliF-31" vertex="1" connectable="0">
          <mxGeometry x="-0.1824" y="4" relative="1" as="geometry">
            <mxPoint x="98" y="4" as="offset" />
          </mxGeometry>
        </mxCell>
        <mxCell id="-pohOnXNuDEOGiyrZGvC-31" value="Игрок" style="shape=umlActor;verticalLabelPosition=bottom;verticalAlign=top;html=1;outlineConnect=0;" parent="-pohOnXNuDEOGiyrZGvC-1" vertex="1">
          <mxGeometry x="960" y="1030" width="30" height="60" as="geometry" />
        </mxCell>
        <mxCell id="-pohOnXNuDEOGiyrZGvC-32" style="edgeStyle=orthogonalEdgeStyle;rounded=0;orthogonalLoop=1;jettySize=auto;html=1;exitX=0.5;exitY=1;exitDx=0;exitDy=0;dashed=1;dashPattern=1 1;" parent="-pohOnXNuDEOGiyrZGvC-1" source="DAMzAsxv2v4DKMasLliF-16" target="-pohOnXNuDEOGiyrZGvC-31" edge="1">
          <mxGeometry relative="1" as="geometry">
            <Array as="points">
              <mxPoint x="1345" y="970" />
              <mxPoint x="975" y="970" />
            </Array>
          </mxGeometry>
        </mxCell>
        <mxCell id="DAMzAsxv2v4DKMasLliF-30" value="текущие метрики" style="edgeLabel;html=1;align=center;verticalAlign=middle;resizable=0;points=[];" parent="-pohOnXNuDEOGiyrZGvC-32" vertex="1" connectable="0">
          <mxGeometry x="-0.3959" y="-1" relative="1" as="geometry">
            <mxPoint as="offset" />
          </mxGeometry>
        </mxCell>
        <mxCell id="BldTh-OTkvdOwdGsdVuB-0" style="edgeStyle=orthogonalEdgeStyle;rounded=0;orthogonalLoop=1;jettySize=auto;html=1;exitX=0.25;exitY=1;exitDx=0;exitDy=0;entryX=0;entryY=0.5;entryDx=0;entryDy=0;dashed=1;" parent="-pohOnXNuDEOGiyrZGvC-1" source="-pohOnXNuDEOGiyrZGvC-34" target="-pohOnXNuDEOGiyrZGvC-36" edge="1">
          <mxGeometry relative="1" as="geometry">
            <Array as="points">
              <mxPoint x="1290" y="950" />
              <mxPoint x="850" y="950" />
              <mxPoint x="850" y="1020" />
              <mxPoint x="310" y="1020" />
              <mxPoint x="310" y="880" />
            </Array>
          </mxGeometry>
        </mxCell>
        <mxCell id="BldTh-OTkvdOwdGsdVuB-5" value="ход игрока" style="edgeLabel;html=1;align=center;verticalAlign=middle;resizable=0;points=[];" parent="BldTh-OTkvdOwdGsdVuB-0" vertex="1" connectable="0">
          <mxGeometry x="-0.1261" relative="1" as="geometry">
            <mxPoint as="offset" />
          </mxGeometry>
        </mxCell>
        <mxCell id="-pohOnXNuDEOGiyrZGvC-34" value="Доступен инпут от игрока" style="rounded=0;whiteSpace=wrap;html=1;" parent="-pohOnXNuDEOGiyrZGvC-1" vertex="1">
          <mxGeometry x="1230" y="890" width="230" height="30" as="geometry" />
        </mxCell>
        <mxCell id="-pohOnXNuDEOGiyrZGvC-36" value="Активировать вновь запрошенные ресурсы" style="rounded=0;whiteSpace=wrap;html=1;" parent="-pohOnXNuDEOGiyrZGvC-1" vertex="1">
          <mxGeometry x="440" y="780" width="240" height="30" as="geometry" />
        </mxCell>
        <mxCell id="DAMzAsxv2v4DKMasLliF-46" style="edgeStyle=orthogonalEdgeStyle;rounded=0;orthogonalLoop=1;jettySize=auto;html=1;exitX=0.5;exitY=1;exitDx=0;exitDy=0;entryX=0.5;entryY=0;entryDx=0;entryDy=0;" parent="-pohOnXNuDEOGiyrZGvC-1" source="-pohOnXNuDEOGiyrZGvC-37" target="-pohOnXNuDEOGiyrZGvC-39" edge="1">
          <mxGeometry relative="1" as="geometry" />
        </mxCell>
        <mxCell id="-pohOnXNuDEOGiyrZGvC-37" value="Ожидаем выделение ресурса" style="rounded=0;whiteSpace=wrap;html=1;" parent="-pohOnXNuDEOGiyrZGvC-1" vertex="1">
          <mxGeometry x="440" y="840" width="240" height="30" as="geometry" />
        </mxCell>
        <mxCell id="-pohOnXNuDEOGiyrZGvC-39" value="Ход завершен" style="rounded=0;whiteSpace=wrap;html=1;" parent="-pohOnXNuDEOGiyrZGvC-1" vertex="1">
          <mxGeometry x="440" y="890" width="240" height="30" as="geometry" />
        </mxCell>
        <mxCell id="-pohOnXNuDEOGiyrZGvC-40" value="" style="group" parent="-pohOnXNuDEOGiyrZGvC-1" vertex="1" connectable="0">
          <mxGeometry x="80" y="1040" width="390" height="30" as="geometry" />
        </mxCell>
        <mxCell id="-pohOnXNuDEOGiyrZGvC-41" value="" style="endArrow=classic;html=1;rounded=0;" parent="-pohOnXNuDEOGiyrZGvC-40" edge="1">
          <mxGeometry width="50" height="50" relative="1" as="geometry">
            <mxPoint y="14.410000000000082" as="sourcePoint" />
            <mxPoint x="70" y="14.410000000000082" as="targetPoint" />
          </mxGeometry>
        </mxCell>
        <mxCell id="-pohOnXNuDEOGiyrZGvC-42" value="Асинхронные запросы (черз шину сообщений)" style="text;html=1;align=left;verticalAlign=middle;whiteSpace=wrap;rounded=0;fontStyle=0" parent="-pohOnXNuDEOGiyrZGvC-40" vertex="1">
          <mxGeometry x="80" width="320" height="30" as="geometry" />
        </mxCell>
        <mxCell id="-pohOnXNuDEOGiyrZGvC-43" value="" style="group" parent="-pohOnXNuDEOGiyrZGvC-1" vertex="1" connectable="0">
          <mxGeometry x="80" y="1080" width="390" height="30" as="geometry" />
        </mxCell>
        <mxCell id="-pohOnXNuDEOGiyrZGvC-44" value="" style="endArrow=classic;html=1;rounded=0;dashed=1;dashPattern=1 1;" parent="-pohOnXNuDEOGiyrZGvC-43" edge="1">
          <mxGeometry width="50" height="50" relative="1" as="geometry">
            <mxPoint y="14.410000000000082" as="sourcePoint" />
            <mxPoint x="70" y="14.410000000000082" as="targetPoint" />
          </mxGeometry>
        </mxCell>
        <mxCell id="-pohOnXNuDEOGiyrZGvC-45" value="Синхронные запросы (REST, в коде await)" style="text;html=1;align=left;verticalAlign=middle;whiteSpace=wrap;rounded=0;" parent="-pohOnXNuDEOGiyrZGvC-43" vertex="1">
          <mxGeometry x="80" width="320" height="30" as="geometry" />
        </mxCell>
        <mxCell id="-pohOnXNuDEOGiyrZGvC-46" value="БД&lt;div&gt;SQL&lt;/div&gt;" style="shape=cylinder3;whiteSpace=wrap;html=1;boundedLbl=1;backgroundOutline=1;size=7.428571428571388;" parent="-pohOnXNuDEOGiyrZGvC-1" vertex="1">
          <mxGeometry x="1315" y="200" width="52.5" height="70" as="geometry" />
        </mxCell>
        <mxCell id="-pohOnXNuDEOGiyrZGvC-47" value="БД&lt;div&gt;NoSQL&lt;/div&gt;" style="shape=cylinder3;whiteSpace=wrap;html=1;boundedLbl=1;backgroundOutline=1;size=7.428571428571388;" parent="-pohOnXNuDEOGiyrZGvC-1" vertex="1">
          <mxGeometry x="1315" y="115" width="52.5" height="70" as="geometry" />
        </mxCell>
        <mxCell id="DAMzAsxv2v4DKMasLliF-2" style="edgeStyle=orthogonalEdgeStyle;rounded=0;orthogonalLoop=1;jettySize=auto;html=1;exitX=1;exitY=0.25;exitDx=0;exitDy=0;entryX=0;entryY=0.5;entryDx=0;entryDy=0;jumpStyle=gap;" parent="-pohOnXNuDEOGiyrZGvC-1" source="DAMzAsxv2v4DKMasLliF-0" target="DAMzAsxv2v4DKMasLliF-9" edge="1">
          <mxGeometry relative="1" as="geometry">
            <Array as="points">
              <mxPoint x="710" y="495" />
              <mxPoint x="710" y="80" />
              <mxPoint x="90" y="80" />
              <mxPoint x="90" y="185" />
            </Array>
          </mxGeometry>
        </mxCell>
        <mxCell id="DAMzAsxv2v4DKMasLliF-3" value="новый ход" style="edgeLabel;html=1;align=center;verticalAlign=middle;resizable=0;points=[];" parent="DAMzAsxv2v4DKMasLliF-2" vertex="1" connectable="0">
          <mxGeometry x="0.3917" y="-1" relative="1" as="geometry">
            <mxPoint x="-21" y="1" as="offset" />
          </mxGeometry>
        </mxCell>
        <mxCell id="DAMzAsxv2v4DKMasLliF-0" value="события хода игры" style="rounded=0;whiteSpace=wrap;html=1;" parent="-pohOnXNuDEOGiyrZGvC-1" vertex="1">
          <mxGeometry x="467.5" y="490" width="205" height="20" as="geometry" />
        </mxCell>
        <mxCell id="DAMzAsxv2v4DKMasLliF-47" style="edgeStyle=orthogonalEdgeStyle;rounded=0;orthogonalLoop=1;jettySize=auto;html=1;exitX=0.5;exitY=1;exitDx=0;exitDy=0;entryX=0.5;entryY=0;entryDx=0;entryDy=0;" parent="-pohOnXNuDEOGiyrZGvC-1" source="DAMzAsxv2v4DKMasLliF-9" target="DAMzAsxv2v4DKMasLliF-11" edge="1">
          <mxGeometry relative="1" as="geometry" />
        </mxCell>
        <mxCell id="BldTh-OTkvdOwdGsdVuB-1" style="edgeStyle=orthogonalEdgeStyle;rounded=0;orthogonalLoop=1;jettySize=auto;html=1;exitX=1;exitY=0.5;exitDx=0;exitDy=0;entryX=1;entryY=0.5;entryDx=0;entryDy=0;fillColor=#e1d5e7;strokeColor=#9673a6;" parent="-pohOnXNuDEOGiyrZGvC-1" source="DAMzAsxv2v4DKMasLliF-9" target="DAMzAsxv2v4DKMasLliF-11" edge="1">
          <mxGeometry relative="1" as="geometry" />
        </mxCell>
        <mxCell id="BldTh-OTkvdOwdGsdVuB-2" value="TroubleCoin++" style="edgeLabel;html=1;align=center;verticalAlign=middle;resizable=0;points=[];" parent="BldTh-OTkvdOwdGsdVuB-1" vertex="1" connectable="0">
          <mxGeometry x="0.0058" y="-1" relative="1" as="geometry">
            <mxPoint x="41" as="offset" />
          </mxGeometry>
        </mxCell>
        <mxCell id="DAMzAsxv2v4DKMasLliF-9" value="Ожидаем событе начала хода" style="rounded=0;whiteSpace=wrap;html=1;" parent="-pohOnXNuDEOGiyrZGvC-1" vertex="1">
          <mxGeometry x="160" y="170" width="240" height="30" as="geometry" />
        </mxCell>
        <mxCell id="DAMzAsxv2v4DKMasLliF-48" style="edgeStyle=orthogonalEdgeStyle;rounded=0;orthogonalLoop=1;jettySize=auto;html=1;exitX=0.5;exitY=1;exitDx=0;exitDy=0;entryX=0.5;entryY=0;entryDx=0;entryDy=0;" parent="-pohOnXNuDEOGiyrZGvC-1" source="DAMzAsxv2v4DKMasLliF-11" target="DAMzAsxv2v4DKMasLliF-12" edge="1">
          <mxGeometry relative="1" as="geometry" />
        </mxCell>
        <mxCell id="DAMzAsxv2v4DKMasLliF-11" value="Генератор проблем (randomizer)" style="rounded=0;whiteSpace=wrap;html=1;" parent="-pohOnXNuDEOGiyrZGvC-1" vertex="1">
          <mxGeometry x="160" y="220" width="240" height="30" as="geometry" />
        </mxCell>
        <mxCell id="DAMzAsxv2v4DKMasLliF-12" value="Публикуем событие" style="rounded=0;whiteSpace=wrap;html=1;" parent="-pohOnXNuDEOGiyrZGvC-1" vertex="1">
          <mxGeometry x="160" y="270" width="240" height="30" as="geometry" />
        </mxCell>
        <mxCell id="-pohOnXNuDEOGiyrZGvC-8" style="edgeStyle=orthogonalEdgeStyle;rounded=0;orthogonalLoop=1;jettySize=auto;html=1;exitX=1;exitY=0.5;exitDx=0;exitDy=0;entryX=0;entryY=0.5;entryDx=0;entryDy=0;" parent="-pohOnXNuDEOGiyrZGvC-1" source="DAMzAsxv2v4DKMasLliF-12" target="-pohOnXNuDEOGiyrZGvC-23" edge="1">
          <mxGeometry relative="1" as="geometry">
            <Array as="points">
              <mxPoint x="520" y="285" />
              <mxPoint x="520" y="380" />
              <mxPoint x="320" y="380" />
              <mxPoint x="320" y="470" />
            </Array>
          </mxGeometry>
        </mxCell>
        <mxCell id="DAMzAsxv2v4DKMasLliF-4" value="отправляем проблему или&amp;nbsp;&lt;div&gt;сообщение, что новых проблем нет&lt;/div&gt;" style="edgeLabel;html=1;align=left;verticalAlign=middle;resizable=0;points=[];" parent="-pohOnXNuDEOGiyrZGvC-8" vertex="1" connectable="0">
          <mxGeometry x="-0.6049" y="2" relative="1" as="geometry">
            <mxPoint x="-202" y="66" as="offset" />
          </mxGeometry>
        </mxCell>
        <mxCell id="DAMzAsxv2v4DKMasLliF-15" value="&lt;b&gt;&lt;i&gt;WS / SignalR&lt;/i&gt;&lt;/b&gt;" style="text;html=1;align=center;verticalAlign=middle;resizable=0;points=[];autosize=1;strokeColor=none;fillColor=none;" parent="-pohOnXNuDEOGiyrZGvC-1" vertex="1">
          <mxGeometry x="910" y="695" width="100" height="30" as="geometry" />
        </mxCell>
        <mxCell id="DAMzAsxv2v4DKMasLliF-17" value="Текущий ход (номер дня)" style="rounded=0;whiteSpace=wrap;html=1;" parent="-pohOnXNuDEOGiyrZGvC-1" vertex="1">
          <mxGeometry x="1230" y="850" width="230" height="30" as="geometry" />
        </mxCell>
        <mxCell id="DAMzAsxv2v4DKMasLliF-20" value="Наличие проблем" style="rounded=0;whiteSpace=wrap;html=1;" parent="-pohOnXNuDEOGiyrZGvC-1" vertex="1">
          <mxGeometry x="1230" y="760" width="230" height="30" as="geometry" />
        </mxCell>
        <mxCell id="DAMzAsxv2v4DKMasLliF-21" value="Используемые ресурсы" style="rounded=0;whiteSpace=wrap;html=1;" parent="-pohOnXNuDEOGiyrZGvC-1" vertex="1">
          <mxGeometry x="1230" y="805" width="230" height="30" as="geometry" />
        </mxCell>
        <mxCell id="DAMzAsxv2v4DKMasLliF-22" value="Доступные ресурсы" style="rounded=0;whiteSpace=wrap;html=1;" parent="-pohOnXNuDEOGiyrZGvC-1" vertex="1">
          <mxGeometry x="1226.25" y="665" width="230" height="30" as="geometry" />
        </mxCell>
        <mxCell id="DAMzAsxv2v4DKMasLliF-24" style="edgeStyle=orthogonalEdgeStyle;rounded=0;orthogonalLoop=1;jettySize=auto;html=1;exitX=1;exitY=0.25;exitDx=0;exitDy=0;entryX=0;entryY=0.5;entryDx=0;entryDy=0;dashed=1;" parent="-pohOnXNuDEOGiyrZGvC-1" source="-pohOnXNuDEOGiyrZGvC-13" target="DAMzAsxv2v4DKMasLliF-20" edge="1">
          <mxGeometry relative="1" as="geometry">
            <Array as="points">
              <mxPoint x="885" y="775" />
            </Array>
          </mxGeometry>
        </mxCell>
        <mxCell id="-pohOnXNuDEOGiyrZGvC-24" style="edgeStyle=orthogonalEdgeStyle;rounded=0;orthogonalLoop=1;jettySize=auto;html=1;exitX=1;exitY=0.5;exitDx=0;exitDy=0;jumpStyle=gap;entryX=0.009;entryY=0.932;entryDx=0;entryDy=0;entryPerimeter=0;" parent="-pohOnXNuDEOGiyrZGvC-1" source="-pohOnXNuDEOGiyrZGvC-25" target="-pohOnXNuDEOGiyrZGvC-17" edge="1">
          <mxGeometry relative="1" as="geometry">
            <mxPoint x="1030" y="280" as="targetPoint" />
            <Array as="points">
              <mxPoint x="990" y="530" />
              <mxPoint x="990" y="278" />
            </Array>
          </mxGeometry>
        </mxCell>
        <mxCell id="DAMzAsxv2v4DKMasLliF-34" value="&lt;b&gt;&lt;i&gt;REST API&lt;/i&gt;&lt;/b&gt;" style="text;html=1;align=center;verticalAlign=middle;resizable=0;points=[];autosize=1;strokeColor=none;fillColor=none;" parent="-pohOnXNuDEOGiyrZGvC-1" vertex="1">
          <mxGeometry x="1340" y="945" width="80" height="30" as="geometry" />
        </mxCell>
        <mxCell id="DAMzAsxv2v4DKMasLliF-36" style="edgeStyle=orthogonalEdgeStyle;rounded=0;orthogonalLoop=1;jettySize=auto;html=1;exitX=1;exitY=0.75;exitDx=0;exitDy=0;entryX=0.75;entryY=1;entryDx=0;entryDy=0;fillColor=#f8cecc;strokeColor=#000000;" parent="-pohOnXNuDEOGiyrZGvC-1" source="DAMzAsxv2v4DKMasLliF-0" target="-pohOnXNuDEOGiyrZGvC-13" edge="1">
          <mxGeometry relative="1" as="geometry" />
        </mxCell>
        <mxCell id="Y5h9rI-TQTiruQgf1Fa3-7" value="ход&lt;div&gt;завершен&lt;/div&gt;" style="edgeLabel;html=1;align=center;verticalAlign=middle;resizable=0;points=[];" parent="DAMzAsxv2v4DKMasLliF-36" vertex="1" connectable="0">
          <mxGeometry x="0.7386" y="-1" relative="1" as="geometry">
            <mxPoint x="10" y="-21" as="offset" />
          </mxGeometry>
        </mxCell>
        <mxCell id="DAMzAsxv2v4DKMasLliF-45" style="edgeStyle=orthogonalEdgeStyle;rounded=0;orthogonalLoop=1;jettySize=auto;html=1;exitX=1;exitY=0.5;exitDx=0;exitDy=0;entryX=0;entryY=0.5;entryDx=0;entryDy=0;jumpStyle=gap;" parent="-pohOnXNuDEOGiyrZGvC-1" source="DAMzAsxv2v4DKMasLliF-40" target="-pohOnXNuDEOGiyrZGvC-37" edge="1">
          <mxGeometry relative="1" as="geometry">
            <Array as="points">
              <mxPoint x="750" y="560" />
              <mxPoint x="750" y="650" />
              <mxPoint x="390" y="650" />
              <mxPoint x="390" y="855" />
            </Array>
          </mxGeometry>
        </mxCell>
        <mxCell id="DAMzAsxv2v4DKMasLliF-40" value="события ресурсов (ответ)" style="rounded=0;whiteSpace=wrap;html=1;" parent="-pohOnXNuDEOGiyrZGvC-1" vertex="1">
          <mxGeometry x="468.75" y="550" width="202.5" height="20" as="geometry" />
        </mxCell>
        <mxCell id="DAMzAsxv2v4DKMasLliF-1" style="edgeStyle=orthogonalEdgeStyle;rounded=0;orthogonalLoop=1;jettySize=auto;html=1;exitX=1;exitY=0.5;exitDx=0;exitDy=0;entryX=0;entryY=0.25;entryDx=0;entryDy=0;jumpStyle=gap;" parent="-pohOnXNuDEOGiyrZGvC-1" source="-pohOnXNuDEOGiyrZGvC-29" target="DAMzAsxv2v4DKMasLliF-0" edge="1">
          <mxGeometry relative="1" as="geometry">
            <Array as="points">
              <mxPoint x="720" y="740" />
              <mxPoint x="720" y="640" />
              <mxPoint x="360" y="640" />
              <mxPoint x="360" y="495" />
            </Array>
          </mxGeometry>
        </mxCell>
        <mxCell id="DAMzAsxv2v4DKMasLliF-43" value="Redis/Mongo" style="text;html=1;align=left;verticalAlign=middle;resizable=0;points=[];autosize=1;strokeColor=none;fillColor=none;" parent="-pohOnXNuDEOGiyrZGvC-1" vertex="1">
          <mxGeometry x="1370" y="135" width="90" height="30" as="geometry" />
        </mxCell>
        <mxCell id="DAMzAsxv2v4DKMasLliF-44" value="Postgre" style="text;html=1;align=left;verticalAlign=middle;resizable=0;points=[];autosize=1;strokeColor=none;fillColor=none;" parent="-pohOnXNuDEOGiyrZGvC-1" vertex="1">
          <mxGeometry x="1370" y="220" width="60" height="30" as="geometry" />
        </mxCell>
        <mxCell id="DAMzAsxv2v4DKMasLliF-41" style="edgeStyle=orthogonalEdgeStyle;rounded=0;orthogonalLoop=1;jettySize=auto;html=1;exitX=1;exitY=0.5;exitDx=0;exitDy=0;entryX=0;entryY=0.75;entryDx=0;entryDy=0;jumpStyle=gap;" parent="-pohOnXNuDEOGiyrZGvC-1" source="-pohOnXNuDEOGiyrZGvC-39" target="DAMzAsxv2v4DKMasLliF-0" edge="1">
          <mxGeometry relative="1" as="geometry">
            <Array as="points">
              <mxPoint x="730" y="905" />
              <mxPoint x="730" y="630" />
              <mxPoint x="370" y="630" />
              <mxPoint x="370" y="505" />
            </Array>
          </mxGeometry>
        </mxCell>
        <mxCell id="-pohOnXNuDEOGiyrZGvC-35" style="edgeStyle=orthogonalEdgeStyle;rounded=0;orthogonalLoop=1;jettySize=auto;html=1;exitX=1;exitY=0.5;exitDx=0;exitDy=0;entryX=0;entryY=0.5;entryDx=0;entryDy=0;startArrow=none;startFill=0;jumpStyle=gap;" parent="-pohOnXNuDEOGiyrZGvC-1" source="-pohOnXNuDEOGiyrZGvC-36" target="-pohOnXNuDEOGiyrZGvC-25" edge="1">
          <mxGeometry relative="1" as="geometry">
            <mxPoint x="692" y="800" as="sourcePoint" />
            <mxPoint x="479.5" y="545" as="targetPoint" />
            <Array as="points">
              <mxPoint x="680" y="800" />
              <mxPoint x="740" y="800" />
              <mxPoint x="740" y="620" />
              <mxPoint x="410" y="620" />
              <mxPoint x="410" y="530" />
            </Array>
          </mxGeometry>
        </mxCell>
        <mxCell id="GOW6Z6KdIB5SyexLeBnT-0" value="изменили расстояние&lt;div&gt;до цели&lt;/div&gt;" style="text;html=1;align=center;verticalAlign=middle;whiteSpace=wrap;rounded=0;" parent="-pohOnXNuDEOGiyrZGvC-1" vertex="1">
          <mxGeometry x="830" y="210" width="60" height="50" as="geometry" />
        </mxCell>
        <mxCell id="GOW6Z6KdIB5SyexLeBnT-1" value="Борт. журнал" style="rounded=0;whiteSpace=wrap;html=1;" parent="-pohOnXNuDEOGiyrZGvC-1" vertex="1">
          <mxGeometry x="1230" y="710" width="230" height="30" as="geometry" />
        </mxCell>
        <mxCell id="axiQ_8GMJkNkPprRo8FJ-0" value="" style="group" parent="-pohOnXNuDEOGiyrZGvC-1" vertex="1" connectable="0">
          <mxGeometry x="80" y="1120" width="390" height="30" as="geometry" />
        </mxCell>
        <mxCell id="axiQ_8GMJkNkPprRo8FJ-1" value="" style="endArrow=classic;html=1;rounded=0;dashed=1;" parent="axiQ_8GMJkNkPprRo8FJ-0" edge="1">
          <mxGeometry width="50" height="50" relative="1" as="geometry">
            <mxPoint y="14.410000000000082" as="sourcePoint" />
            <mxPoint x="70" y="14.410000000000082" as="targetPoint" />
          </mxGeometry>
        </mxCell>
        <mxCell id="axiQ_8GMJkNkPprRo8FJ-2" value="Обновление по подписке (WebSocket / SignalR)" style="text;html=1;align=left;verticalAlign=middle;whiteSpace=wrap;rounded=0;" parent="axiQ_8GMJkNkPprRo8FJ-0" vertex="1">
          <mxGeometry x="80" width="320" height="30" as="geometry" />
        </mxCell>
      </root>
    </mxGraphModel>
  </diagram>
  <diagram id="_Rr_jfPgxbY-f4Ny-f61" name="v.0.0.0.1">
    <mxGraphModel dx="838" dy="552" grid="1" gridSize="10" guides="1" tooltips="1" connect="1" arrows="1" fold="1" page="1" pageScale="1" pageWidth="1920" pageHeight="1200" math="0" shadow="0">
      <root>
        <mxCell id="0" />
        <mxCell id="1" parent="0" />
        <mxCell id="o6NXRrJ3ZICEJUwtRlCb-4" value="Корабль" style="rounded=0;whiteSpace=wrap;html=1;align=center;horizontal=1;labelPosition=center;verticalLabelPosition=top;verticalAlign=bottom;fillColor=#f5f5f5;fontColor=#333333;strokeColor=#CCCCCC;fontStyle=1" parent="1" vertex="1">
          <mxGeometry x="765" y="170" width="415" height="210" as="geometry" />
        </mxCell>
        <mxCell id="o6NXRrJ3ZICEJUwtRlCb-6" value="Игровой контроллер" style="rounded=0;whiteSpace=wrap;html=1;align=center;horizontal=1;labelPosition=center;verticalLabelPosition=top;verticalAlign=bottom;fillColor=#f5f5f5;fontColor=#333333;strokeColor=#CCCCCC;fontStyle=1" parent="1" vertex="1">
          <mxGeometry x="410" y="600" width="300" height="370" as="geometry" />
        </mxCell>
        <mxCell id="o6NXRrJ3ZICEJUwtRlCb-41" style="edgeStyle=orthogonalEdgeStyle;rounded=0;orthogonalLoop=1;jettySize=auto;html=1;exitX=1;exitY=0.5;exitDx=0;exitDy=0;entryX=0.75;entryY=1;entryDx=0;entryDy=0;dashed=1;" parent="1" source="o6NXRrJ3ZICEJUwtRlCb-40" target="o6NXRrJ3ZICEJUwtRlCb-7" edge="1">
          <mxGeometry relative="1" as="geometry" />
        </mxCell>
        <mxCell id="o6NXRrJ3ZICEJUwtRlCb-21" style="edgeStyle=orthogonalEdgeStyle;rounded=0;orthogonalLoop=1;jettySize=auto;html=1;exitX=0.366;exitY=0.998;exitDx=0;exitDy=0;entryX=1;entryY=0.5;entryDx=0;entryDy=0;exitPerimeter=0;dashed=1;" parent="1" source="o6NXRrJ3ZICEJUwtRlCb-7" target="o6NXRrJ3ZICEJUwtRlCb-23" edge="1">
          <mxGeometry relative="1" as="geometry" />
        </mxCell>
        <mxCell id="o6NXRrJ3ZICEJUwtRlCb-24" value="метрики корабля" style="edgeLabel;html=1;align=center;verticalAlign=middle;resizable=0;points=[];" parent="o6NXRrJ3ZICEJUwtRlCb-21" vertex="1" connectable="0">
          <mxGeometry x="0.6411" y="5" relative="1" as="geometry">
            <mxPoint x="1" y="10" as="offset" />
          </mxGeometry>
        </mxCell>
        <mxCell id="o6NXRrJ3ZICEJUwtRlCb-11" value="Шина сообщний" style="rounded=0;whiteSpace=wrap;html=1;shadow=0;glass=0;labelPosition=center;verticalLabelPosition=top;align=center;verticalAlign=bottom;fillColor=#f5f5f5;fontColor=#333333;strokeColor=#CCCCCC;fontStyle=1" parent="1" vertex="1">
          <mxGeometry x="440" y="440" width="260" height="90" as="geometry" />
        </mxCell>
        <mxCell id="o6NXRrJ3ZICEJUwtRlCb-26" style="edgeStyle=orthogonalEdgeStyle;rounded=0;orthogonalLoop=1;jettySize=auto;html=1;exitX=0.75;exitY=1;exitDx=0;exitDy=0;entryX=0;entryY=0.5;entryDx=0;entryDy=0;" parent="1" source="o6NXRrJ3ZICEJUwtRlCb-5" target="o6NXRrJ3ZICEJUwtRlCb-17" edge="1">
          <mxGeometry relative="1" as="geometry" />
        </mxCell>
        <mxCell id="o6NXRrJ3ZICEJUwtRlCb-5" value="Генератор проблем" style="rounded=0;whiteSpace=wrap;html=1;align=center;horizontal=1;labelPosition=center;verticalLabelPosition=top;verticalAlign=bottom;fillColor=#f5f5f5;fontColor=#333333;strokeColor=#CCCCCC;fontStyle=1" parent="1" vertex="1">
          <mxGeometry x="130" y="170" width="300" height="210" as="geometry" />
        </mxCell>
        <mxCell id="o6NXRrJ3ZICEJUwtRlCb-20" style="edgeStyle=orthogonalEdgeStyle;rounded=0;orthogonalLoop=1;jettySize=auto;html=1;exitX=1;exitY=0.25;exitDx=0;exitDy=0;entryX=0.25;entryY=1;entryDx=0;entryDy=0;dashed=1;" parent="1" source="o6NXRrJ3ZICEJUwtRlCb-23" target="o6NXRrJ3ZICEJUwtRlCb-7" edge="1">
          <mxGeometry relative="1" as="geometry" />
        </mxCell>
        <mxCell id="o6NXRrJ3ZICEJUwtRlCb-22" value="запрос метрик" style="edgeLabel;html=1;align=center;verticalAlign=middle;resizable=0;points=[];" parent="o6NXRrJ3ZICEJUwtRlCb-20" vertex="1" connectable="0">
          <mxGeometry x="-0.7714" y="2" relative="1" as="geometry">
            <mxPoint x="34" y="-15" as="offset" />
          </mxGeometry>
        </mxCell>
        <mxCell id="MpuQyKyFSTbepFh6hPgc-7" style="edgeStyle=orthogonalEdgeStyle;rounded=0;orthogonalLoop=1;jettySize=auto;html=1;exitX=1;exitY=0.25;exitDx=0;exitDy=0;startArrow=classic;startFill=1;dashed=1;dashPattern=1 4;entryX=0;entryY=0.5;entryDx=0;entryDy=0;entryPerimeter=0;" parent="1" source="o6NXRrJ3ZICEJUwtRlCb-7" target="MpuQyKyFSTbepFh6hPgc-6" edge="1">
          <mxGeometry relative="1" as="geometry">
            <Array as="points">
              <mxPoint x="920" y="250" />
              <mxPoint x="920" y="190" />
            </Array>
          </mxGeometry>
        </mxCell>
        <mxCell id="o6NXRrJ3ZICEJUwtRlCb-7" value="Состояние" style="rounded=0;whiteSpace=wrap;html=1;labelPosition=center;verticalLabelPosition=top;align=center;verticalAlign=bottom;" parent="1" vertex="1">
          <mxGeometry x="805" y="225" width="90" height="100" as="geometry" />
        </mxCell>
        <mxCell id="o6NXRrJ3ZICEJUwtRlCb-38" style="edgeStyle=orthogonalEdgeStyle;rounded=0;orthogonalLoop=1;jettySize=auto;html=1;exitX=0;exitY=0.5;exitDx=0;exitDy=0;entryX=1;entryY=0.5;entryDx=0;entryDy=0;dashed=1;" parent="1" source="o6NXRrJ3ZICEJUwtRlCb-8" target="o6NXRrJ3ZICEJUwtRlCb-7" edge="1">
          <mxGeometry relative="1" as="geometry" />
        </mxCell>
        <mxCell id="o6NXRrJ3ZICEJUwtRlCb-39" value="Новый ресурс доступен" style="edgeLabel;html=1;align=center;verticalAlign=middle;resizable=0;points=[];" parent="o6NXRrJ3ZICEJUwtRlCb-38" vertex="1" connectable="0">
          <mxGeometry x="-0.0074" relative="1" as="geometry">
            <mxPoint y="-15" as="offset" />
          </mxGeometry>
        </mxCell>
        <mxCell id="MpuQyKyFSTbepFh6hPgc-5" style="edgeStyle=orthogonalEdgeStyle;rounded=0;orthogonalLoop=1;jettySize=auto;html=1;exitX=1;exitY=0.5;exitDx=0;exitDy=0;startArrow=classic;startFill=1;dashed=1;dashPattern=1 4;" parent="1" source="o6NXRrJ3ZICEJUwtRlCb-8" target="MpuQyKyFSTbepFh6hPgc-1" edge="1">
          <mxGeometry relative="1" as="geometry" />
        </mxCell>
        <mxCell id="o6NXRrJ3ZICEJUwtRlCb-8" value="Ресурсы" style="rounded=0;whiteSpace=wrap;html=1;labelPosition=center;verticalLabelPosition=top;align=center;verticalAlign=bottom;" parent="1" vertex="1">
          <mxGeometry x="1030" y="225" width="90" height="100" as="geometry" />
        </mxCell>
        <mxCell id="o6NXRrJ3ZICEJUwtRlCb-13" style="edgeStyle=orthogonalEdgeStyle;rounded=0;orthogonalLoop=1;jettySize=auto;html=1;exitX=0;exitY=0.75;exitDx=0;exitDy=0;entryX=0.197;entryY=1.033;entryDx=0;entryDy=0;entryPerimeter=0;dashed=1;" parent="1" source="o6NXRrJ3ZICEJUwtRlCb-25" edge="1">
          <mxGeometry relative="1" as="geometry">
            <mxPoint x="400.9" y="640.57" as="sourcePoint" />
            <mxPoint x="179.99999999999991" y="380.00000000000006" as="targetPoint" />
          </mxGeometry>
        </mxCell>
        <mxCell id="o6NXRrJ3ZICEJUwtRlCb-14" value="создать проблему" style="edgeLabel;html=1;align=center;verticalAlign=middle;resizable=0;points=[];" parent="o6NXRrJ3ZICEJUwtRlCb-13" vertex="1" connectable="0">
          <mxGeometry x="0.1692" y="-4" relative="1" as="geometry">
            <mxPoint x="106" y="53" as="offset" />
          </mxGeometry>
        </mxCell>
        <mxCell id="o6NXRrJ3ZICEJUwtRlCb-15" style="edgeStyle=orthogonalEdgeStyle;rounded=0;orthogonalLoop=1;jettySize=auto;html=1;entryX=0;entryY=0.5;entryDx=0;entryDy=0;dashed=1;" parent="1" target="o6NXRrJ3ZICEJUwtRlCb-25" edge="1">
          <mxGeometry relative="1" as="geometry">
            <mxPoint x="190" y="380" as="sourcePoint" />
            <Array as="points">
              <mxPoint x="190" y="635" />
            </Array>
          </mxGeometry>
        </mxCell>
        <mxCell id="o6NXRrJ3ZICEJUwtRlCb-16" value="проблема создана" style="edgeLabel;html=1;align=center;verticalAlign=middle;resizable=0;points=[];" parent="o6NXRrJ3ZICEJUwtRlCb-15" vertex="1" connectable="0">
          <mxGeometry x="0.2907" y="-1" relative="1" as="geometry">
            <mxPoint x="32" y="-11" as="offset" />
          </mxGeometry>
        </mxCell>
        <mxCell id="o6NXRrJ3ZICEJUwtRlCb-27" style="edgeStyle=orthogonalEdgeStyle;rounded=0;orthogonalLoop=1;jettySize=auto;html=1;exitX=1;exitY=0.5;exitDx=0;exitDy=0;entryX=0;entryY=0.5;entryDx=0;entryDy=0;" parent="1" source="o6NXRrJ3ZICEJUwtRlCb-17" target="o6NXRrJ3ZICEJUwtRlCb-7" edge="1">
          <mxGeometry relative="1" as="geometry">
            <Array as="points">
              <mxPoint x="740" y="470" />
              <mxPoint x="740" y="275" />
            </Array>
          </mxGeometry>
        </mxCell>
        <mxCell id="o6NXRrJ3ZICEJUwtRlCb-17" value="очередь проблем" style="rounded=0;whiteSpace=wrap;html=1;" parent="1" vertex="1">
          <mxGeometry x="467.5" y="460" width="205" height="20" as="geometry" />
        </mxCell>
        <mxCell id="o6NXRrJ3ZICEJUwtRlCb-37" style="edgeStyle=orthogonalEdgeStyle;rounded=0;orthogonalLoop=1;jettySize=auto;html=1;exitX=1;exitY=0.5;exitDx=0;exitDy=0;entryX=0.25;entryY=1;entryDx=0;entryDy=0;jumpStyle=gap;" parent="1" source="o6NXRrJ3ZICEJUwtRlCb-18" target="o6NXRrJ3ZICEJUwtRlCb-8" edge="1">
          <mxGeometry relative="1" as="geometry" />
        </mxCell>
        <mxCell id="o6NXRrJ3ZICEJUwtRlCb-18" value="очередь запросов к ресурсам" style="rounded=0;whiteSpace=wrap;html=1;" parent="1" vertex="1">
          <mxGeometry x="467.5" y="490" width="202.5" height="20" as="geometry" />
        </mxCell>
        <mxCell id="o6NXRrJ3ZICEJUwtRlCb-23" value="Собрать метрик" style="rounded=0;whiteSpace=wrap;html=1;" parent="1" vertex="1">
          <mxGeometry x="440" y="660" width="240" height="30" as="geometry" />
        </mxCell>
        <mxCell id="o6NXRrJ3ZICEJUwtRlCb-44" style="edgeStyle=orthogonalEdgeStyle;rounded=0;orthogonalLoop=1;jettySize=auto;html=1;exitX=0;exitY=0.25;exitDx=0;exitDy=0;entryX=0.25;entryY=1;entryDx=0;entryDy=0;dashed=1;fillColor=#f8cecc;strokeColor=#b85450;" parent="1" source="o6NXRrJ3ZICEJUwtRlCb-25" target="o6NXRrJ3ZICEJUwtRlCb-5" edge="1">
          <mxGeometry relative="1" as="geometry">
            <Array as="points">
              <mxPoint x="390" y="628" />
              <mxPoint x="390" y="600" />
              <mxPoint x="205" y="600" />
            </Array>
          </mxGeometry>
        </mxCell>
        <mxCell id="o6NXRrJ3ZICEJUwtRlCb-45" value="+ TroubleCoin" style="edgeLabel;html=1;align=center;verticalAlign=middle;resizable=0;points=[];fontColor=#FF3333;" parent="o6NXRrJ3ZICEJUwtRlCb-44" vertex="1" connectable="0">
          <mxGeometry x="-0.3472" y="-2" relative="1" as="geometry">
            <mxPoint x="-10" y="-8" as="offset" />
          </mxGeometry>
        </mxCell>
        <mxCell id="o6NXRrJ3ZICEJUwtRlCb-25" value="Применить проблемы" style="rounded=0;whiteSpace=wrap;html=1;" parent="1" vertex="1">
          <mxGeometry x="440" y="620" width="240" height="30" as="geometry" />
        </mxCell>
        <mxCell id="o6NXRrJ3ZICEJUwtRlCb-33" style="edgeStyle=orthogonalEdgeStyle;rounded=0;orthogonalLoop=1;jettySize=auto;html=1;exitX=1;exitY=0.3333333333333333;exitDx=0;exitDy=0;exitPerimeter=0;dashed=1;entryX=0;entryY=0.5;entryDx=0;entryDy=0;" parent="1" source="o6NXRrJ3ZICEJUwtRlCb-30" target="o6NXRrJ3ZICEJUwtRlCb-34" edge="1">
          <mxGeometry relative="1" as="geometry">
            <mxPoint x="310" y="790" as="targetPoint" />
          </mxGeometry>
        </mxCell>
        <mxCell id="o6NXRrJ3ZICEJUwtRlCb-30" value="Игрок" style="shape=umlActor;verticalLabelPosition=bottom;verticalAlign=top;html=1;outlineConnect=0;" parent="1" vertex="1">
          <mxGeometry x="190" y="740" width="30" height="60" as="geometry" />
        </mxCell>
        <mxCell id="o6NXRrJ3ZICEJUwtRlCb-32" style="edgeStyle=orthogonalEdgeStyle;rounded=0;orthogonalLoop=1;jettySize=auto;html=1;exitX=0;exitY=0.25;exitDx=0;exitDy=0;dashed=1;" parent="1" source="o6NXRrJ3ZICEJUwtRlCb-31" target="o6NXRrJ3ZICEJUwtRlCb-30" edge="1">
          <mxGeometry relative="1" as="geometry" />
        </mxCell>
        <mxCell id="o6NXRrJ3ZICEJUwtRlCb-31" value="Отправить метрику игроку" style="rounded=0;whiteSpace=wrap;html=1;" parent="1" vertex="1">
          <mxGeometry x="440" y="700" width="240" height="30" as="geometry" />
        </mxCell>
        <mxCell id="o6NXRrJ3ZICEJUwtRlCb-34" value="Собрать инпут от игрока" style="rounded=0;whiteSpace=wrap;html=1;" parent="1" vertex="1">
          <mxGeometry x="440" y="740" width="240" height="30" as="geometry" />
        </mxCell>
        <mxCell id="o6NXRrJ3ZICEJUwtRlCb-36" style="edgeStyle=orthogonalEdgeStyle;rounded=0;orthogonalLoop=1;jettySize=auto;html=1;exitX=1;exitY=0.5;exitDx=0;exitDy=0;entryX=0;entryY=0.5;entryDx=0;entryDy=0;startArrow=none;startFill=0;jumpStyle=gap;" parent="1" source="o6NXRrJ3ZICEJUwtRlCb-35" target="o6NXRrJ3ZICEJUwtRlCb-18" edge="1">
          <mxGeometry relative="1" as="geometry">
            <Array as="points">
              <mxPoint x="720" y="795" />
              <mxPoint x="720" y="550" />
              <mxPoint x="448" y="550" />
              <mxPoint x="448" y="500" />
            </Array>
          </mxGeometry>
        </mxCell>
        <mxCell id="o6NXRrJ3ZICEJUwtRlCb-35" value="Активировать вновь запрошенные ресурсы" style="rounded=0;whiteSpace=wrap;html=1;" parent="1" vertex="1">
          <mxGeometry x="440" y="780" width="240" height="30" as="geometry" />
        </mxCell>
        <mxCell id="o6NXRrJ3ZICEJUwtRlCb-40" value="Отнять ресурсы на жизнеобеспечение" style="rounded=0;whiteSpace=wrap;html=1;" parent="1" vertex="1">
          <mxGeometry x="440" y="820" width="240" height="30" as="geometry" />
        </mxCell>
        <mxCell id="o6NXRrJ3ZICEJUwtRlCb-43" style="edgeStyle=orthogonalEdgeStyle;rounded=0;orthogonalLoop=1;jettySize=auto;html=1;exitX=1;exitY=0.5;exitDx=0;exitDy=0;entryX=0.75;entryY=1;entryDx=0;entryDy=0;dashed=1;" parent="1" source="o6NXRrJ3ZICEJUwtRlCb-42" target="o6NXRrJ3ZICEJUwtRlCb-8" edge="1">
          <mxGeometry relative="1" as="geometry" />
        </mxCell>
        <mxCell id="o6NXRrJ3ZICEJUwtRlCb-42" value="Вернуть освободившиеся ресурсы" style="rounded=0;whiteSpace=wrap;html=1;" parent="1" vertex="1">
          <mxGeometry x="440" y="860" width="240" height="30" as="geometry" />
        </mxCell>
        <mxCell id="o6NXRrJ3ZICEJUwtRlCb-48" value="" style="group" parent="1" vertex="1" connectable="0">
          <mxGeometry x="80" y="1040" width="390" height="30" as="geometry" />
        </mxCell>
        <mxCell id="o6NXRrJ3ZICEJUwtRlCb-46" value="" style="endArrow=classic;html=1;rounded=0;" parent="o6NXRrJ3ZICEJUwtRlCb-48" edge="1">
          <mxGeometry width="50" height="50" relative="1" as="geometry">
            <mxPoint y="14.410000000000082" as="sourcePoint" />
            <mxPoint x="70" y="14.410000000000082" as="targetPoint" />
          </mxGeometry>
        </mxCell>
        <mxCell id="o6NXRrJ3ZICEJUwtRlCb-47" value="Асинхронные запросы (черз шину сообщений)" style="text;html=1;align=left;verticalAlign=middle;whiteSpace=wrap;rounded=0;fontStyle=0" parent="o6NXRrJ3ZICEJUwtRlCb-48" vertex="1">
          <mxGeometry x="80" width="320" height="30" as="geometry" />
        </mxCell>
        <mxCell id="o6NXRrJ3ZICEJUwtRlCb-49" value="" style="group" parent="1" vertex="1" connectable="0">
          <mxGeometry x="80" y="1080" width="390" height="30" as="geometry" />
        </mxCell>
        <mxCell id="o6NXRrJ3ZICEJUwtRlCb-50" value="" style="endArrow=classic;html=1;rounded=0;dashed=1;" parent="o6NXRrJ3ZICEJUwtRlCb-49" edge="1">
          <mxGeometry width="50" height="50" relative="1" as="geometry">
            <mxPoint y="14.410000000000082" as="sourcePoint" />
            <mxPoint x="70" y="14.410000000000082" as="targetPoint" />
          </mxGeometry>
        </mxCell>
        <mxCell id="o6NXRrJ3ZICEJUwtRlCb-51" value="Синхронные запросы (REST, в коде await)" style="text;html=1;align=left;verticalAlign=middle;whiteSpace=wrap;rounded=0;" parent="o6NXRrJ3ZICEJUwtRlCb-49" vertex="1">
          <mxGeometry x="80" width="320" height="30" as="geometry" />
        </mxCell>
        <mxCell id="MpuQyKyFSTbepFh6hPgc-1" value="БД&lt;div&gt;SQL&lt;/div&gt;" style="shape=cylinder3;whiteSpace=wrap;html=1;boundedLbl=1;backgroundOutline=1;size=7.428571428571388;" parent="1" vertex="1">
          <mxGeometry x="1310" y="240" width="52.5" height="70" as="geometry" />
        </mxCell>
        <mxCell id="MpuQyKyFSTbepFh6hPgc-6" value="БД&lt;div&gt;NoSQL&lt;/div&gt;" style="shape=cylinder3;whiteSpace=wrap;html=1;boundedLbl=1;backgroundOutline=1;size=7.428571428571388;" parent="1" vertex="1">
          <mxGeometry x="1310" y="155" width="52.5" height="70" as="geometry" />
        </mxCell>
      </root>
    </mxGraphModel>
  </diagram>
  <diagram name="v0.0.0.0" id="UOAC7Kyy6mlVjlWV6C5J">
    <mxGraphModel dx="838" dy="552" grid="1" gridSize="10" guides="1" tooltips="1" connect="1" arrows="1" fold="1" page="1" pageScale="1" pageWidth="1920" pageHeight="1200" math="0" shadow="0">
      <root>
        <mxCell id="0" />
        <mxCell id="1" parent="0" />
        <mxCell id="DH2n2pj4Jf_HERMOLGTm-19" style="edgeStyle=orthogonalEdgeStyle;rounded=0;orthogonalLoop=1;jettySize=auto;html=1;exitX=1;exitY=0.5;exitDx=0;exitDy=0;entryX=0;entryY=0.5;entryDx=0;entryDy=0;startArrow=classicThin;startFill=1;endArrow=none;endFill=0;" parent="1" source="DH2n2pj4Jf_HERMOLGTm-5" target="DH2n2pj4Jf_HERMOLGTm-21" edge="1">
          <mxGeometry relative="1" as="geometry" />
        </mxCell>
        <mxCell id="DH2n2pj4Jf_HERMOLGTm-20" value="запрос ресурса&amp;nbsp;&lt;div&gt;для решения&lt;/div&gt;" style="edgeLabel;html=1;align=center;verticalAlign=middle;resizable=0;points=[];" parent="DH2n2pj4Jf_HERMOLGTm-19" vertex="1" connectable="0">
          <mxGeometry x="-0.4742" y="-1" relative="1" as="geometry">
            <mxPoint x="25" y="-21" as="offset" />
          </mxGeometry>
        </mxCell>
        <mxCell id="DH2n2pj4Jf_HERMOLGTm-26" style="edgeStyle=orthogonalEdgeStyle;rounded=0;orthogonalLoop=1;jettySize=auto;html=1;exitX=1;exitY=0.75;exitDx=0;exitDy=0;entryX=0;entryY=0.75;entryDx=0;entryDy=0;" parent="1" source="DH2n2pj4Jf_HERMOLGTm-5" target="DH2n2pj4Jf_HERMOLGTm-21" edge="1">
          <mxGeometry relative="1" as="geometry" />
        </mxCell>
        <mxCell id="DH2n2pj4Jf_HERMOLGTm-5" value="Банк ресурсов" style="rounded=0;whiteSpace=wrap;html=1;fillColor=#f5f5f5;fontColor=#333333;strokeColor=#666666;" parent="1" vertex="1">
          <mxGeometry x="200" y="310" width="120" height="60" as="geometry" />
        </mxCell>
        <mxCell id="ISEaZnG02TGC_BF3meIF-23" style="edgeStyle=orthogonalEdgeStyle;rounded=0;orthogonalLoop=1;jettySize=auto;html=1;exitX=0;exitY=0.5;exitDx=0;exitDy=0;exitPerimeter=0;" parent="1" source="DH2n2pj4Jf_HERMOLGTm-13" target="ISEaZnG02TGC_BF3meIF-19" edge="1">
          <mxGeometry relative="1" as="geometry" />
        </mxCell>
        <mxCell id="ISEaZnG02TGC_BF3meIF-32" style="edgeStyle=orthogonalEdgeStyle;rounded=0;orthogonalLoop=1;jettySize=auto;html=1;exitX=0;exitY=0.5;exitDx=0;exitDy=0;exitPerimeter=0;entryX=0;entryY=0.25;entryDx=0;entryDy=0;" parent="1" source="DH2n2pj4Jf_HERMOLGTm-13" target="ISEaZnG02TGC_BF3meIF-24" edge="1">
          <mxGeometry relative="1" as="geometry" />
        </mxCell>
        <mxCell id="DH2n2pj4Jf_HERMOLGTm-13" value="БД" style="shape=cylinder3;whiteSpace=wrap;html=1;boundedLbl=1;backgroundOutline=1;size=15;fillColor=#ffe6cc;strokeColor=#d79b00;" parent="1" vertex="1">
          <mxGeometry x="235" y="420" width="50" height="70" as="geometry" />
        </mxCell>
        <mxCell id="DH2n2pj4Jf_HERMOLGTm-14" style="edgeStyle=orthogonalEdgeStyle;rounded=0;orthogonalLoop=1;jettySize=auto;html=1;exitX=0.5;exitY=1;exitDx=0;exitDy=0;entryX=0.5;entryY=0;entryDx=0;entryDy=0;entryPerimeter=0;startArrow=classic;startFill=1;" parent="1" source="DH2n2pj4Jf_HERMOLGTm-5" target="DH2n2pj4Jf_HERMOLGTm-13" edge="1">
          <mxGeometry relative="1" as="geometry" />
        </mxCell>
        <mxCell id="DH2n2pj4Jf_HERMOLGTm-33" style="edgeStyle=orthogonalEdgeStyle;rounded=0;orthogonalLoop=1;jettySize=auto;html=1;exitX=0;exitY=0.5;exitDx=0;exitDy=0;entryX=0.75;entryY=0;entryDx=0;entryDy=0;startArrow=classic;startFill=1;" parent="1" source="DH2n2pj4Jf_HERMOLGTm-15" target="DH2n2pj4Jf_HERMOLGTm-27" edge="1">
          <mxGeometry relative="1" as="geometry" />
        </mxCell>
        <mxCell id="ISEaZnG02TGC_BF3meIF-5" style="edgeStyle=orthogonalEdgeStyle;rounded=0;orthogonalLoop=1;jettySize=auto;html=1;exitX=1;exitY=0;exitDx=0;exitDy=45;exitPerimeter=0;" parent="1" source="DH2n2pj4Jf_HERMOLGTm-16" target="ISEaZnG02TGC_BF3meIF-12" edge="1">
          <mxGeometry relative="1" as="geometry" />
        </mxCell>
        <mxCell id="DH2n2pj4Jf_HERMOLGTm-15" value="Менеджер состояния" style="rounded=0;whiteSpace=wrap;html=1;fillColor=#f5f5f5;fontColor=#333333;strokeColor=#666666;" parent="1" vertex="1">
          <mxGeometry x="540" y="170" width="120" height="60" as="geometry" />
        </mxCell>
        <mxCell id="ISEaZnG02TGC_BF3meIF-37" style="edgeStyle=orthogonalEdgeStyle;rounded=0;orthogonalLoop=1;jettySize=auto;html=1;exitX=1;exitY=0;exitDx=0;exitDy=45;exitPerimeter=0;" parent="1" source="DH2n2pj4Jf_HERMOLGTm-16" target="ISEaZnG02TGC_BF3meIF-33" edge="1">
          <mxGeometry relative="1" as="geometry" />
        </mxCell>
        <mxCell id="DH2n2pj4Jf_HERMOLGTm-16" value="NoSQL" style="shape=cylinder3;whiteSpace=wrap;html=1;boundedLbl=1;backgroundOutline=1;size=15;fillColor=#ffe6cc;strokeColor=#d79b00;" parent="1" vertex="1">
          <mxGeometry x="720" y="120" width="50" height="70" as="geometry" />
        </mxCell>
        <mxCell id="DH2n2pj4Jf_HERMOLGTm-17" style="edgeStyle=orthogonalEdgeStyle;rounded=0;orthogonalLoop=1;jettySize=auto;html=1;exitX=1;exitY=0.5;exitDx=0;exitDy=0;entryX=0;entryY=0.5;entryDx=0;entryDy=0;entryPerimeter=0;startArrow=classic;startFill=1;" parent="1" source="DH2n2pj4Jf_HERMOLGTm-15" target="DH2n2pj4Jf_HERMOLGTm-16" edge="1">
          <mxGeometry relative="1" as="geometry" />
        </mxCell>
        <mxCell id="DH2n2pj4Jf_HERMOLGTm-18" value="Redis?&lt;div&gt;Mongo?&lt;/div&gt;" style="text;html=1;align=center;verticalAlign=middle;whiteSpace=wrap;rounded=0;" parent="1" vertex="1">
          <mxGeometry x="770" y="130" width="60" height="30" as="geometry" />
        </mxCell>
        <mxCell id="DH2n2pj4Jf_HERMOLGTm-4" value="Генератор проблем" style="rounded=0;whiteSpace=wrap;html=1;fillColor=#f5f5f5;fontColor=#333333;strokeColor=#666666;" parent="1" vertex="1">
          <mxGeometry x="190" y="170" width="120" height="60" as="geometry" />
        </mxCell>
        <mxCell id="DH2n2pj4Jf_HERMOLGTm-34" style="edgeStyle=orthogonalEdgeStyle;rounded=0;orthogonalLoop=1;jettySize=auto;html=1;exitX=0;exitY=0.25;exitDx=0;exitDy=0;entryX=0.75;entryY=1;entryDx=0;entryDy=0;startArrow=classic;startFill=1;" parent="1" source="DH2n2pj4Jf_HERMOLGTm-21" target="DH2n2pj4Jf_HERMOLGTm-27" edge="1">
          <mxGeometry relative="1" as="geometry" />
        </mxCell>
        <mxCell id="DH2n2pj4Jf_HERMOLGTm-21" value="Модуль решения" style="rounded=0;whiteSpace=wrap;html=1;fillColor=#f5f5f5;fontColor=#333333;strokeColor=#666666;" parent="1" vertex="1">
          <mxGeometry x="550" y="310" width="120" height="60" as="geometry" />
        </mxCell>
        <mxCell id="DH2n2pj4Jf_HERMOLGTm-22" value="REST" style="text;html=1;align=center;verticalAlign=middle;whiteSpace=wrap;rounded=0;" parent="1" vertex="1">
          <mxGeometry x="350" y="360" width="60" height="30" as="geometry" />
        </mxCell>
        <mxCell id="DH2n2pj4Jf_HERMOLGTm-24" style="edgeStyle=orthogonalEdgeStyle;rounded=0;orthogonalLoop=1;jettySize=auto;html=1;exitX=1;exitY=0.3333333333333333;exitDx=0;exitDy=0;exitPerimeter=0;entryX=0.5;entryY=1;entryDx=0;entryDy=0;" parent="1" source="DH2n2pj4Jf_HERMOLGTm-23" edge="1">
          <mxGeometry relative="1" as="geometry">
            <mxPoint x="620" y="470" as="sourcePoint" />
            <mxPoint x="520" y="600" as="targetPoint" />
            <Array as="points">
              <mxPoint x="560" y="630" />
              <mxPoint x="520" y="630" />
            </Array>
          </mxGeometry>
        </mxCell>
        <mxCell id="DH2n2pj4Jf_HERMOLGTm-23" value="Игрок" style="shape=umlActor;verticalLabelPosition=bottom;verticalAlign=top;html=1;outlineConnect=0;" parent="1" vertex="1">
          <mxGeometry x="530" y="650" width="30" height="60" as="geometry" />
        </mxCell>
        <mxCell id="DH2n2pj4Jf_HERMOLGTm-30" value="Postgres" style="text;html=1;align=center;verticalAlign=middle;whiteSpace=wrap;rounded=0;" parent="1" vertex="1">
          <mxGeometry x="230" y="490" width="60" height="30" as="geometry" />
        </mxCell>
        <mxCell id="DH2n2pj4Jf_HERMOLGTm-27" value="шина сообщений (доменные события) - RabbitMQ" style="rounded=0;whiteSpace=wrap;html=1;fillColor=#ffe6cc;strokeColor=#d79b00;" parent="1" vertex="1">
          <mxGeometry x="180" y="260" width="450" height="20" as="geometry" />
        </mxCell>
        <mxCell id="DH2n2pj4Jf_HERMOLGTm-32" style="edgeStyle=orthogonalEdgeStyle;rounded=0;orthogonalLoop=1;jettySize=auto;html=1;exitX=1;exitY=0.5;exitDx=0;exitDy=0;entryX=0.402;entryY=-0.067;entryDx=0;entryDy=0;entryPerimeter=0;" parent="1" source="DH2n2pj4Jf_HERMOLGTm-4" target="DH2n2pj4Jf_HERMOLGTm-27" edge="1">
          <mxGeometry relative="1" as="geometry" />
        </mxCell>
        <mxCell id="DH2n2pj4Jf_HERMOLGTm-35" value="&lt;ol&gt;&lt;li&gt;Игрок может выполнять одну роль: планировщика миссии, генератора проблем или решателя проблем&lt;/li&gt;&lt;li&gt;Количество проблем и их вероятность ограничена&lt;/li&gt;&lt;li&gt;Остальные роли выполняются сервисами автоматически&lt;/li&gt;&lt;li&gt;Время решения каждой проблемы ограничено&lt;/li&gt;&lt;li&gt;Для решения проблемы нужно получить ресурсы из банка как материалы, так и исполнителей&lt;/li&gt;&lt;li&gt;Пул ресурсов ограничен и задается на этапе планирования миссии&lt;/li&gt;&lt;li&gt;Если в течении лимита времени проблема не была решена - миссия провалена&lt;/li&gt;&lt;/ol&gt;" style="text;html=1;align=left;verticalAlign=middle;whiteSpace=wrap;rounded=0;" parent="1" vertex="1">
          <mxGeometry x="1530" y="170" width="360" height="220" as="geometry" />
        </mxCell>
        <mxCell id="DH2n2pj4Jf_HERMOLGTm-43" value="Легенда" style="swimlane;whiteSpace=wrap;html=1;" parent="1" vertex="1">
          <mxGeometry x="1610" y="400" width="250" height="175" as="geometry">
            <mxRectangle x="880" y="45" width="90" height="30" as="alternateBounds" />
          </mxGeometry>
        </mxCell>
        <mxCell id="DH2n2pj4Jf_HERMOLGTm-45" value="" style="group" parent="DH2n2pj4Jf_HERMOLGTm-43" vertex="1" connectable="0">
          <mxGeometry x="10" y="40" width="220" height="30" as="geometry" />
        </mxCell>
        <mxCell id="DH2n2pj4Jf_HERMOLGTm-36" value="" style="rounded=0;whiteSpace=wrap;html=1;fillColor=#ffe6cc;strokeColor=#d79b00;" parent="DH2n2pj4Jf_HERMOLGTm-45" vertex="1">
          <mxGeometry y="5" width="40" height="20" as="geometry" />
        </mxCell>
        <mxCell id="DH2n2pj4Jf_HERMOLGTm-41" value="Инфраструктурные сервисы" style="text;html=1;align=left;verticalAlign=middle;whiteSpace=wrap;rounded=0;" parent="DH2n2pj4Jf_HERMOLGTm-45" vertex="1">
          <mxGeometry x="50" width="170" height="30" as="geometry" />
        </mxCell>
        <mxCell id="DH2n2pj4Jf_HERMOLGTm-47" value="" style="group" parent="DH2n2pj4Jf_HERMOLGTm-43" vertex="1" connectable="0">
          <mxGeometry x="10" y="80" width="210" height="30" as="geometry" />
        </mxCell>
        <mxCell id="DH2n2pj4Jf_HERMOLGTm-37" value="" style="rounded=0;whiteSpace=wrap;html=1;fillColor=#f5f5f5;strokeColor=#666666;fontColor=#333333;" parent="DH2n2pj4Jf_HERMOLGTm-47" vertex="1">
          <mxGeometry y="5" width="40" height="20" as="geometry" />
        </mxCell>
        <mxCell id="DH2n2pj4Jf_HERMOLGTm-40" value="Сервисы проекта" style="text;html=1;align=left;verticalAlign=middle;whiteSpace=wrap;rounded=0;" parent="DH2n2pj4Jf_HERMOLGTm-47" vertex="1">
          <mxGeometry x="50" width="160" height="30" as="geometry" />
        </mxCell>
        <mxCell id="DH2n2pj4Jf_HERMOLGTm-48" value="" style="group" parent="DH2n2pj4Jf_HERMOLGTm-43" vertex="1" connectable="0">
          <mxGeometry x="10" y="120" width="210" height="30" as="geometry" />
        </mxCell>
        <mxCell id="DH2n2pj4Jf_HERMOLGTm-38" value="" style="rounded=0;whiteSpace=wrap;html=1;fillColor=#d5e8d4;strokeColor=#82b366;" parent="DH2n2pj4Jf_HERMOLGTm-48" vertex="1">
          <mxGeometry y="5" width="40" height="20" as="geometry" />
        </mxCell>
        <mxCell id="DH2n2pj4Jf_HERMOLGTm-39" value="Шаблоны, технологии" style="text;html=1;align=left;verticalAlign=middle;whiteSpace=wrap;rounded=0;" parent="DH2n2pj4Jf_HERMOLGTm-48" vertex="1">
          <mxGeometry x="50" width="160" height="30" as="geometry" />
        </mxCell>
        <mxCell id="DH2n2pj4Jf_HERMOLGTm-49" value="&lt;div&gt;блокировки&lt;/div&gt;&lt;div&gt;фабрика&lt;/div&gt;" style="ellipse;shape=cloud;whiteSpace=wrap;html=1;fillColor=#d5e8d4;strokeColor=#82b366;" parent="1" vertex="1">
          <mxGeometry x="120" y="350" width="120" height="80" as="geometry" />
        </mxCell>
        <mxCell id="DH2n2pj4Jf_HERMOLGTm-12" value="фабрика&lt;div&gt;блокировки&lt;/div&gt;" style="ellipse;shape=cloud;whiteSpace=wrap;html=1;fillColor=#d5e8d4;strokeColor=#82b366;" parent="1" vertex="1">
          <mxGeometry x="130" y="100" width="120" height="80" as="geometry" />
        </mxCell>
        <mxCell id="DH2n2pj4Jf_HERMOLGTm-31" value="DTO" style="ellipse;shape=cloud;whiteSpace=wrap;html=1;fillColor=#d5e8d4;strokeColor=#82b366;" parent="1" vertex="1">
          <mxGeometry x="620" y="245" width="80" height="50" as="geometry" />
        </mxCell>
        <mxCell id="DH2n2pj4Jf_HERMOLGTm-51" value="Цель выполнить миссию - завершитьполет. Задается время полета, в течении которого могут возникать проблемы: удары метеоритов, поломки и т.п. Нужно спланировать ресурсы таким образом, чтобы за время полета не осталось не решенных проблем" style="text;html=1;align=left;verticalAlign=middle;whiteSpace=wrap;rounded=0;" parent="1" vertex="1">
          <mxGeometry x="1530" y="80" width="360" height="90" as="geometry" />
        </mxCell>
        <mxCell id="ISEaZnG02TGC_BF3meIF-1" value="Набор метрик" style="swimlane;fontStyle=0;childLayout=stackLayout;horizontal=1;startSize=30;horizontalStack=0;resizeParent=1;resizeParentMax=0;resizeLast=0;collapsible=1;marginBottom=0;whiteSpace=wrap;html=1;" parent="1" vertex="1">
          <mxGeometry x="810" y="340" width="140" height="120" as="geometry" />
        </mxCell>
        <mxCell id="ISEaZnG02TGC_BF3meIF-2" value="Здоровье двигателей" style="text;strokeColor=none;fillColor=none;align=left;verticalAlign=middle;spacingLeft=4;spacingRight=4;overflow=hidden;points=[[0,0.5],[1,0.5]];portConstraint=eastwest;rotatable=0;whiteSpace=wrap;html=1;" parent="ISEaZnG02TGC_BF3meIF-1" vertex="1">
          <mxGeometry y="30" width="140" height="30" as="geometry" />
        </mxCell>
        <mxCell id="ISEaZnG02TGC_BF3meIF-3" value="Здоровье обшивки" style="text;strokeColor=none;fillColor=none;align=left;verticalAlign=middle;spacingLeft=4;spacingRight=4;overflow=hidden;points=[[0,0.5],[1,0.5]];portConstraint=eastwest;rotatable=0;whiteSpace=wrap;html=1;" parent="ISEaZnG02TGC_BF3meIF-1" vertex="1">
          <mxGeometry y="60" width="140" height="30" as="geometry" />
        </mxCell>
        <mxCell id="ISEaZnG02TGC_BF3meIF-4" value="Запас топлива" style="text;strokeColor=none;fillColor=none;align=left;verticalAlign=middle;spacingLeft=4;spacingRight=4;overflow=hidden;points=[[0,0.5],[1,0.5]];portConstraint=eastwest;rotatable=0;whiteSpace=wrap;html=1;" parent="ISEaZnG02TGC_BF3meIF-1" vertex="1">
          <mxGeometry y="90" width="140" height="30" as="geometry" />
        </mxCell>
        <mxCell id="ISEaZnG02TGC_BF3meIF-7" style="edgeStyle=orthogonalEdgeStyle;rounded=0;orthogonalLoop=1;jettySize=auto;html=1;entryX=0.75;entryY=1;entryDx=0;entryDy=0;" parent="1" source="ISEaZnG02TGC_BF3meIF-11" target="DH2n2pj4Jf_HERMOLGTm-5" edge="1">
          <mxGeometry relative="1" as="geometry">
            <Array as="points">
              <mxPoint x="340" y="560" />
              <mxPoint x="340" y="410" />
              <mxPoint x="290" y="410" />
            </Array>
          </mxGeometry>
        </mxCell>
        <mxCell id="ISEaZnG02TGC_BF3meIF-8" value="Планировщик" style="edgeLabel;html=1;align=center;verticalAlign=middle;resizable=0;points=[];" parent="ISEaZnG02TGC_BF3meIF-7" vertex="1" connectable="0">
          <mxGeometry x="-0.2606" y="-1" relative="1" as="geometry">
            <mxPoint x="42" y="-14" as="offset" />
          </mxGeometry>
        </mxCell>
        <mxCell id="ISEaZnG02TGC_BF3meIF-9" style="edgeStyle=orthogonalEdgeStyle;rounded=0;orthogonalLoop=1;jettySize=auto;html=1;exitX=1;exitY=0.5;exitDx=0;exitDy=0;entryX=0.5;entryY=1;entryDx=0;entryDy=0;" parent="1" source="ISEaZnG02TGC_BF3meIF-11" target="DH2n2pj4Jf_HERMOLGTm-21" edge="1">
          <mxGeometry relative="1" as="geometry" />
        </mxCell>
        <mxCell id="ISEaZnG02TGC_BF3meIF-10" value="Решала" style="edgeLabel;html=1;align=center;verticalAlign=middle;resizable=0;points=[];" parent="ISEaZnG02TGC_BF3meIF-9" vertex="1" connectable="0">
          <mxGeometry x="-0.2636" y="-2" relative="1" as="geometry">
            <mxPoint x="28" y="-9" as="offset" />
          </mxGeometry>
        </mxCell>
        <mxCell id="ISEaZnG02TGC_BF3meIF-11" value="Выбор роли" style="rhombus;whiteSpace=wrap;html=1;" parent="1" vertex="1">
          <mxGeometry x="480" y="520" width="80" height="80" as="geometry" />
        </mxCell>
        <mxCell id="ISEaZnG02TGC_BF3meIF-12" value="Корабль" style="swimlane;fontStyle=0;childLayout=stackLayout;horizontal=1;startSize=30;horizontalStack=0;resizeParent=1;resizeParentMax=0;resizeLast=0;collapsible=1;marginBottom=0;whiteSpace=wrap;html=1;" parent="1" vertex="1">
          <mxGeometry x="810" y="205" width="140" height="90" as="geometry" />
        </mxCell>
        <mxCell id="ISEaZnG02TGC_BF3meIF-13" value="Удаление от цели" style="text;strokeColor=none;fillColor=none;align=left;verticalAlign=middle;spacingLeft=4;spacingRight=4;overflow=hidden;points=[[0,0.5],[1,0.5]];portConstraint=eastwest;rotatable=0;whiteSpace=wrap;html=1;" parent="ISEaZnG02TGC_BF3meIF-12" vertex="1">
          <mxGeometry y="30" width="140" height="30" as="geometry" />
        </mxCell>
        <mxCell id="ISEaZnG02TGC_BF3meIF-14" value="Метрики" style="text;strokeColor=none;fillColor=none;align=left;verticalAlign=middle;spacingLeft=4;spacingRight=4;overflow=hidden;points=[[0,0.5],[1,0.5]];portConstraint=eastwest;rotatable=0;whiteSpace=wrap;html=1;" parent="ISEaZnG02TGC_BF3meIF-12" vertex="1">
          <mxGeometry y="60" width="140" height="30" as="geometry" />
        </mxCell>
        <mxCell id="ISEaZnG02TGC_BF3meIF-16" style="edgeStyle=orthogonalEdgeStyle;rounded=0;orthogonalLoop=1;jettySize=auto;html=1;exitX=1;exitY=0.5;exitDx=0;exitDy=0;entryX=0.5;entryY=0;entryDx=0;entryDy=0;" parent="1" source="ISEaZnG02TGC_BF3meIF-14" target="ISEaZnG02TGC_BF3meIF-1" edge="1">
          <mxGeometry relative="1" as="geometry" />
        </mxCell>
        <mxCell id="ISEaZnG02TGC_BF3meIF-17" value="Событие с типом Проблема уменьшает метрику на x% в заваисимости от тяжести" style="text;html=1;align=left;verticalAlign=middle;whiteSpace=wrap;rounded=0;" parent="1" vertex="1">
          <mxGeometry x="490" y="40" width="360" height="30" as="geometry" />
        </mxCell>
        <mxCell id="ISEaZnG02TGC_BF3meIF-18" value="Событие с типом Решение уыеличивает метрику на x% в заваисимости от тяжести исходного события" style="text;html=1;align=left;verticalAlign=middle;whiteSpace=wrap;rounded=0;" parent="1" vertex="1">
          <mxGeometry x="490" y="80" width="360" height="30" as="geometry" />
        </mxCell>
        <mxCell id="ISEaZnG02TGC_BF3meIF-19" value="Ресурс" style="swimlane;fontStyle=0;childLayout=stackLayout;horizontal=1;startSize=30;horizontalStack=0;resizeParent=1;resizeParentMax=0;resizeLast=0;collapsible=1;marginBottom=0;whiteSpace=wrap;html=1;" parent="1" vertex="1">
          <mxGeometry x="60" y="500" width="140" height="90" as="geometry" />
        </mxCell>
        <mxCell id="ISEaZnG02TGC_BF3meIF-20" value="Срок годности" style="text;strokeColor=none;fillColor=none;align=left;verticalAlign=middle;spacingLeft=4;spacingRight=4;overflow=hidden;points=[[0,0.5],[1,0.5]];portConstraint=eastwest;rotatable=0;whiteSpace=wrap;html=1;" parent="ISEaZnG02TGC_BF3meIF-19" vertex="1">
          <mxGeometry y="30" width="140" height="30" as="geometry" />
        </mxCell>
        <mxCell id="ISEaZnG02TGC_BF3meIF-21" value="Запас" style="text;strokeColor=none;fillColor=none;align=left;verticalAlign=middle;spacingLeft=4;spacingRight=4;overflow=hidden;points=[[0,0.5],[1,0.5]];portConstraint=eastwest;rotatable=0;whiteSpace=wrap;html=1;" parent="ISEaZnG02TGC_BF3meIF-19" vertex="1">
          <mxGeometry y="60" width="140" height="30" as="geometry" />
        </mxCell>
        <mxCell id="ISEaZnG02TGC_BF3meIF-24" value="Член экипажа" style="swimlane;fontStyle=0;childLayout=stackLayout;horizontal=1;startSize=30;horizontalStack=0;resizeParent=1;resizeParentMax=0;resizeLast=0;collapsible=1;marginBottom=0;whiteSpace=wrap;html=1;" parent="1" vertex="1">
          <mxGeometry x="60" y="620" width="140" height="60" as="geometry" />
        </mxCell>
        <mxCell id="ISEaZnG02TGC_BF3meIF-25" value="Скилы" style="text;strokeColor=none;fillColor=none;align=left;verticalAlign=middle;spacingLeft=4;spacingRight=4;overflow=hidden;points=[[0,0.5],[1,0.5]];portConstraint=eastwest;rotatable=0;whiteSpace=wrap;html=1;" parent="ISEaZnG02TGC_BF3meIF-24" vertex="1">
          <mxGeometry y="30" width="140" height="30" as="geometry" />
        </mxCell>
        <mxCell id="ISEaZnG02TGC_BF3meIF-27" value="Навык" style="swimlane;fontStyle=0;childLayout=stackLayout;horizontal=1;startSize=30;horizontalStack=0;resizeParent=1;resizeParentMax=0;resizeLast=0;collapsible=1;marginBottom=0;whiteSpace=wrap;html=1;" parent="1" vertex="1">
          <mxGeometry x="170" y="740" width="140" height="90" as="geometry" />
        </mxCell>
        <mxCell id="ISEaZnG02TGC_BF3meIF-28" value="Компетенция" style="text;strokeColor=none;fillColor=none;align=left;verticalAlign=middle;spacingLeft=4;spacingRight=4;overflow=hidden;points=[[0,0.5],[1,0.5]];portConstraint=eastwest;rotatable=0;whiteSpace=wrap;html=1;" parent="ISEaZnG02TGC_BF3meIF-27" vertex="1">
          <mxGeometry y="30" width="140" height="30" as="geometry" />
        </mxCell>
        <mxCell id="ISEaZnG02TGC_BF3meIF-29" value="Уровень" style="text;strokeColor=none;fillColor=none;align=left;verticalAlign=middle;spacingLeft=4;spacingRight=4;overflow=hidden;points=[[0,0.5],[1,0.5]];portConstraint=eastwest;rotatable=0;whiteSpace=wrap;html=1;" parent="ISEaZnG02TGC_BF3meIF-27" vertex="1">
          <mxGeometry y="60" width="140" height="30" as="geometry" />
        </mxCell>
        <mxCell id="ISEaZnG02TGC_BF3meIF-31" style="edgeStyle=orthogonalEdgeStyle;rounded=0;orthogonalLoop=1;jettySize=auto;html=1;exitX=1;exitY=0.5;exitDx=0;exitDy=0;entryX=0.5;entryY=0;entryDx=0;entryDy=0;" parent="1" source="ISEaZnG02TGC_BF3meIF-25" target="ISEaZnG02TGC_BF3meIF-27" edge="1">
          <mxGeometry relative="1" as="geometry" />
        </mxCell>
        <mxCell id="ISEaZnG02TGC_BF3meIF-33" value="слепок склада ресурсов" style="swimlane;fontStyle=0;childLayout=stackLayout;horizontal=1;startSize=30;horizontalStack=0;resizeParent=1;resizeParentMax=0;resizeLast=0;collapsible=1;marginBottom=0;whiteSpace=wrap;html=1;" parent="1" vertex="1">
          <mxGeometry x="1000" y="205" width="140" height="60" as="geometry" />
        </mxCell>
        <mxCell id="ISEaZnG02TGC_BF3meIF-34" value="Ресурсы" style="text;strokeColor=none;fillColor=none;align=left;verticalAlign=middle;spacingLeft=4;spacingRight=4;overflow=hidden;points=[[0,0.5],[1,0.5]];portConstraint=eastwest;rotatable=0;whiteSpace=wrap;html=1;" parent="ISEaZnG02TGC_BF3meIF-33" vertex="1">
          <mxGeometry y="30" width="140" height="30" as="geometry" />
        </mxCell>
      </root>
    </mxGraphModel>
  </diagram>
</mxfile>
